<?xml version="1.0" encoding="UTF-8"?>
<svg id="Layer_2" data-name="Layer 2" xmlns="http://www.w3.org/2000/svg" viewBox="0 0 98.62 98.4">
  <defs>
    <style>
      .cls-1 {
        fill: #29ff65;
      }
    </style>
  </defs>
  <g id="Layer_1-2" data-name="Layer 1">
    <path class="cls-1" d="m77.73,0H20.89C9.21,0,0,9.21,0,20.89v56.61c0,11.68,9.21,20.89,20.89,20.89h56.61c11.68,0,21.12-9.21,21.12-20.67V20.89c0-11.68-9.21-20.89-20.89-20.89Zm3.15,77.28c-1.35.9-2.92,1.35-4.27,1.8-2.92,1.12-6.52,1.35-9.88,1.35-4.27-.22-8.76-1.57-12.58-4.04-1.35-.9-3.37-1.8-3.59-3.59-.22-1.57.9-4.04,1.35-5.39,1.35-3.37,2.92-9.21,5.17-17.3,0-.9-.22-1.57-1.35-1.8-.9-.22-1.35.22-1.57,1.12-1.35,4.72-3.59,9.21-4.94,13.93-.45,1.57-1.12,3.59-1.57,5.17-1.57,4.94-3.82,8.09-6.29,9.88-1.57,1.12-3.59,1.57-5.39,1.57-1.57,0-3.59-.45-5.17-1.12-3.82-1.57-7.41-4.72-10.78-8.99-2.47-2.7-4.27-6.29-6.29-10.11-1.8-3.82-2.7-9.88-2.7-17.3,0-2.47.22-5.17.9-7.64.45-2.25.9-6.07,2.25-7.64,2.92-3.59,10.78-2.7,14.6-1.35,2.92,1.12,5.62,3.37,7.64,6.07.9,1.12,2.25,2.7,2.25,4.04,0,1.57-1.57,4.27-2.25,6.07-1.12,2.7-2.25,5.39-2.92,8.09-.45,1.35-.9,2.7-.9,4.04,0,.9-.22,1.57.45,1.8.9.22,1.12,0,1.35-.9.9-1.8,1.35-3.82,2.25-6.07,1.35-3.59,2.7-6.96,4.27-10.33,1.57-3.37,3.37-6.74,5.62-9.44,3.59-4.27,6.96-6.52,11.23-6.96.45,0,1.35-.22,2.25,0,9.88,1.8,16.4,9.44,19.32,22.47,2.47,11.23,3.82,20.89,3.59,28.98-.22,2.25-.22,2.47-2.02,3.59Z"/>
  </g>
</svg>