<svg xmlns="http://www.w3.org/2000/svg" xmlns:xlink="http://www.w3.org/1999/xlink" version="1.1" x="0px" y="0px" viewBox="0 0 500 500" style="enable-background:new 0 0 500 500;" xml:space="preserve" width="500px" height="500px">
<g id="BACKGROUND">
	<rect style="fill:#FFFFFF;" width="500" height="500"/>
</g>
<g id="OBJECTS">
	<path style="fill: rgb(127, 95, 64);" d="M154.077,407.09h228.645c0,0,77.419,1.548,74.323-46.968c-3.097-48.516-46.452-52.645-32.516-78.452   c13.935-25.806,44.903-27.784,42.323-65.247c-2.581-37.463-37.419-29.721-62.323-49.334   c-24.903-19.613-35.484-71.226-93.419-82.065s-138.968-8.258-157.032,14.452c-18.064,22.71-19.613,39.29-53.161,43.387   c-33.548,4.097-71.742,28.987-55.226,60.413c16.516,31.426,39.742,29.038,27.355,65.587s-31.329,70.097-7.742,101.581   C89.646,402.939,110.206,407.09,154.077,407.09z"/>
	<g>
		<defs>
			<path id="SVGID_1_" d="M154.077,407.09h228.645c0,0,77.419,1.548,74.323-46.968c-3.097-48.516-46.452-52.645-32.516-78.452     c13.935-25.806,44.903-27.784,42.323-65.247c-2.581-37.463-37.419-29.721-62.323-49.334     c-24.903-19.613-35.484-71.226-93.419-82.065s-138.968-8.258-157.032,14.452c-18.064,22.71-19.613,39.29-53.161,43.387     c-33.548,4.097-71.742,28.987-55.226,60.413c16.516,31.426,39.742,29.038,27.355,65.587s-31.329,70.097-7.742,101.581     C89.646,402.939,110.206,407.09,154.077,407.09z"/>
		</defs>
		<clipPath id="SVGID_00000161594192496982986870000016456994269197107614_">
			<use xlink:href="#SVGID_1_" style="overflow:visible;"/>
		</clipPath>
		<g style="clip-path:url(#SVGID_00000161594192496982986870000016456994269197107614_);">
			<g>
				<path style="fill: rgb(192, 156, 47);" d="M50.98,215.348h36.774v14.323h52.645v-13.161h23.226v25.161h14.71v-26.323l7.548-7.548h5.226      v43.161h11.613v-20.516h10.064v14.71h25.936v-49.548h9.29v21.677H260.4v-15.871c0,0,1.548-18.581,18.194-22.839v66.581h20.516      v-8.903l5.806-5.806h44.903v-48.774h12.387v63.484H380.4v-62.323h14.71v48h27.097v20.516h9.29v-12.387h34.839l-20.516,43.355      H54.851L50.98,215.348z"/>
				<rect x="278.464" y="65.929" style="fill: rgb(52, 43, 35);" width="5.161" height="216.774"/>
				<rect x="448.787" y="65.929" style="fill: rgb(52, 43, 35);" width="5.161" height="216.774"/>
				<rect x="69.432" y="65.929" style="fill: rgb(52, 43, 35);" width="5.161" height="216.774"/>
				<rect x="17.303" y="282.703" style="fill: rgb(97, 74, 56);" width="460.645" height="133.936"/>
				<rect x="60.141" y="279.606" style="fill: rgb(52, 43, 35);" width="387.097" height="7.226"/>
			</g>
			
				<linearGradient id="SVGID_00000160162784507454488680000002003082509235492534_" gradientUnits="userSpaceOnUse" x1="251.8425" y1="378.9161" x2="265.2619" y2="295.3032">
				<stop offset="0" style="stop-color: rgb(64, 61, 54); stop-opacity: 0;"/>
				<stop offset="1" style="stop-color:#FFFFFF"/>
			</linearGradient>
			<path style="opacity:0.25;fill:url(#SVGID_00000160162784507454488680000002003082509235492534_);" d="M154.077,407.09h228.645     c0,0,77.419,1.548,74.323-46.968c-0.876-13.73-4.978-23.903-10.091-32.02c-48.982,8.241-135.568,37.924-212.877,22.73     c-70.366-13.829-149.373-10.029-179.707-7.797c0.954,9.318,4.219,18.448,10.933,27.41     C89.646,402.939,110.206,407.09,154.077,407.09z"/>
			
				<linearGradient id="SVGID_00000162322662562566402910000005575158590156288953_" gradientUnits="userSpaceOnUse" x1="233.2249" y1="430.1195" x2="259.0312" y2="350.6357">
				<stop offset="0" style="stop-color: rgb(64, 61, 54); stop-opacity: 0;"/>
				<stop offset="1" style="stop-color:#FFFFFF"/>
			</linearGradient>
			<path style="opacity:0.25;fill:url(#SVGID_00000162322662562566402910000005575158590156288953_);" d="M456.712,368.69     c-19.643-3.852-63.525,0.429-99.28,8.464c-45.935,10.323-124.903-6.71-197.161-23.226c-49.618-11.341-86.58-7.837-104.871-4.528     c1.598,7.121,4.725,14.132,9.903,21.044c24.343,32.494,44.903,36.645,88.774,36.645h228.645     C382.722,407.09,450.713,408.449,456.712,368.69z"/>
			<g>
				
					<rect x="330.722" y="378.445" style="fill: none; stroke: rgb(52, 43, 35); stroke-width: 0.5; stroke-miterlimit: 10;" width="34.387" height="8.387"/>
				
					<rect x="122.851" y="318.832" style="fill: none; stroke: rgb(52, 43, 35); stroke-width: 0.5; stroke-miterlimit: 10;" width="34.387" height="8.387"/>
				
					<rect x="122.851" y="367.219" style="fill: none; stroke: rgb(52, 43, 35); stroke-width: 0.5; stroke-miterlimit: 10;" width="34.387" height="8.387"/>
				
					<rect x="52.787" y="318.832" style="fill: none; stroke: rgb(52, 43, 35); stroke-width: 0.5; stroke-miterlimit: 10;" width="34.387" height="8.387"/>
				
					<rect x="352.27" y="368.122" style="fill: none; stroke: rgb(52, 43, 35); stroke-width: 0.5; stroke-miterlimit: 10;" width="34.387" height="8.387"/>
			</g>
		</g>
		<polygon style="clip-path: url(&quot;#SVGID_00000161594192496982986870000016456994269197107614_&quot;); fill: rgb(15, 33, 16);" points="    135.255,360.124 134.675,367.414 131.385,408.384 84.355,408.384 81.065,367.414 80.485,360.124   "/>
		<polygon style="clip-path: url(&quot;#SVGID_00000161594192496982986870000016456994269197107614_&quot;); fill: rgb(140, 143, 68);" points="    135.255,360.124 134.675,367.414 81.065,367.414 80.485,360.124   "/>
		
			<linearGradient id="SVGID_00000049906614119069021350000009521233670458422946_" gradientUnits="userSpaceOnUse" x1="96.5935" y1="399.0658" x2="85.7548" y2="361.6464">
			<stop offset="0" style="stop-color: rgb(15, 33, 16); stop-opacity: 0;"/>
			<stop offset="1" style="stop-color: rgb(32, 34, 32);"/>
		</linearGradient>
		
			<path style="opacity:0.27;clip-path:url(#SVGID_00000161594192496982986870000016456994269197107614_);fill:url(#SVGID_00000049906614119069021350000009521233670458422946_);" d="    M100.251,360.124H80.485l0.58,7.29l3.29,40.97h28.415C109.66,396.493,103.363,372.372,100.251,360.124z"/>
		<g style="clip-path:url(#SVGID_00000161594192496982986870000016456994269197107614_);">
			<polygon style="fill: rgb(15, 33, 16);" points="442.593,376.64 442.054,383.93 438.998,424.9 395.306,424.9 392.25,383.93      391.711,376.64    "/>
			<polygon style="fill: rgb(140, 143, 68);" points="442.593,376.64 442.054,383.93 392.25,383.93 391.711,376.64    "/>
			
				<linearGradient id="SVGID_00000132070961131013071880000004328656884207033217_" gradientUnits="userSpaceOnUse" x1="406.911" y1="415.3425" x2="396.1972" y2="378.3542">
				<stop offset="0" style="stop-color: rgb(15, 33, 16); stop-opacity: 0;"/>
				<stop offset="1" style="stop-color: rgb(32, 34, 32);"/>
			</linearGradient>
			<path style="opacity:0.27;fill:url(#SVGID_00000132070961131013071880000004328656884207033217_);" d="M410.074,376.64h-18.363     l0.539,7.29l3.056,40.97h26.398C418.815,413.009,412.965,388.888,410.074,376.64z"/>
		</g>
	</g>
	<g>
		<g>
			
				<linearGradient id="SVGID_00000114062572271870333870000002062967773956891278_" gradientUnits="userSpaceOnUse" x1="139.4982" y1="341.4557" x2="171.0466" y2="315.7137">
				<stop offset="0" style="stop-color: rgb(210, 221, 89);"/>
				<stop offset="1" style="stop-color: rgb(74, 86, 74);"/>
			</linearGradient>
			<path style="fill:url(#SVGID_00000114062572271870333870000002062967773956891278_);" d="M159.461,318.648     c-0.75,2.492-2.117,5.463-4.569,6.894c-2.965,1.729-4.186-1.883-4.412-4.836c-4.301,1.462-8.807,3.62-12.657,6.346     c0.214,3.203,0.009,8.229-2.931,10.748c-2.507,2.149-4.663,0.957-6.086-0.529c-3.928,8.035-3.979,17.348-3.979,17.348     c8.576,1.328,18.252-2.353,26.099-7.224c-1.023-1.594-1.846-4.226,1.256-6.757c2.849-2.324,6.17-1.641,8.458-0.661     c1.05-0.995,1.983-1.968,2.768-2.887c6.774-7.936,13.606-20.099,13.606-20.099S168.023,317.707,159.461,318.648z"/>
			<path style="fill: rgb(55, 55, 55);" d="M158.185,328.454c-18.94,8.03-32.17,24.99-36.83,31.67h-1.21c4.33-6.32,17.92-24.23,37.65-32.59     c0.25-0.11,0.55,0.01,0.65,0.26C158.555,328.054,158.435,328.344,158.185,328.454z"/>
		</g>
		<g>
			
				<linearGradient id="SVGID_00000151535512306874789090000014338116429241703556_" gradientUnits="userSpaceOnUse" x1="72.1069" y1="319.9576" x2="35.1391" y2="273.3124">
				<stop offset="0" style="stop-color: rgb(210, 221, 89);"/>
				<stop offset="1" style="stop-color: rgb(74, 86, 74);"/>
			</linearGradient>
			<path style="fill:url(#SVGID_00000151535512306874789090000014338116429241703556_);" d="M79.711,306.946     c-2.149,0.968-5.272,0.855-8.602-1.663c-3.872-2.928,1.516-6.959,4.685-8.911c-2.369-5.308-5.538-10.845-9.519-14.884     c-2.377,2.076-6.035,4.678-7.94,3.021c-1.872-1.628-0.818-5.563,0.216-8.249c-11.727-4.898-32.256-5.364-32.256-5.364     c3.96,1.935,7.072,11.806,8.814,26.258c0.062,0.511,0.149,1.028,0.251,1.548c1.954-1.578,5.064-3.12,8.271-0.774     c3.727,2.727-1.19,7.885-4.422,10.697c2.304,4.157,5.334,8.224,8.542,11.771c1.668-2.601,4.693-5.209,9.553-2.854     c5.821,2.82,3.434,9.024,1.519,12.44c1.634,0.987,3.118,1.642,4.35,1.882c7.936,1.548,17.311-1.062,17.311-1.062     c1.827-2.997,1.85-13.841,0-21.083C80.279,308.913,80.019,307.975,79.711,306.946z"/>
			<path style="fill: rgb(55, 55, 55);" d="M92.005,360.124h-1c-1.58-9.98-9.54-39.36-49.62-75.24c-0.21-0.19-0.23-0.5-0.04-0.71     c0.18-0.2,0.5-0.22,0.7-0.04C82.485,320.334,90.445,350.064,92.005,360.124z"/>
		</g>
		<g>
			
				<linearGradient id="SVGID_00000183948340536315810640000005620685548725850501_" gradientUnits="userSpaceOnUse" x1="110.7525" y1="311.4461" x2="127.7848" y2="254.3493">
				<stop offset="0" style="stop-color: rgb(210, 221, 89);"/>
				<stop offset="1" style="stop-color: rgb(74, 86, 74);"/>
			</linearGradient>
			<path style="fill:url(#SVGID_00000183948340536315810640000005620685548725850501_);" d="M118.99,309.8     c1.498-2.115,5.762-1.04,8.563-0.064c1.496-4.554,1.982-10.449,2.081-16.302c-4.006-0.792-8.817-2.332-8.967-5.182     c-0.172-3.27,5.164-3.785,8.892-3.803c-0.081-3.167-0.182-6.075-0.182-8.444c0-9.796,5.613-18.85,5.613-18.85     s-17.032,4.258-21.691,9.484c-0.483,0.542-1.021,1.209-1.592,1.974c1.366,1.124,2.588,2.909,3.405,4.929     c1.67,4.129-4.767,8.387-4.767,8.387l-5.449-1.887c-2.202,4.518-4.184,9.614-5.319,14.653c2.533,2.084,6.165,5.991,5.219,10.718     l-5.955,0.893c1.611,11.841,10.299,22.662,10.299,22.662s6.164-3.629,11.521-8.985C120.649,319.959,116.8,312.891,118.99,309.8z"/>
			<path style="fill: rgb(55, 55, 55);" d="M122.785,267.994c-13.17,25.06-14.33,77.82-14.39,92.13h-1c0.06-14.35,1.23-67.34,14.51-92.59     c0.13-0.25,0.43-0.34,0.67-0.21C122.825,267.454,122.915,267.754,122.785,267.994z"/>
		</g>
	</g>
	<g>
		
			<linearGradient id="SVGID_00000041280755528836993500000002612726967120550812_" gradientUnits="userSpaceOnUse" x1="413.7725" y1="370.5025" x2="420.0352" y2="240.0907">
			<stop offset="0" style="stop-color: rgb(210, 221, 89);"/>
			<stop offset="1" style="stop-color: rgb(74, 86, 74);"/>
		</linearGradient>
		<path style="fill:url(#SVGID_00000041280755528836993500000002612726967120550812_);" d="M425.535,304.354l5.22-4.6    c-0.02,5.06-0.37,11.61-0.92,18.78c-1.66,21.76-5.09,49.22-6.23,58.11h-16.76c-0.99-10.2-3.87-41.16-3.98-60.3    c-0.02-3.21,0.03-6.09,0.19-8.48c0.47-7.06,2.43-17.06,4.75-26.98l6.61,2.41l-5.83-5.66c4.01-16.58,8.7-32.02,8.7-32.02    s10.89,30.99,13.13,46.97c0.21,1.54,0.32,3.61,0.34,6.07C428.355,301.254,425.845,304.014,425.535,304.354z"/>
		
			<linearGradient id="SVGID_00000141457003677251433820000013965976795519396796_" gradientUnits="userSpaceOnUse" x1="429.5402" y1="385.9133" x2="452.3919" y2="296.3492">
			<stop offset="0" style="stop-color: rgb(210, 221, 89);"/>
			<stop offset="1" style="stop-color: rgb(74, 86, 74);"/>
		</linearGradient>
		<path style="fill:url(#SVGID_00000141457003677251433820000013965976795519396796_);" d="M469.285,286.484l-9.97,4.86h9.42    c-0.71,5.86-1.58,11.67-2.65,16.93l-21.59,1.6c0,0,12.98,2.01,20.62,2.79c-0.36,1.51-0.75,2.96-1.15,4.33    c-2.35,7.89-6.41,17.8-10.69,27.35l-4.54,0.11l3.82,1.49c-1.32,2.91-2.66,5.78-3.96,8.53l-9.15-2.28l7.27,6.21    c-4,8.3-7.5,15.11-9.14,18.24h-19.7c1.72-9.75,6.94-38.49,11.96-58.11c1.83-7.12,3.62-13.04,5.22-16.41    c6.97-14.7,36.65-52.37,36.65-52.37S471.285,267.634,469.285,286.484z"/>
		
			<linearGradient id="SVGID_00000113346596002313932480000014388758150662870434_" gradientUnits="userSpaceOnUse" x1="416.1349" y1="384.6974" x2="386.9063" y2="316.1224">
			<stop offset="0" style="stop-color: rgb(210, 221, 89);"/>
			<stop offset="1" style="stop-color: rgb(74, 86, 74);"/>
		</linearGradient>
		<path style="fill:url(#SVGID_00000113346596002313932480000014388758150662870434_);" d="M412.115,376.644h-16.53    c-0.96-4.1-4.5-19.04-8.52-33.64l15.8-8.1l-17.2,3.13c-0.58-2.05-1.17-4.07-1.76-6.02l6.92-4.49l-7.36,3.05    c-1.37-4.49-2.74-8.59-4.01-11.86c-6.85-17.62-25.6-48.09-25.6-48.09s22.62,4.41,32.95,12.15c5.6,4.2,11.5,18.72,16.06,33.57    c3.84,12.52,6.74,25.27,7.68,32.24C412.265,361.274,412.185,373.074,412.115,376.644z"/>
	</g>
	<g>
		<g>
			<g>
				<rect x="345.368" y="370.225" style="fill: rgb(64, 61, 54);" width="4.58" height="65.161"/>
				
					<linearGradient id="SVGID_00000150780737078327939070000007126259785307224750_" gradientUnits="userSpaceOnUse" x1="345.3016" y1="409.356" x2="349.3016" y2="369.8721">
					<stop offset="0" style="stop-color: rgb(64, 61, 54);"/>
					<stop offset="1" style="stop-color: rgb(171, 122, 75);"/>
				</linearGradient>
				<path style="fill:url(#SVGID_00000150780737078327939070000007126259785307224750_);" d="M349.948,401.972v-31.747h-4.58v39.645      C346.838,407.337,348.384,404.672,349.948,401.972z"/>
			</g>
			<rect x="326.862" y="432.886" style="fill: rgb(25, 26, 25);" width="41.592" height="3.171"/>
			<rect x="306.626" y="357.451" style="fill: rgb(15, 33, 16);" width="82.064" height="6.387"/>
			
				<linearGradient id="SVGID_00000020399693254727126450000005509233336064803755_" gradientUnits="userSpaceOnUse" x1="352.4096" y1="342.1419" x2="343.3774" y2="363.0451">
				<stop offset="0" style="stop-color: rgb(15, 33, 16);"/>
				<stop offset="1" style="stop-color: rgb(32, 34, 32);"/>
			</linearGradient>
			<path style="fill:url(#SVGID_00000020399693254727126450000005509233336064803755_);" d="M312.632,363.838h58.166     c1.744-2.074,3.838-4.558,5.399-6.387h-60.264L312.632,363.838z"/>
			<polygon style="fill: rgb(25, 26, 25);" points="333.985,363.838 337.082,370.225 358.233,370.225 361.33,363.838    "/>
		</g>
		<g>
			<g>
				<g>
					
						<linearGradient id="SVGID_00000075123685026120450090000017626570156493327800_" gradientUnits="userSpaceOnUse" x1="220.7858" y1="440.3838" x2="256.1452" y2="440.3838">
						<stop offset="0" style="stop-color: rgb(255, 173, 44);"/>
						<stop offset="1" style="stop-color: rgb(224, 116, 36);"/>
					</linearGradient>
					<path style="fill:url(#SVGID_00000075123685026120450090000017626570156493327800_);" d="M256.145,444.19       c0,0-2.115,6.831-2.104,7.874c0.011,1.043-3.26,4.228-3.26,4.228s-28.219-25.043-29.995-27.201l0.182-1.886       c0,0,1.811-2.142,3.135-2.699c1.324-0.557,17.173,6.624,17.173,6.624L256.145,444.19z"/>
					
						<linearGradient id="SVGID_00000174589846785282083230000016859618987272989318_" gradientUnits="userSpaceOnUse" x1="261.0957" y1="398.8435" x2="334.9093" y2="323.8199">
						<stop offset="0" style="stop-color: rgb(26, 26, 26);"/>
						<stop offset="1" style="stop-color: rgb(8, 8, 8);"/>
					</linearGradient>
					<path style="fill:url(#SVGID_00000174589846785282083230000016859618987272989318_);" d="M241.276,431.13       c-0.352,0.737,9.697,11.155,14.87,13.06l33.627-72.756l56.269-18.758l0.681-35.608l-22.877-0.206       c0,0-44.824,23.843-46.548,25.203C275.572,343.426,253.344,405.827,241.276,431.13z"/>
				</g>
				
					<linearGradient id="SVGID_00000087390953206226436960000017977285190359714483_" gradientUnits="userSpaceOnUse" x1="281.0261" y1="290.7448" x2="312.1874" y2="261.519">
					<stop offset="0" style="stop-color: rgb(255, 253, 45);"/>
					<stop offset="1" style="stop-color: rgb(255, 208, 108);"/>
				</linearGradient>
				<polygon style="fill:url(#SVGID_00000087390953206226436960000017977285190359714483_);" points="262.238,288.574       292.819,280.735 307.045,249.285 313.045,260.122 314.593,272.025 302.69,290.219 269.206,297.025     "/>
				<g>
					
						<linearGradient id="SVGID_00000134970985467187157950000003708272733008832703_" gradientUnits="userSpaceOnUse" x1="333.4418" y1="241.2108" x2="353.0548" y2="318.3721">
						<stop offset="0" style="stop-color: rgb(255, 253, 45);"/>
						<stop offset="1" style="stop-color: rgb(255, 208, 108);"/>
					</linearGradient>
					<path style="fill:url(#SVGID_00000134970985467187157950000003708272733008832703_);" d="M378.655,319.922       c0,0-43.1-1.03-54.81-3.06c0,0-2.08-14.237-2.86-19.837c-0.09-0.57-0.15-0.95-0.2-1.1c-0.21-0.72-1.96-5.93-4.03-11.98       c-2.66-7.81-5.83-17.03-6.81-19.76c-1.74-4.84-2.9-14.9-2.9-14.9s4.64-5.81,5.71-6.49c0.81-0.51,4.81-1.03,6.68-1.24       c0.59-0.07,0.96-0.11,0.96-0.11l18.69-3.48c0,0,0.99,0.02,2.44,0.06c2.48,0.05,6.32,0.14,8.8,0.22c1.33,0.04,2.27,0.08,2.4,0.1       c0.48,0.1,5.61,0.39,10.16,7.65c0.45,0.72,0.94,1.79,1.45,3.12c4.61,12.02,11.07,45.85,11.42,47.68       C376.145,298.835,378.655,319.922,378.655,319.922z"/>
					<path style="fill: rgb(242, 207, 113);" d="M316.755,283.945c2.07,6.05,3.82,11.26,4.03,11.98c0.05,0.15,0.11,0.53,0.2,1.1       c0.78,5.6,2.86,19.837,2.86,19.837c5.172,0.897,16.468,1.598,27.469,2.102l11.473-35.81l1.548-34.039l-15.484,14.685       l-27.097,16.258l-14.709-30.773c0,0,1.16,10.06,2.9,14.9C310.925,266.915,314.095,276.135,316.755,283.945z"/>
				</g>
				<g>
					<path style="fill: rgb(255, 213, 46);" d="M341.525,238.025c-1.19,2.97-4.11,9.87-7.09,13.68c-3.87,4.93-10.36,6.29-10.36,6.29       s-5.22-3.78-5.61-7.26c-0.27-2.42,0.49-6.76,0.97-9.18c0.59-0.07,0.96-0.11,0.96-0.11l18.69-3.48       C339.085,237.965,340.075,237.985,341.525,238.025z"/>
					
						<linearGradient id="SVGID_00000107547145151369611740000018435593638147164345_" gradientUnits="userSpaceOnUse" x1="330.2104" y1="243.6972" x2="327.3294" y2="228.7158">
						<stop offset="0" style="stop-color: rgb(255, 213, 46);"/>
						<stop offset="1" style="stop-color: rgb(241, 193, 0);"/>
					</linearGradient>
					<path style="fill:url(#SVGID_00000107547145151369611740000018435593638147164345_);" d="M339.085,237.965       c0,0-7.15,8.14-10.01,9.79c-2.86,1.65-6.64,0.46-6.64,0.46l-1.25-7.54l-0.4-2.42l-2.5-4.69l15.55-9.08l0.24,0.5l1.38,2.86       C335.455,227.845,337.105,235.215,339.085,237.965z"/>
					
						<linearGradient id="SVGID_00000124852369298167597880000012736555665756348810_" gradientUnits="userSpaceOnUse" x1="320.625" y1="241.6247" x2="328.6509" y2="225.1221">
						<stop offset="0" style="stop-color: rgb(255, 213, 46); stop-opacity: 0;"/>
						<stop offset="1" style="stop-color: rgb(241, 193, 0);"/>
					</linearGradient>
					<path style="fill:url(#SVGID_00000124852369298167597880000012736555665756348810_);" d="M334.075,224.985       c-0.9,3.02-2.89,9.05-5,11c-1.61,1.48-5.11,3.35-7.89,4.69l-0.4-2.42l-2.5-4.69l15.55-9.08L334.075,224.985z"/>
				</g>
				<g>
					<path style="fill: rgb(5, 5, 5);" d="M333.471,187.361c0,0,2.09-0.66,3.63-0.44c1.54,0.22,3.3,3.85,4.07,5.061       c0.77,1.21,2.53,11.442,2.53,14.962c0,3.521-2.31,12.432-3.19,14.962c-0.88,2.53-5.061,5.941-5.061,5.941l-3.08-6.381       L333.471,187.361z"/>
					<path style="fill: rgb(5, 5, 5);" d="M308.828,209.914c0,0-5.171-8.031-5.281-10.561c-0.11-2.53,5.391-2.97,5.391-2.97l5.501,6.711       L308.828,209.914z"/>
					
						<linearGradient id="SVGID_00000049182149889444356080000003298011135586002064_" gradientUnits="userSpaceOnUse" x1="335.9693" y1="210.4942" x2="336.8403" y2="215.3329">
						<stop offset="0" style="stop-color: rgb(255, 213, 46);"/>
						<stop offset="1" style="stop-color: rgb(241, 193, 0);"/>
					</linearGradient>
					<path style="fill:url(#SVGID_00000049182149889444356080000003298011135586002064_);" d="M334.039,212.579       c0,0,2.877-3.288,4.675-3.166c1.798,0.122,1.678,4.75,0.839,6.211c-0.839,1.461-5.754,4.628-5.754,4.628L334.039,212.579z"/>
					
						<linearGradient id="SVGID_00000042009938388200719220000000985562410589515138_" gradientUnits="userSpaceOnUse" x1="322.2213" y1="200.1323" x2="320.8665" y2="244.3581">
						<stop offset="0" style="stop-color: rgb(255, 213, 46);"/>
						<stop offset="1" style="stop-color: rgb(241, 193, 0);"/>
					</linearGradient>
					<path style="fill:url(#SVGID_00000042009938388200719220000000985562410589515138_);" d="M333.335,225.735       c-1.75,3.5-7.33,8.53-9.37,9.73h-0.01c-0.28,0.18-0.5,0.27-0.62,0.27h-6c-1,0-7-6-8-9s-1-22-1-22       c0.45-8.16,10.65-10.94,16.58-10.94c5.94,0,9.29,4.13,10.32,9.29c0.14,0.72,0.25,1.6,0.32,2.6       C335.995,211.835,335.055,222.295,333.335,225.735z"/>
					
						<linearGradient id="SVGID_00000163071873025185585100000015939980592854683043_" gradientUnits="userSpaceOnUse" x1="324.1235" y1="195.7404" x2="310.3816" y2="204.7404">
						<stop offset="0" style="stop-color: rgb(255, 213, 46);"/>
						<stop offset="1" style="stop-color: rgb(241, 193, 0);"/>
					</linearGradient>
					<path style="fill:url(#SVGID_00000163071873025185585100000015939980592854683043_);" d="M314.69,206.025       c6.677-1.742,15.481-8.543,15.481-8.543l-2.883-3.437c-0.741-0.158-1.528-0.25-2.373-0.25c-5.93,0-16.13,2.78-16.58,10.94       c0,0,0,0.666,0.007,1.768C310.118,206.699,312.274,206.655,314.69,206.025z"/>
					
						<linearGradient id="SVGID_00000041273656625117480800000001795635553657175198_" gradientUnits="userSpaceOnUse" x1="331.0251" y1="204.0692" x2="329.8638" y2="222.5531">
						<stop offset="0" style="stop-color: rgb(255, 213, 46);"/>
						<stop offset="1" style="stop-color: rgb(241, 193, 0);"/>
					</linearGradient>
					<path style="fill:url(#SVGID_00000041273656625117480800000001795635553657175198_);" d="M333.335,225.735       c-1.75,3.5-7.33,8.53-9.37,9.73c0.99-1.53,5.89-9.19,7.37-13.18c1.65-4.45,2.03-16.26,2.03-16.26l2.19-0.34       C335.995,211.835,335.055,222.295,333.335,225.735z"/>
					<path style="fill: rgb(14, 14, 14);" d="M310.038,203.863c0,0-4.951-1.54-6.271-4.07c-1.32-2.53,1.87-11.882,10.561-14.412       c8.691-2.53,12.102-2.53,14.742-1.65c2.64,0.88,4.401,3.631,4.401,3.631s1.65,7.261,2.53,12.872       c0.88,5.611,0.44,10.121-0.11,11.992c-0.55,1.87-1.65,3.741-1.65,3.741l-1.65,0.33c0,0,1.21-10.011,0-13.642       c-1.21-3.63-2.42-5.171-2.42-5.171s-5.501,3.52-8.581,4.621C318.509,203.203,313.338,204.523,310.038,203.863z"/>
				</g>
				<g>
					<g>
						
							<linearGradient id="SVGID_00000101795618837148998190000011033663864390985109_" gradientUnits="userSpaceOnUse" x1="277.2131" y1="291.7734" x2="296.3744" y2="290.9992">
							<stop offset="0" style="stop-color: rgb(255, 213, 46);"/>
							<stop offset="1" style="stop-color: rgb(241, 193, 0);"/>
						</linearGradient>
						<path style="fill:url(#SVGID_00000101795618837148998190000011033663864390985109_);" d="M297.745,294.185h-29.31l3-2.22        c0,0,9.29-3.2,11.13-3.58c1.83-0.39,10.87,0.12,10.87,0.12l0.81,0.75l0.38,0.37        C296.315,291.355,297.245,292.935,297.745,294.185z"/>
						
							<linearGradient id="SVGID_00000168109568885789509870000005963773731395503242_" gradientUnits="userSpaceOnUse" x1="284.6161" y1="295.4717" x2="279.971" y2="289.762">
							<stop offset="0" style="stop-color: rgb(255, 213, 46);"/>
							<stop offset="1" style="stop-color: rgb(241, 193, 0);"/>
						</linearGradient>
						<path style="fill:url(#SVGID_00000168109568885789509870000005963773731395503242_);" d="M297.745,294.185        c-0.333-0.833-0.864-1.815-1.677-2.888c-1.378,0.153-2.668,0.373-2.668,0.373s-4.161,0-6.871,0        c-2.71,0-7.935,0.677-7.935,0.677l3.097-2.226c0,0-2.323,0.29-3.968,0.968c-1.645,0.677-3.097,1.065-4.355,1.645        c-0.813,0.375-3.114,1.031-4.646,1.45H297.745z"/>
					</g>
					
						<linearGradient id="SVGID_00000046332235752278342840000007896212850917369493_" gradientUnits="userSpaceOnUse" x1="314.0913" y1="293.1348" x2="371.1881" y2="236.6186">
						<stop offset="0" style="stop-color: rgb(255, 253, 45);"/>
						<stop offset="1" style="stop-color: rgb(255, 208, 108);"/>
					</linearGradient>
					<path style="fill:url(#SVGID_00000046332235752278342840000007896212850917369493_);" d="M364.335,249.115       c-0.67,3.82-6.67,14.75-9.1,19.14c-2.58,4.64-19.74,28.77-19.74,28.77h-37.16c0,0,0.11-1.1-0.59-2.84       c-0.5-1.25-1.43-2.83-3.12-4.56l-0.38-0.37c-0.25-0.25-0.52-0.5-0.81-0.75c0,0,13.07-2.77,23.32-4.56       c4.76-0.83,8.91-1.46,10.87-1.5c0,0,14.19-36.9,16.65-39.48c1.59-1.67,3.23-3.67,6.05-4.72c1.33,0.04,2.27,0.08,2.4,0.1       c0.48,0.1,5.61,0.39,10.16,7.65C363.335,246.715,363.825,247.785,364.335,249.115z"/>
				</g>
				<g>
					
						<linearGradient id="SVGID_00000034805309582149954790000009360233097943976382_" gradientUnits="userSpaceOnUse" x1="302.0192" y1="450.1639" x2="340.3573" y2="450.1639">
						<stop offset="0" style="stop-color: rgb(255, 173, 44);"/>
						<stop offset="1" style="stop-color: rgb(224, 116, 36);"/>
					</linearGradient>
					<path style="fill:url(#SVGID_00000034805309582149954790000009360233097943976382_);" d="M337.664,442.702       c0,0,2.033,6.419,2.549,7.234c0.516,0.815-0.516,5.865-0.516,5.865s-34.452,2.118-36.903,1.792l-0.774-1.629       c0,0,0.387-3.095,1.161-4.561c0.774-1.466,15.95-7.611,15.95-7.611L337.664,442.702z"/>
					<g>
						<path style="fill: rgb(26, 26, 26);" d="M319.131,443.79c0,0-30.244-77.51-29.358-88.393c0,0,7.135-17.413,9.074-19.046        c1.94-1.632,44.856-17.318,44.856-17.318l34.953,1.692c0,0,1.341,19.901,1.557,25.887c0.216,5.986-8.996,10.258-15.03,12.707        c-6.034,2.449-49.041,2.713-49.041,2.713l21.522,80.67C337.664,442.702,325.625,445.122,319.131,443.79z"/>
						
							<linearGradient id="SVGID_00000010279682912616170110000002173772307778060180_" gradientUnits="userSpaceOnUse" x1="347.2434" y1="350.5785" x2="384.0101" y2="308.7112">
							<stop offset="0" style="stop-color: rgb(26, 26, 26);"/>
							<stop offset="1" style="stop-color: rgb(8, 8, 8);"/>
						</linearGradient>
						<path style="fill:url(#SVGID_00000010279682912616170110000002173772307778060180_);" d="M373.045,341.26        c0,0-16.258,5.865-22.452,7.331c-6.194,1.466-34.452,13.44-34.452,13.44s44.289-0.639,50.323-3.088        c6.034-2.449,13.2-6.721,12.985-12.707c-0.215-5.986-0.794-25.511-0.794-25.511l-34.953-1.692l27.213,10.253L373.045,341.26z"/>
						
							<linearGradient id="SVGID_00000065059421852747985080000004516162819174331306_" gradientUnits="userSpaceOnUse" x1="297.7511" y1="375.038" x2="299.2254" y2="353.6606">
							<stop offset="0" style="stop-color: rgb(26, 26, 26);"/>
							<stop offset="1" style="stop-color: rgb(8, 8, 8);"/>
						</linearGradient>
						<path style="fill:url(#SVGID_00000065059421852747985080000004516162819174331306_);" d="M302.98,385.246l-4.645-22.074        l-8.49-7.951c-0.046,0.112-0.073,0.177-0.073,0.177c-0.459,5.644,7.454,29.207,15.179,50.585L302.98,385.246z"/>
					</g>
				</g>
			</g>
			<g>
				<rect x="268.435" y="294.185" style="fill: rgb(64, 61, 54);" width="42.674" height="2.84"/>
				<g>
					<polygon style="fill: rgb(212, 158, 72);" points="260.434,254.735 199.356,254.735 209.615,297.025 270.692,297.025      "/>
					
						<linearGradient id="SVGID_00000052826615155504651530000010953119796398697899_" gradientUnits="userSpaceOnUse" x1="244.4419" y1="293.1227" x2="219.4742" y2="253.6389">
						<stop offset="0" style="stop-color: rgb(64, 61, 54);"/>
						<stop offset="1" style="stop-color: rgb(255, 232, 41);"/>
					</linearGradient>
					<polygon style="fill:url(#SVGID_00000052826615155504651530000010953119796398697899_);" points="258.948,254.735        197.871,254.735 208.129,297.025 269.206,297.025      "/>
					
						<linearGradient id="SVGID_00000137851009106000155640000000618488879586502801_" gradientUnits="userSpaceOnUse" x1="220.6494" y1="261.5024" x2="237.8752" y2="281.2443">
						<stop offset="0" style="stop-color: rgb(64, 61, 54); stop-opacity: 0;"/>
						<stop offset="1" style="stop-color:#FFFFFF"/>
					</linearGradient>
					<polygon style="opacity:0.53;fill:url(#SVGID_00000137851009106000155640000000618488879586502801_);" points="       206.293,289.458 239.883,278.315 253.493,254.735 197.871,254.735      "/>
				</g>
			</g>
		</g>
	</g>
	<g>
		<rect x="112.787" y="297.031" style="fill: rgb(234, 187, 26);" width="306.581" height="7.226"/>
		
			<linearGradient id="SVGID_00000020364932922293279610000013642728252198637963_" gradientUnits="userSpaceOnUse" x1="149.1555" y1="291.0482" x2="257.5426" y2="321.2417">
			<stop offset="0" style="stop-color: rgb(234, 187, 26);"/>
			<stop offset="1" style="stop-color: rgb(240, 205, 85);"/>
		</linearGradient>
		<path style="fill:url(#SVGID_00000020364932922293279610000013642728252198637963_);" d="M254.415,297.031H112.787v7.226h149.512    C259.608,301.783,256.971,299.366,254.415,297.031z"/>
		<rect x="127.625" y="304.257" style="fill: rgb(72, 53, 42);" width="276.903" height="3.484"/>
		<polygon style="fill: rgb(64, 61, 54);" points="392.455,311.741 391.775,307.741 387.535,307.741 143.635,307.741 139.395,307.741     138.715,311.741 119.085,456.692 123.485,456.692 142.965,311.741 388.205,311.741 407.685,456.692 412.085,456.692   "/>
	</g>
	<g>
		<rect x="159.495" y="276.004" style="fill:#FFFFFF;" width="18.45" height="21.15"/>
		<g>
			
				<linearGradient id="SVGID_00000177468994489618787020000013297458131714455733_" gradientUnits="userSpaceOnUse" x1="177.945" y1="285.3747" x2="184.493" y2="285.3747">
				<stop offset="0" style="stop-color: rgb(255, 227, 40);"/>
				<stop offset="1" style="stop-color:#FFFFFF"/>
			</linearGradient>
			<path style="fill:url(#SVGID_00000177468994489618787020000013297458131714455733_);" d="M182.994,280.447     c-1.203-0.915-3.035-1.292-5.049-1.026v1.736c0.048-0.009,0.105-0.017,0.153-0.026c0.372-0.06,0.735-0.086,1.088-0.086     c1.059,0,1.976,0.248,2.577,0.702c0.554,0.419,0.821,1.009,0.821,1.796c0,2.361-2.396,5.466-4.639,6.116v1.754     c0.076,0,0.153-0.017,0.229-0.034c3.188-0.693,6.319-4.576,6.319-7.835C184.493,282.26,183.978,281.191,182.994,280.447z"/>
		</g>
		
			<linearGradient id="SVGID_00000034076119223228914070000009662865701849866917_" gradientUnits="userSpaceOnUse" x1="172.0216" y1="255.537" x2="171.0538" y2="270.2475">
			<stop offset="0" style="stop-color: rgb(255, 227, 40);"/>
			<stop offset="1" style="stop-color:#FFFFFF;stop-opacity:0"/>
		</linearGradient>
		<path style="fill:url(#SVGID_00000034076119223228914070000009662865701849866917_);" d="M171.626,273.316    c0,0-3.613-2.194-2.194-5.807c1.419-3.613,3.355-6.322,2.194-8.968c0,0,2.581,1.484,1.871,4.452    C172.787,265.961,170.078,268.993,171.626,273.316z"/>
		
			<linearGradient id="SVGID_00000084519128678622254120000018279034522742620833_" gradientUnits="userSpaceOnUse" x1="166.8405" y1="247.8204" x2="166.4534" y2="265.6269">
			<stop offset="0" style="stop-color: rgb(255, 227, 40);"/>
			<stop offset="1" style="stop-color:#FFFFFF;stop-opacity:0"/>
		</linearGradient>
		<path style="fill:url(#SVGID_00000084519128678622254120000018279034522742620833_);" d="M166.59,269.154    c0,0-4.255-2.903-1.762-7.547c2.132-3.971,3.055-8.969-1.009-12.775c0,0,7.911,2.557,5.355,8.387    C166.078,264.283,165.11,265.477,166.59,269.154z"/>
	</g>
	<g>
		<g>
			<g>
				
					<rect x="233.098" y="234.884" transform="matrix(0.9598 -0.2806 0.2806 0.9598 -56.6795 74.9617)" style="fill: rgb(241, 201, 39);" width="0.6" height="1"/>
			</g>
			<g>
				<path style="fill: rgb(241, 201, 39);" d="M232.104,232.021l-0.578-1.978l0.576-0.168l0.578,1.978L232.104,232.021z M230.659,227.076      l-0.578-1.978l0.576-0.168l0.578,1.978L230.659,227.076z M229.215,222.131l-0.578-1.978l0.576-0.168l0.578,1.978      L229.215,222.131z M227.77,217.186l-0.578-1.978l0.576-0.168l0.578,1.978L227.77,217.186z M226.327,212.241l-0.578-1.978      l0.576-0.168l0.578,1.978L226.327,212.241z M224.882,207.295l-0.578-1.978l0.576-0.168l0.578,1.978L224.882,207.295z       M223.438,202.35l-0.578-1.978l0.576-0.168l0.578,1.978L223.438,202.35z M221.994,197.405l-0.578-1.978l0.576-0.168l0.578,1.978      L221.994,197.405z M220.549,192.46l-0.578-1.978l0.576-0.168l0.578,1.978L220.549,192.46z M219.105,187.515l-0.578-1.978      l0.576-0.168l0.578,1.978L219.105,187.515z M217.661,182.57l-0.578-1.978l0.576-0.168l0.578,1.978L217.661,182.57z       M216.217,177.624l-0.578-1.978l0.576-0.168l0.578,1.978L216.217,177.624z"/>
			</g>
			<g>
				
					<rect x="214.62" y="171.615" transform="matrix(0.9598 -0.2807 0.2807 0.9598 -39.676 67.2577)" style="fill: rgb(241, 201, 39);" width="0.6" height="1"/>
			</g>
		</g>
		<path style="fill: rgb(241, 201, 39);" d="M216.658,168.832c0,1.675-1.358,3.032-3.032,3.032c-1.675,0-3.032-1.358-3.032-3.032    c0-1.675,1.358-3.032,3.032-3.032C215.3,165.8,216.658,167.157,216.658,168.832z"/>
		<g>
			<g>
				
					<rect x="210.379" y="166.397" transform="matrix(0.4211 -0.907 0.907 0.4211 -29.4098 287.7172)" style="fill: rgb(241, 201, 39);" width="0.6" height="1"/>
			</g>
			<g>
				<path style="fill: rgb(241, 201, 39);" d="M207.255,165.639l-1.896-0.879l0.253-0.544l1.896,0.879L207.255,165.639z M202.516,163.44      l-1.896-0.879l0.253-0.544l1.896,0.879L202.516,163.44z M197.776,161.241l-1.896-0.88l0.253-0.544l1.896,0.88L197.776,161.241z       M193.037,159.042l-1.896-0.88l0.253-0.544l1.896,0.88L193.037,159.042z M188.297,156.843l-1.895-0.879l0.253-0.544l1.895,0.879      L188.297,156.843z M183.558,154.644l-1.896-0.88l0.253-0.544l1.896,0.88L183.558,154.644z M178.818,152.445l-1.895-0.88      l0.253-0.544l1.895,0.88L178.818,152.445z M174.079,150.245l-1.896-0.879l0.253-0.544l1.896,0.879L174.079,150.245z       M169.339,148.047l-1.896-0.88l0.253-0.544l1.896,0.88L169.339,148.047z"/>
			</g>
			<g>
				
					<rect x="163.973" y="144.865" transform="matrix(0.4209 -0.9071 0.9071 0.4209 -36.7278 233.202)" style="fill: rgb(241, 201, 39);" width="0.6" height="1"/>
			</g>
		</g>
		<g>
			<g>
				
					<rect x="213.24" y="165.013" transform="matrix(0.2279 -0.9737 0.9737 0.2279 4.0631 335.7498)" style="fill: rgb(241, 201, 39);" width="1" height="0.6"/>
			</g>
			<g>
				<path style="fill: rgb(241, 201, 39);" d="M214.806,162.077l-0.584-0.137l0.44-1.878l0.584,0.137L214.806,162.077z M215.907,157.383      l-0.584-0.137l0.44-1.878l0.584,0.137L215.907,157.383z M217.008,152.688l-0.584-0.137l0.44-1.878l0.584,0.137L217.008,152.688z       M218.109,147.993l-0.584-0.137l0.441-1.878l0.584,0.137L218.109,147.993z M219.21,143.298l-0.584-0.137l0.44-1.878l0.584,0.137      L219.21,143.298z M220.311,138.603l-0.584-0.137l0.44-1.878l0.584,0.137L220.311,138.603z M221.412,133.908l-0.584-0.137      l0.44-1.878l0.584,0.137L221.412,133.908z M222.513,129.214l-0.584-0.137l0.44-1.878l0.584,0.137L222.513,129.214z"/>
			</g>
			<g>
				
					<rect x="222.936" y="123.664" transform="matrix(0.2279 -0.9737 0.9737 0.2279 51.8102 313.2656)" style="fill: rgb(241, 201, 39);" width="1" height="0.6"/>
			</g>
		</g>
		<g>
			<g>
				
					<rect x="216.632" y="168.373" transform="matrix(0.9477 -0.3191 0.3191 0.9477 -42.4746 78.1122)" style="fill: rgb(241, 201, 39);" width="1" height="0.6"/>
			</g>
			<g>
				<path style="fill: rgb(241, 201, 39);" d="M220.563,167.834l-0.191-0.568l1.908-0.642l0.191,0.568L220.563,167.834z M225.334,166.228      l-0.191-0.568l1.908-0.642l0.191,0.568L225.334,166.228z M230.104,164.623l-0.191-0.568l1.908-0.643l0.191,0.568      L230.104,164.623z M234.875,163.017l-0.191-0.568l1.908-0.642l0.191,0.568L234.875,163.017z M239.646,161.411l-0.191-0.568      l1.908-0.642l0.191,0.568L239.646,161.411z M244.416,159.806l-0.191-0.568l1.908-0.642l0.191,0.568L244.416,159.806z       M249.187,158.201l-0.191-0.568l1.908-0.643l0.191,0.568L249.187,158.201z M253.958,156.595l-0.191-0.568l1.908-0.643      l0.191,0.568L253.958,156.595z M258.729,154.989l-0.191-0.568l1.908-0.642l0.191,0.568L258.729,154.989z M263.499,153.384      l-0.191-0.568l1.908-0.642l0.191,0.568L263.499,153.384z M268.27,151.778l-0.191-0.568l1.908-0.642l0.191,0.568L268.27,151.778z       M273.04,150.173l-0.191-0.568l1.908-0.642l0.191,0.568L273.04,150.173z M277.811,148.567l-0.191-0.568l1.908-0.642l0.191,0.568      L277.811,148.567z M282.581,146.961l-0.191-0.568l1.908-0.642l0.191,0.568L282.581,146.961z M287.352,145.356l-0.191-0.568      l1.908-0.642l0.191,0.568L287.352,145.356z M292.122,143.75l-0.191-0.568l1.908-0.642l0.191,0.568L292.122,143.75z"/>
			</g>
			<g>
				
					<rect x="296.771" y="141.401" transform="matrix(0.9477 -0.3191 0.3191 0.9477 -29.6769 102.2766)" style="fill: rgb(241, 201, 39);" width="1.001" height="0.6"/>
			</g>
		</g>
		<g>
			<g>
				
					<rect x="210.194" y="170.496" transform="matrix(0.8779 -0.4788 0.4788 0.8779 -56.0572 121.7353)" style="fill: rgb(241, 201, 39);" width="1" height="0.6"/>
			</g>
			<g>
				<path style="fill: rgb(241, 201, 39);" d="M149.7,204.422l-0.287-0.526l1.734-0.946l0.287,0.526L149.7,204.422z M154.035,202.057      l-0.287-0.526l1.734-0.946l0.287,0.526L154.035,202.057z M158.371,199.69l-0.287-0.526l1.734-0.946l0.287,0.526L158.371,199.69z       M162.707,197.325l-0.287-0.526l1.734-0.947l0.287,0.526L162.707,197.325z M167.042,194.958l-0.287-0.526l1.734-0.946      l0.287,0.526L167.042,194.958z M171.378,192.593l-0.287-0.526l1.734-0.947l0.287,0.526L171.378,192.593z M175.713,190.226      l-0.287-0.526l1.734-0.946l0.287,0.526L175.713,190.226z M180.049,187.861l-0.287-0.526l1.734-0.947l0.287,0.526      L180.049,187.861z M184.385,185.495l-0.287-0.526l1.734-0.946l0.287,0.526L184.385,185.495z M188.72,183.128l-0.287-0.526      l1.734-0.946l0.287,0.526L188.72,183.128z M193.056,180.763l-0.287-0.526l1.734-0.946l0.287,0.526L193.056,180.763z       M197.392,178.396l-0.287-0.526l1.734-0.946l0.287,0.526L197.392,178.396z M201.727,176.031l-0.287-0.526l1.734-0.946      l0.287,0.526L201.727,176.031z M206.063,173.664l-0.287-0.526l1.734-0.946l0.287,0.526L206.063,173.664z"/>
			</g>
			<g>
				
					<rect x="146.016" y="205.518" transform="matrix(0.8778 -0.4789 0.4789 0.8778 -80.6779 95.3148)" style="fill: rgb(241, 201, 39);" width="1" height="0.6"/>
			</g>
		</g>
		<g>
			<path style="fill: rgb(241, 201, 39);" d="M103.935,276.147l-0.02-0.6c0.665-0.021,1.326-0.057,1.983-0.105l0.045,0.598     C105.278,276.091,104.608,276.126,103.935,276.147z M100.915,276.135c-0.673-0.025-1.343-0.065-2.009-0.121l0.05-0.598     c0.657,0.054,1.317,0.094,1.981,0.119L100.915,276.135z M108.944,275.709l-0.086-0.594c0.657-0.095,1.31-0.206,1.957-0.331     l0.114,0.59C110.273,275.501,109.611,275.612,108.944,275.709z M95.908,275.659c-0.666-0.103-1.327-0.22-1.982-0.352l0.118-0.588     c0.647,0.13,1.299,0.245,1.955,0.346L95.908,275.659z M113.872,274.699l-0.154-0.58c0.642-0.171,1.277-0.355,1.907-0.555     l0.181,0.572C115.167,274.338,114.522,274.526,113.872,274.699z M90.988,274.611c-0.649-0.178-1.292-0.37-1.929-0.577l0.186-0.57     c0.627,0.203,1.262,0.394,1.901,0.569L90.988,274.611z M118.652,273.128l-0.222-0.559c0.616-0.244,1.225-0.5,1.826-0.77     l0.245,0.547C119.893,272.62,119.276,272.88,118.652,273.128z M86.218,273.002c-0.625-0.252-1.243-0.518-1.853-0.799l0.251-0.545     c0.601,0.276,1.21,0.539,1.826,0.787L86.218,273.002z M123.21,271.019l-0.284-0.529c0.584-0.314,1.16-0.638,1.727-0.976     l0.307,0.516C124.384,270.372,123.801,270.702,123.21,271.019z M81.664,270.849c-0.59-0.323-1.173-0.658-1.747-1.006l0.312-0.514     c0.566,0.344,1.141,0.675,1.723,0.992L81.664,270.849z M127.498,268.397l-0.343-0.492c0.544-0.379,1.08-0.767,1.606-1.168     l0.363,0.477C128.591,267.62,128.049,268.014,127.498,268.397z M77.39,268.188c-0.549-0.388-1.089-0.787-1.62-1.2l0.369-0.473     c0.522,0.407,1.055,0.801,1.596,1.183L77.39,268.188z M131.46,265.302l-0.395-0.451c0.497-0.436,0.985-0.885,1.461-1.343     l0.416,0.432C132.459,264.405,131.965,264.859,131.46,265.302z M73.449,265.057c-0.501-0.447-0.992-0.905-1.471-1.376l0.42-0.428     c0.473,0.463,0.956,0.915,1.451,1.356L73.449,265.057z M135.046,261.773l-0.445-0.402c0.444-0.491,0.878-0.991,1.3-1.503     l0.463,0.383C135.936,260.768,135.496,261.276,135.046,261.773z M69.894,261.498c-0.446-0.5-0.88-1.012-1.304-1.532l0.466-0.379     c0.417,0.515,0.846,1.018,1.286,1.513L69.894,261.498z M138.206,257.858l-0.488-0.35c0.386-0.539,0.759-1.086,1.121-1.642     l0.503,0.326C138.975,256.757,138.597,257.311,138.206,257.858z M66.768,257.559c-0.386-0.548-0.759-1.104-1.12-1.67l0.506-0.323     c0.356,0.558,0.724,1.107,1.104,1.647L66.768,257.559z M140.898,253.605l-0.524-0.291c0.321-0.579,0.629-1.166,0.925-1.76     l0.537,0.267C141.537,252.423,141.224,253.018,140.898,253.605z M64.115,253.291c-0.32-0.588-0.627-1.183-0.92-1.787l0.54-0.262     c0.289,0.595,0.591,1.183,0.907,1.762L64.115,253.291z M143.085,249.067l-0.555-0.229c0.252-0.612,0.491-1.231,0.716-1.857     l0.564,0.203C143.583,247.819,143.342,248.447,143.085,249.067z M61.97,248.748c-0.25-0.621-0.487-1.249-0.709-1.884l0.566-0.198     c0.22,0.626,0.453,1.246,0.7,1.858L61.97,248.748z M144.732,244.309l-0.577-0.163c0.179-0.635,0.344-1.276,0.495-1.922     l0.584,0.137C145.082,243.016,144.914,243.665,144.732,244.309z M60.363,243.981c-0.177-0.645-0.339-1.296-0.487-1.953     l0.585-0.132c0.146,0.648,0.306,1.29,0.48,1.926L60.363,243.981z M145.818,239.397l-0.593-0.096     c0.105-0.65,0.195-1.306,0.27-1.966l0.596,0.067C146.016,238.073,145.924,238.737,145.818,239.397z M59.316,239.061     c-0.102-0.661-0.188-1.327-0.259-1.996l0.597-0.064c0.07,0.661,0.155,1.317,0.255,1.969L59.316,239.061z M146.332,234.394     l-0.6-0.027c0.03-0.657,0.045-1.319,0.045-1.984h0.6C146.376,233.057,146.361,233.727,146.332,234.394z M58.841,234.055     c-0.021-0.555-0.031-1.112-0.031-1.672l0.001-0.341l0.6,0.005l-0.002,0.335c0,0.552,0.011,1.102,0.031,1.65L58.841,234.055z      M145.757,231.066c-0.02-0.664-0.055-1.325-0.105-1.982l0.599-0.045c0.05,0.666,0.085,1.336,0.105,2.01L145.757,231.066z      M59.535,229.072l-0.599-0.046c0.051-0.672,0.117-1.339,0.198-2.003l0.596,0.073C59.65,227.75,59.585,228.408,59.535,229.072z      M145.327,226.124c-0.096-0.658-0.206-1.311-0.331-1.958l0.589-0.113c0.126,0.656,0.238,1.318,0.335,1.984L145.327,226.124z      M60.192,224.154l-0.589-0.113c0.127-0.662,0.27-1.317,0.427-1.967l0.583,0.141C60.458,222.855,60.318,223.502,60.192,224.154z      M144.332,221.264c-0.17-0.642-0.355-1.277-0.554-1.907l0.572-0.181c0.202,0.638,0.389,1.283,0.562,1.933L144.332,221.264z      M61.412,219.346l-0.572-0.181c0.204-0.643,0.421-1.28,0.653-1.91l0.563,0.207C61.828,218.083,61.613,218.711,61.412,219.346z      M142.783,216.551c-0.242-0.615-0.499-1.224-0.769-1.825l0.548-0.245c0.273,0.609,0.533,1.227,0.779,1.851L142.783,216.551z      M63.183,214.702l-0.547-0.246c0.275-0.614,0.565-1.221,0.869-1.82l0.535,0.271C63.74,213.498,63.455,214.096,63.183,214.702z      M140.704,212.055c-0.312-0.583-0.637-1.159-0.975-1.726l0.516-0.307c0.342,0.575,0.671,1.159,0.988,1.75L140.704,212.055z      M65.477,210.296l-0.516-0.308c0.345-0.578,0.702-1.146,1.072-1.706l0.501,0.33C66.169,209.165,65.816,209.726,65.477,210.296z      M138.12,207.826c-0.377-0.545-0.766-1.079-1.166-1.605l0.477-0.364c0.407,0.533,0.801,1.076,1.183,1.627L138.12,207.826z      M68.26,206.184l-0.477-0.364c0.408-0.534,0.828-1.058,1.259-1.572l0.46,0.386C69.077,205.141,68.663,205.658,68.26,206.184z      M135.067,203.916c-0.436-0.498-0.884-0.985-1.343-1.462l0.433-0.416c0.465,0.484,0.919,0.978,1.361,1.482L135.067,203.916z      M71.494,202.42l-0.432-0.416c0.465-0.483,0.942-0.956,1.429-1.417l0.413,0.436C72.424,201.477,71.954,201.943,71.494,202.42z      M131.587,200.379c-0.49-0.445-0.991-0.878-1.501-1.3l0.382-0.463c0.518,0.428,1.026,0.868,1.523,1.318L131.587,200.379z      M75.136,199.05l-0.382-0.463c0.517-0.427,1.045-0.842,1.581-1.245l0.36,0.48C76.166,198.22,75.646,198.629,75.136,199.05z      M127.725,197.261c-0.538-0.385-1.084-0.759-1.641-1.121l0.327-0.503c0.563,0.366,1.118,0.745,1.663,1.135L127.725,197.261z      M79.136,196.118l-0.326-0.504c0.562-0.364,1.133-0.716,1.711-1.054l0.303,0.518C80.253,195.413,79.69,195.759,79.136,196.118z      M123.531,194.604c-0.579-0.321-1.166-0.629-1.76-0.925l0.267-0.537c0.603,0.299,1.198,0.612,1.785,0.938L123.531,194.604z      M83.443,193.666l-0.267-0.537c0.599-0.297,1.206-0.581,1.82-0.851l0.241,0.549C84.632,193.094,84.033,193.373,83.443,193.666z      M119.056,192.447c-0.612-0.252-1.231-0.491-1.857-0.716l0.203-0.564c0.634,0.228,1.262,0.47,1.882,0.726L119.056,192.447z      M88,191.726l-0.203-0.564c0.631-0.227,1.268-0.439,1.911-0.636l0.176,0.573C89.249,191.294,88.621,191.503,88,191.726z      M114.364,190.822c-0.635-0.179-1.276-0.345-1.922-0.496l0.137-0.584c0.655,0.153,1.305,0.32,1.949,0.503L114.364,190.822z      M92.759,190.323l-0.137-0.584c0.652-0.152,1.309-0.289,1.971-0.411l0.108,0.59C94.049,190.038,93.401,190.173,92.759,190.323z      M109.521,189.751c-0.65-0.105-1.306-0.195-1.967-0.271l0.068-0.596c0.669,0.077,1.334,0.168,1.994,0.274L109.521,189.751z      M97.647,189.478l-0.068-0.596c0.664-0.076,1.332-0.137,2.005-0.182l0.04,0.599C98.961,189.344,98.301,189.404,97.647,189.478z      M104.585,189.243c-0.657-0.03-1.319-0.045-1.984-0.045v-0.6c0.674,0,1.346,0.015,2.012,0.045L104.585,189.243z"/>
		</g>
		<g>
			<path style="fill: rgb(241, 201, 39);" d="M236.366,129.922l-0.018-0.6c0.664-0.02,1.325-0.055,1.982-0.105l0.046,0.599     C237.709,129.866,237.04,129.902,236.366,129.922z M233.347,129.91c-0.673-0.025-1.343-0.066-2.009-0.122l0.05-0.598     c0.657,0.054,1.317,0.094,1.982,0.12L233.347,129.91z M241.376,129.484l-0.086-0.594c0.657-0.096,1.31-0.206,1.957-0.331     l0.113,0.589C242.705,129.275,242.043,129.387,241.376,129.484z M228.34,129.434c-0.665-0.102-1.327-0.219-1.982-0.35     l0.118-0.588c0.647,0.13,1.298,0.245,1.955,0.346L228.34,129.434z M246.303,128.475l-0.154-0.58     c0.642-0.17,1.277-0.355,1.907-0.554l0.181,0.572C247.598,128.114,246.954,128.301,246.303,128.475z M223.42,128.387     c-0.65-0.178-1.293-0.371-1.929-0.578l0.186-0.57c0.627,0.204,1.262,0.394,1.901,0.569L223.42,128.387z M251.082,126.903     l-0.22-0.559c0.615-0.242,1.224-0.499,1.825-0.769l0.245,0.548C252.323,126.396,251.706,126.657,251.082,126.903z      M218.649,126.777c-0.625-0.252-1.242-0.519-1.852-0.797l0.25-0.546c0.601,0.276,1.21,0.538,1.827,0.787L218.649,126.777z      M255.641,124.794l-0.283-0.529c0.583-0.312,1.159-0.637,1.727-0.975l0.307,0.516     C256.816,124.148,256.232,124.477,255.641,124.794z M214.095,124.624c-0.59-0.322-1.173-0.657-1.747-1.005l0.312-0.513     c0.566,0.343,1.14,0.674,1.723,0.992L214.095,124.624z M259.929,122.173l-0.342-0.493c0.544-0.377,1.079-0.766,1.605-1.166     l0.363,0.477C261.023,121.396,260.48,121.791,259.929,122.173z M209.821,121.964c-0.549-0.387-1.089-0.787-1.619-1.198     l0.368-0.475c0.522,0.406,1.055,0.8,1.597,1.182L209.821,121.964z M263.892,119.077l-0.396-0.451     c0.498-0.437,0.985-0.884,1.463-1.343l0.416,0.433C264.891,118.18,264.396,118.635,263.892,119.077z M205.881,118.834     c-0.501-0.447-0.992-0.905-1.471-1.375l0.42-0.429c0.473,0.463,0.957,0.915,1.451,1.356L205.881,118.834z M267.475,115.55     l-0.443-0.403c0.444-0.49,0.878-0.991,1.3-1.501l0.463,0.382C268.366,114.545,267.927,115.053,267.475,115.55z M202.325,115.275     c-0.446-0.5-0.88-1.011-1.304-1.533l0.466-0.378c0.417,0.514,0.846,1.018,1.286,1.511L202.325,115.275z M270.635,111.634     l-0.486-0.351c0.387-0.537,0.76-1.085,1.12-1.641l0.504,0.326C271.406,110.534,271.027,111.089,270.635,111.634z M199.2,111.336     c-0.386-0.548-0.759-1.105-1.12-1.67l0.506-0.323c0.356,0.558,0.724,1.108,1.104,1.647L199.2,111.336z M273.329,107.38     l-0.523-0.292c0.321-0.579,0.63-1.166,0.925-1.76l0.537,0.267C273.969,106.198,273.656,106.793,273.329,107.38z M196.546,107.067     c-0.32-0.588-0.627-1.183-0.92-1.787l0.54-0.262c0.289,0.595,0.591,1.183,0.907,1.762L196.546,107.067z M275.517,102.842     l-0.555-0.229c0.252-0.612,0.491-1.231,0.716-1.857l0.564,0.203C276.014,101.594,275.772,102.221,275.517,102.842z      M194.401,102.524c-0.25-0.621-0.487-1.249-0.71-1.884l0.566-0.198c0.22,0.626,0.453,1.246,0.7,1.858L194.401,102.524z      M277.163,98.085l-0.576-0.164c0.18-0.634,0.345-1.275,0.495-1.921l0.584,0.136C277.514,96.791,277.347,97.441,277.163,98.085z      M192.793,97.758c-0.177-0.646-0.339-1.296-0.486-1.953l0.585-0.132c0.146,0.648,0.306,1.29,0.48,1.926L192.793,97.758z      M278.248,93.173l-0.592-0.096c0.105-0.65,0.194-1.306,0.271-1.967l0.596,0.068C278.446,91.848,278.354,92.513,278.248,93.173z      M191.747,92.838c-0.102-0.661-0.188-1.327-0.259-1.996l0.597-0.063c0.07,0.661,0.155,1.317,0.255,1.969L191.747,92.838z      M278.762,88.169l-0.6-0.027c0.03-0.657,0.046-1.319,0.046-1.984h0.6C278.808,86.832,278.792,87.503,278.762,88.169z      M191.271,87.831c-0.021-0.555-0.031-1.113-0.031-1.673l0.001-0.34l0.6,0.005l-0.001,0.335c0,0.553,0.01,1.104,0.031,1.651     L191.271,87.831z M278.189,84.841c-0.021-0.665-0.057-1.326-0.105-1.983l0.598-0.045c0.051,0.666,0.086,1.336,0.107,2.009     L278.189,84.841z M191.965,82.848l-0.599-0.046c0.051-0.672,0.117-1.339,0.198-2.003l0.596,0.073     C192.081,81.526,192.016,82.184,191.965,82.848z M277.759,79.898c-0.095-0.657-0.206-1.31-0.331-1.957l0.59-0.114     c0.127,0.657,0.238,1.318,0.335,1.985L277.759,79.898z M192.623,77.93l-0.589-0.113c0.128-0.662,0.27-1.317,0.427-1.967     l0.583,0.141C192.889,76.631,192.748,77.278,192.623,77.93z M276.764,75.038c-0.171-0.642-0.355-1.277-0.555-1.907l0.572-0.181     c0.201,0.638,0.39,1.283,0.563,1.933L276.764,75.038z M193.843,73.121l-0.572-0.181c0.204-0.643,0.421-1.28,0.653-1.91     l0.563,0.207C194.258,71.859,194.043,72.487,193.843,73.121z M275.214,70.326c-0.243-0.615-0.499-1.224-0.768-1.826l0.547-0.245     c0.273,0.609,0.533,1.226,0.78,1.85L275.214,70.326z M195.613,68.478l-0.547-0.246c0.275-0.614,0.565-1.221,0.869-1.82     l0.535,0.271C196.171,67.274,195.885,67.872,195.613,68.478z M273.134,65.83c-0.313-0.584-0.637-1.159-0.975-1.727l0.516-0.307     c0.342,0.575,0.672,1.159,0.988,1.75L273.134,65.83z M197.907,64.073l-0.516-0.308c0.345-0.578,0.702-1.146,1.072-1.707     l0.501,0.33C198.6,62.942,198.247,63.503,197.907,64.073z M270.551,61.6c-0.379-0.544-0.768-1.079-1.168-1.605l0.477-0.363     c0.406,0.533,0.801,1.075,1.184,1.626L270.551,61.6z M200.691,59.961l-0.477-0.364c0.408-0.534,0.828-1.058,1.259-1.572     l0.46,0.386C201.508,58.917,201.093,59.434,200.691,59.961z M267.499,57.691c-0.437-0.498-0.885-0.985-1.343-1.462l0.432-0.416     c0.466,0.484,0.92,0.978,1.362,1.482L267.499,57.691z M203.924,56.196l-0.432-0.416c0.465-0.483,0.942-0.955,1.429-1.417     l0.413,0.435C204.854,55.253,204.384,55.719,203.924,56.196z M264.019,54.154c-0.491-0.444-0.991-0.878-1.502-1.3l0.383-0.462     c0.517,0.427,1.024,0.867,1.521,1.317L264.019,54.154z M207.566,52.826l-0.382-0.463c0.517-0.427,1.044-0.842,1.581-1.245     l0.36,0.48C208.596,51.996,208.076,52.405,207.566,52.826z M260.157,51.036c-0.539-0.386-1.086-0.759-1.642-1.121l0.326-0.503     c0.564,0.366,1.118,0.745,1.665,1.135L260.157,51.036z M211.566,49.895l-0.326-0.504c0.562-0.364,1.133-0.716,1.711-1.054     l0.303,0.518C212.683,49.189,212.12,49.535,211.566,49.895z M255.961,48.379c-0.579-0.321-1.166-0.629-1.76-0.925l0.267-0.537     c0.603,0.299,1.198,0.612,1.785,0.938L255.961,48.379z M215.873,47.442l-0.267-0.537c0.599-0.297,1.206-0.581,1.82-0.85     l0.241,0.549C217.062,46.869,216.463,47.149,215.873,47.442z M251.487,46.222c-0.612-0.252-1.231-0.491-1.857-0.716l0.203-0.564     c0.634,0.228,1.262,0.47,1.882,0.726L251.487,46.222z M220.43,45.502l-0.203-0.564c0.631-0.227,1.268-0.439,1.911-0.636     l0.176,0.573C221.679,45.07,221.051,45.279,220.43,45.502z M246.794,44.597c-0.635-0.179-1.276-0.345-1.922-0.496l0.137-0.584     c0.655,0.153,1.305,0.32,1.949,0.503L246.794,44.597z M225.189,44.098l-0.137-0.584c0.652-0.152,1.309-0.289,1.971-0.411     l0.108,0.59C226.479,43.813,225.831,43.949,225.189,44.098z M241.951,43.526c-0.65-0.105-1.306-0.195-1.967-0.271l0.068-0.596     c0.669,0.077,1.334,0.168,1.994,0.274L241.951,43.526z M230.077,43.253l-0.068-0.596c0.664-0.076,1.332-0.137,2.005-0.182     l0.04,0.599C231.391,43.118,230.731,43.179,230.077,43.253z M237.015,43.019c-0.657-0.03-1.319-0.045-1.984-0.045v-0.6     c0.674,0,1.346,0.015,2.012,0.045L237.015,43.019z"/>
		</g>
		<g>
			<path style="fill: rgb(241, 201, 39);" d="M330.15,156.478c-0.257-0.01-0.494-0.003-0.741-0.009l0.016-0.6     c0.243,0.007,0.482,0.013,0.726,0.009c0.42,0,0.837-0.011,1.252-0.031l0.029,0.6C331.007,156.467,330.579,156.478,330.15,156.478     z M326.388,156.218c-0.665-0.093-1.335-0.213-1.99-0.357l0.129-0.586c0.641,0.141,1.295,0.258,1.945,0.35L326.388,156.218z      M334.444,156.128l-0.098-0.592c0.65-0.106,1.303-0.239,1.937-0.394l0.143,0.583     C335.776,155.884,335.109,156.019,334.444,156.128z M321.478,155.041c-0.633-0.218-1.268-0.463-1.887-0.73l0.238-0.551     c0.604,0.261,1.225,0.501,1.844,0.714L321.478,155.041z M339.327,154.841l-0.209-0.563c0.617-0.229,1.232-0.482,1.825-0.754     l0.25,0.545C340.586,154.348,339.958,154.607,339.327,154.841z M316.88,152.95c-0.588-0.338-1.164-0.7-1.714-1.076l0.338-0.495     c0.538,0.367,1.102,0.721,1.675,1.051L316.88,152.95z M343.87,152.65l-0.311-0.513c0.563-0.341,1.118-0.707,1.649-1.087     l0.35,0.488C345.014,151.927,344.446,152.301,343.87,152.65z M312.762,150.027c-0.508-0.439-1.006-0.902-1.48-1.378l0.426-0.424     c0.463,0.466,0.95,0.919,1.447,1.348L312.762,150.027z M347.92,149.638l-0.402-0.445c0.484-0.437,0.961-0.901,1.417-1.379     l0.434,0.414C348.902,148.717,348.415,149.191,347.92,149.638z M309.269,146.382c-0.416-0.526-0.818-1.075-1.193-1.632     l0.498-0.335c0.366,0.544,0.759,1.081,1.166,1.595L309.269,146.382z M351.332,145.917l-0.479-0.362     c0.395-0.521,0.775-1.066,1.133-1.621l0.504,0.324C352.125,144.827,351.735,145.384,351.332,145.917z M306.525,142.147     c-0.313-0.601-0.603-1.216-0.862-1.827l0.553-0.234c0.253,0.597,0.537,1.197,0.843,1.784L306.525,142.147z M353.982,141.619     l-0.539-0.265c0.289-0.587,0.561-1.195,0.806-1.807l0.557,0.224C354.555,140.397,354.277,141.019,353.982,141.619z      M304.635,137.468c-0.19-0.644-0.358-1.303-0.499-1.959l0.586-0.126c0.138,0.642,0.303,1.286,0.489,1.915L304.635,137.468z      M355.77,136.893l-0.578-0.157c0.172-0.633,0.321-1.28,0.444-1.925l0.59,0.112C356.099,135.583,355.946,136.246,355.77,136.893z      M303.669,132.513c-0.065-0.671-0.105-1.35-0.119-2.018l0.6-0.013c0.014,0.653,0.053,1.316,0.117,1.972L303.669,132.513z      M356.624,131.918l-0.598-0.044c0.049-0.658,0.073-1.322,0.073-1.975v-0.179h0.6v0.179     C356.699,130.567,356.674,131.246,356.624,131.918z M304.249,127.519l-0.598-0.054c0.061-0.665,0.147-1.34,0.259-2.005l0.592,0.1     C304.393,126.21,304.308,126.869,304.249,127.519z M355.911,126.764c-0.076-0.644-0.181-1.3-0.31-1.95l0.588-0.117     c0.133,0.666,0.239,1.337,0.317,1.997L355.911,126.764z M305.161,122.671l-0.576-0.166c0.185-0.641,0.398-1.287,0.635-1.92     l0.563,0.21C305.551,121.414,305.342,122.046,305.161,122.671z M354.86,121.945c-0.202-0.625-0.43-1.25-0.677-1.856l0.555-0.227     c0.254,0.621,0.486,1.26,0.692,1.899L354.86,121.945z M306.978,118.084l-0.533-0.273c0.308-0.602,0.641-1.196,0.989-1.765     l0.512,0.313C307.604,116.915,307.279,117.495,306.978,118.084z M352.908,117.415c-0.316-0.576-0.658-1.146-1.016-1.694     l0.502-0.328c0.366,0.562,0.716,1.145,1.039,1.733L352.908,117.415z M309.634,113.923l-0.473-0.369     c0.408-0.524,0.848-1.044,1.304-1.545l0.443,0.403C310.462,112.902,310.033,113.41,309.634,113.923z M350.135,113.336     c-0.42-0.508-0.864-1.003-1.317-1.473l0.432-0.417c0.464,0.481,0.918,0.988,1.349,1.507L350.135,113.336z M313.025,110.337     l-0.395-0.451c0.504-0.441,1.033-0.87,1.571-1.273l0.359,0.48C314.034,109.488,313.518,109.906,313.025,110.337z M346.641,109.85     c-0.507-0.419-1.036-0.822-1.571-1.199l0.346-0.49c0.548,0.385,1.089,0.798,1.608,1.227L346.641,109.85z M317.029,107.455     l-0.303-0.519c0.581-0.339,1.182-0.66,1.783-0.953l0.262,0.54C318.184,106.81,317.598,107.123,317.029,107.455z M342.554,107.084     c-0.575-0.314-1.171-0.61-1.771-0.881l0.246-0.547c0.614,0.277,1.224,0.58,1.812,0.901L342.554,107.084z M321.506,105.384     l-0.199-0.566c0.631-0.222,1.281-0.422,1.932-0.597l0.154,0.58C322.758,104.971,322.122,105.166,321.506,105.384z      M338.016,105.142c-0.626-0.199-1.267-0.377-1.904-0.527l0.139-0.584c0.652,0.154,1.308,0.335,1.947,0.54L338.016,105.142z      M326.296,104.201l-0.088-0.594c0.658-0.097,1.334-0.171,2.009-0.219l0.043,0.599C327.6,104.034,326.938,104.106,326.296,104.201     z M333.192,104.101c-0.651-0.077-1.313-0.129-1.97-0.157l0.025-0.6c0.671,0.028,1.349,0.082,2.015,0.161L333.192,104.101z"/>
		</g>
		<g>
			<path style="fill: rgb(241, 201, 39);" d="M133.117,152.091c-0.247-0.005-0.495-0.003-0.742-0.009l0.017-0.6     c0.241,0.006,0.487,0.005,0.724,0.009c0.42,0,0.837-0.011,1.252-0.031l0.029,0.6C133.973,152.08,133.546,152.091,133.117,152.091     z M129.355,151.83c-0.666-0.093-1.335-0.213-1.99-0.357l0.129-0.586c0.64,0.141,1.294,0.258,1.944,0.35L129.355,151.83z      M137.413,151.741l-0.097-0.592c0.65-0.107,1.301-0.239,1.936-0.394l0.142,0.583     C138.744,151.497,138.078,151.632,137.413,151.741z M124.445,150.654c-0.634-0.218-1.269-0.464-1.887-0.73l0.237-0.551     c0.604,0.26,1.225,0.5,1.845,0.714L124.445,150.654z M142.294,150.454l-0.208-0.563c0.62-0.229,1.233-0.483,1.824-0.754     l0.25,0.545C143.556,149.96,142.928,150.219,142.294,150.454z M119.846,148.562c-0.584-0.336-1.161-0.698-1.713-1.075     l0.338-0.496c0.541,0.369,1.104,0.723,1.675,1.052L119.846,148.562z M146.838,148.263l-0.311-0.513     c0.563-0.341,1.118-0.707,1.65-1.087l0.349,0.488C147.98,147.54,147.413,147.914,146.838,148.263z M115.729,145.639     c-0.507-0.438-1.005-0.901-1.48-1.378l0.426-0.423c0.464,0.466,0.95,0.919,1.446,1.347L115.729,145.639z M150.888,145.251     l-0.402-0.445c0.488-0.44,0.964-0.904,1.416-1.379l0.435,0.414C151.874,144.327,151.387,144.802,150.888,145.251z      M112.236,141.995c-0.416-0.525-0.817-1.074-1.193-1.631l0.497-0.336c0.368,0.545,0.761,1.082,1.167,1.595L112.236,141.995z      M154.3,141.531l-0.479-0.362c0.395-0.522,0.776-1.067,1.132-1.621l0.505,0.324C155.094,140.438,154.704,140.996,154.3,141.531z      M109.494,137.759c-0.308-0.592-0.599-1.206-0.863-1.827l0.552-0.235c0.259,0.605,0.543,1.206,0.844,1.785L109.494,137.759z      M156.95,137.233l-0.538-0.266c0.289-0.586,0.56-1.194,0.805-1.806l0.557,0.223C157.523,136.01,157.246,136.632,156.95,137.233z      M107.603,133.079c-0.191-0.644-0.359-1.303-0.5-1.959l0.587-0.126c0.138,0.642,0.302,1.286,0.488,1.914L107.603,133.079z      M158.737,132.507l-0.579-0.158c0.172-0.63,0.322-1.278,0.446-1.924l0.589,0.113     C159.066,131.199,158.913,131.862,158.737,132.507z M106.637,128.125c-0.065-0.667-0.106-1.346-0.121-2.018l0.6-0.013     c0.015,0.657,0.054,1.32,0.118,1.972L106.637,128.125z M159.592,127.532l-0.599-0.045c0.049-0.655,0.074-1.319,0.074-1.975     l-0.001-0.177l0.6-0.005l0.001,0.182C159.667,126.183,159.642,126.862,159.592,127.532z M107.218,123.132l-0.598-0.054     c0.06-0.668,0.148-1.342,0.259-2.005l0.592,0.1C107.362,121.82,107.277,122.48,107.218,123.132z M158.88,122.378     c-0.079-0.652-0.183-1.308-0.311-1.951l0.589-0.117c0.13,0.658,0.237,1.329,0.317,1.997L158.88,122.378z M108.129,118.284     l-0.576-0.167c0.186-0.642,0.399-1.288,0.635-1.92l0.562,0.21C108.52,117.024,108.311,117.656,108.129,118.284z M157.827,117.558     c-0.2-0.623-0.428-1.248-0.676-1.856l0.556-0.227c0.254,0.623,0.487,1.262,0.692,1.899L157.827,117.558z M109.947,113.696     l-0.534-0.273c0.304-0.596,0.637-1.189,0.989-1.765l0.512,0.313C110.57,112.534,110.244,113.114,109.947,113.696z      M155.877,113.029c-0.318-0.577-0.66-1.147-1.017-1.694l0.503-0.328c0.365,0.56,0.714,1.143,1.039,1.733L155.877,113.029z      M112.603,109.535l-0.473-0.369c0.413-0.529,0.852-1.049,1.304-1.546l0.443,0.404     C113.436,108.51,113.006,109.018,112.603,109.535z M153.103,108.95c-0.42-0.506-0.863-1.003-1.317-1.474l0.432-0.416     c0.465,0.482,0.918,0.989,1.348,1.507L153.103,108.95z M115.994,105.95l-0.395-0.452c0.506-0.443,1.035-0.871,1.571-1.272     l0.359,0.48C117.006,105.098,116.49,105.517,115.994,105.95z M149.61,105.463c-0.507-0.417-1.036-0.821-1.572-1.2l0.346-0.49     c0.548,0.387,1.089,0.8,1.608,1.227L149.61,105.463z M119.998,103.068l-0.303-0.518c0.581-0.34,1.181-0.661,1.782-0.953     l0.263,0.54C121.153,102.422,120.567,102.736,119.998,103.068z M145.523,102.697c-0.578-0.315-1.173-0.611-1.77-0.881     l0.246-0.547c0.612,0.275,1.221,0.579,1.811,0.901L145.523,102.697z M124.475,100.995l-0.199-0.566     c0.632-0.222,1.282-0.423,1.933-0.597l0.154,0.58C125.728,100.582,125.092,100.778,124.475,100.995z M140.984,100.755     c-0.626-0.199-1.267-0.376-1.904-0.527l0.138-0.584c0.652,0.154,1.308,0.335,1.948,0.54L140.984,100.755z M129.265,99.813     l-0.088-0.594c0.661-0.098,1.337-0.171,2.01-0.219l0.042,0.599C130.571,99.645,129.911,99.717,129.265,99.813z M136.162,99.714     c-0.65-0.077-1.313-0.129-1.969-0.157l0.024-0.6c0.672,0.028,1.35,0.082,2.015,0.161L136.162,99.714z"/>
		</g>
	</g>
	<g>
		
			<linearGradient id="SVGID_00000118379400694611102350000001664432290063824516_" gradientUnits="userSpaceOnUse" x1="157.4964" y1="123.367" x2="108.7222" y2="149.1734">
			<stop offset="0" style="stop-color: rgb(210, 221, 89);"/>
			<stop offset="1" style="stop-color: rgb(74, 86, 74);"/>
		</linearGradient>
		<polygon style="fill:url(#SVGID_00000118379400694611102350000001664432290063824516_);" points="109.045,143.348 137.69,131.929     135.948,126.703 156.658,120.316 155.109,115.671 168.464,122.445 158.98,131.542 157.625,127.284 144.464,131.154     146.012,136.38   "/>
		
			<linearGradient id="SVGID_00000155836238292286686040000018273075597084806032_" gradientUnits="userSpaceOnUse" x1="145.0598" y1="105.4125" x2="145.0598" y2="121.1544">
			<stop offset="0" style="stop-color: rgb(255, 145, 38);"/>
			<stop offset="1" style="stop-color: rgb(255, 205, 118);"/>
		</linearGradient>
		<polygon style="fill:url(#SVGID_00000155836238292286686040000018273075597084806032_);" points="140.43,107.427 140.43,123.228     149.69,120.372 149.69,107.427   "/>
		
			<linearGradient id="SVGID_00000074431661987839668480000002395204116753457292_" gradientUnits="userSpaceOnUse" x1="132.2059" y1="93.7996" x2="132.2059" y2="130.1904">
			<stop offset="0" style="stop-color: rgb(255, 145, 38);"/>
			<stop offset="1" style="stop-color: rgb(255, 205, 118);"/>
		</linearGradient>
		<polygon style="fill:url(#SVGID_00000074431661987839668480000002395204116753457292_);" points="127.576,133.807 135.195,130.77     133.403,125.395 136.836,124.336 136.836,97.154 127.576,97.154   "/>
		
			<linearGradient id="SVGID_00000072994161028801225690000005856291627614570897_" gradientUnits="userSpaceOnUse" x1="119.3522" y1="104.8964" x2="119.3522" y2="135.8813">
			<stop offset="0" style="stop-color: rgb(255, 145, 38);"/>
			<stop offset="1" style="stop-color: rgb(255, 205, 118);"/>
		</linearGradient>
		<polygon style="fill:url(#SVGID_00000072994161028801225690000005856291627614570897_);" points="114.722,138.931 123.982,135.24     123.982,105.484 114.722,105.484   "/>
	</g>
	<g>
		<g>
			<circle style="fill: rgb(234, 187, 26);" cx="102.593" cy="232.382" r="36.905"/>
			<g>
				<defs>
					<circle id="SVGID_00000097492744945294268700000012786769125969300383_" cx="102.593" cy="232.382" r="36.905"/>
				</defs>
				<clipPath id="SVGID_00000007407584933093761220000002240701790715876757_">
					<use xlink:href="#SVGID_00000097492744945294268700000012786769125969300383_" style="overflow:visible;"/>
				</clipPath>
				<g style="clip-path:url(#SVGID_00000007407584933093761220000002240701790715876757_);">
					<path style="fill: rgb(5, 5, 5);" d="M116.675,208.872c0,0,6.612,11.081,5.996,24.567c-0.617,13.486-0.247,24.217-0.247,24.217       l-34.413,0.123c0,0,1.817-15.172,0.953-24.916c-0.863-9.744,1.514-17.391,3.364-19.612       C94.178,211.032,111.049,205.601,116.675,208.872z"/>
					
						<linearGradient id="SVGID_00000023250278948571023970000015223539459895198088_" gradientUnits="userSpaceOnUse" x1="85.0412" y1="229.7754" x2="89.4553" y2="229.7754">
						<stop offset="0" style="stop-color: rgb(255, 213, 46);"/>
						<stop offset="1" style="stop-color: rgb(241, 193, 0);"/>
					</linearGradient>
					<path style="fill:url(#SVGID_00000023250278948571023970000015223539459895198088_);" d="M88.504,226.45       c0,0-3.33-0.74-3.454,0.74c-0.123,1.48,0.987,5.304,3.33,6.044C90.724,233.974,88.504,226.45,88.504,226.45z"/>
					
						<linearGradient id="SVGID_00000084522000883153599430000013021587049892513450_" gradientUnits="userSpaceOnUse" x1="114.0272" y1="229.7754" x2="118.4413" y2="229.7754">
						<stop offset="0" style="stop-color: rgb(255, 213, 46);"/>
						<stop offset="1" style="stop-color: rgb(241, 193, 0);"/>
					</linearGradient>
					<path style="fill:url(#SVGID_00000084522000883153599430000013021587049892513450_);" d="M114.978,226.45       c0,0,3.33-0.74,3.454,0.74c0.123,1.48-0.987,5.304-3.33,6.044C112.758,233.974,114.978,226.45,114.978,226.45z"/>
					
						<linearGradient id="SVGID_00000153706538804882078660000017504641573233914282_" gradientUnits="userSpaceOnUse" x1="103.9115" y1="249.7668" x2="98.234" y2="274.67">
						<stop offset="0" style="stop-color: rgb(221, 161, 0);"/>
						<stop offset="1" style="stop-color: rgb(241, 193, 0);"/>
					</linearGradient>
					<path style="fill:url(#SVGID_00000153706538804882078660000017504641573233914282_);" d="M127.238,266.778       c0,0-31.33,8.39-41.82,7.03c-10.48-1.35-12.45-7.64-12.45-7.64s4.81-10.36,6.53-11.6c0.72-0.51,3.73-1.25,6.98-1.92       c0.82-0.18,1.66-0.35,2.48-0.51c0.36-0.07,0.71-0.14,1.06-0.21c3.21-0.61,5.89-1.06,5.89-1.06l12.58,0.25       c0,0,3.14,0.57,6.64,1.3c0.92,0.19,1.87,0.39,2.79,0.6c0.64,0.14,1.26,0.29,1.85,0.43c2.07,0.5,3.77,0.99,4.38,1.37       C126.128,256.048,127.238,266.778,127.238,266.778z"/>
					<path style="fill: rgb(255, 213, 46);" d="M117.918,253.018c-0.27,0.63-2.71,6.08-5.26,9.23c-2.71,3.36-16.65,0.91-20-0.9       c-2.43-1.31-3.37-6.46-3.7-9.21c0.36-0.07,0.71-0.14,1.06-0.21c3.21-0.61,5.89-1.06,5.89-1.06l12.58,0.25       c0,0,3.14,0.57,6.64,1.3C116.048,252.608,116.998,252.808,117.918,253.018z"/>
					<path style="fill: rgb(240, 217, 163);" d="M117.617,257.041c0,0,0.37,4.93-2.47,5.8c0,0-2.47,3.82-6.41,2.09c0,0-4.32,3.7-8.02,0.62       c0,0-6.17,2.47-7.16-2.1c0,0-5.79-0.12-3.94-5.18c0,0-4.39-1.93-3.14-5.62c1.18-0.26,2.4-0.5,3.54-0.72       c0.49,3.09,2.49,10.56,10.33,10.17c9.2-0.47,13.36-3.39,14.78-9.68c1.56,0.32,3.19,0.68,4.64,1.03       C119.517,254.661,118.938,256.311,117.617,257.041z"/>
					
						<linearGradient id="SVGID_00000103256014615865044870000006630453399436909241_" gradientUnits="userSpaceOnUse" x1="102.1631" y1="249.4073" x2="102.5502" y2="239.8589">
						<stop offset="0" style="stop-color: rgb(255, 213, 46);"/>
						<stop offset="1" style="stop-color: rgb(241, 193, 0);"/>
					</linearGradient>
					<path style="fill:url(#SVGID_00000103256014615865044870000006630453399436909241_);" d="M96.028,241.868       c0,0,0.987,6.291-0.123,9.004c0,0,0.247,3.577,4.81,2.96c4.564-0.617,7.771-2.714,7.771-2.714s-1.357-3.454,0.493-10.978       L96.028,241.868z"/>
					
						<linearGradient id="SVGID_00000099640868506035818270000015211277545411324077_" gradientUnits="userSpaceOnUse" x1="105.8648" y1="246.7874" x2="100.9293" y2="241.2713">
						<stop offset="0" style="stop-color: rgb(255, 213, 46); stop-opacity: 0;"/>
						<stop offset="1" style="stop-color: rgb(241, 193, 0);"/>
					</linearGradient>
					<path style="fill:url(#SVGID_00000099640868506035818270000015211277545411324077_);" d="M108.271,240.316l-0.522-0.01       l-11.222,1.496l-0.444,0.444c0.078,0.573,0.224,1.747,0.3,3.104c1.898,1.43,4.905,3.255,7.34,2.708       c1.918-0.432,3.432-1.976,4.434-3.322c0.112-1.054,0.301-2.245,0.592-3.576L108.271,240.316z"/>
					
						<linearGradient id="SVGID_00000049222648248161302810000002178097541597494185_" gradientUnits="userSpaceOnUse" x1="101.7983" y1="235.1914" x2="101.413" y2="196.6604">
						<stop offset="0" style="stop-color: rgb(255, 213, 46);"/>
						<stop offset="1" style="stop-color: rgb(241, 193, 0);"/>
					</linearGradient>
					<path style="fill:url(#SVGID_00000049222648248161302810000002178097541597494185_);" d="M87.847,221.179       c-0.02,0.408,1.204,12.844,2.71,16.387c2.101,4.943,7.127,7.587,10.323,7.871c4.81,0.427,9.843-4.347,11.649-7.186       c1.807-2.839,3.19-10.491,2.932-16.169c-0.258-5.677-2.189-11.226-5.546-12.516c-3.357-1.29-13.164-0.387-13.164-0.387       S88.234,213.179,87.847,221.179z"/>
					
						<linearGradient id="SVGID_00000126281327810952725340000001908687639359523206_" gradientUnits="userSpaceOnUse" x1="100.6784" y1="208.0853" x2="92.9365" y2="228.3434">
						<stop offset="0" style="stop-color: rgb(255, 213, 46);"/>
						<stop offset="1" style="stop-color: rgb(241, 193, 0);"/>
					</linearGradient>
					<path style="fill:url(#SVGID_00000126281327810952725340000001908687639359523206_);" d="M107.625,209.993       c0,0,0.164-0.368,0.288-0.885c-4.2-0.57-11.163,0.071-11.163,0.071s-0.081,0.04-0.194,0.098       c-1.15,0.887-2.286,1.907-3.382,3.039c-0.766,0.791-2.078,1.952-3.567,3.289c-0.956,1.573-1.656,3.424-1.76,5.575       c-0.009,0.187,0.045,3.024,0.342,6.326c0.202-0.033,0.385-0.056,0.597-0.093C107.238,224.187,107.625,210.38,107.625,209.993z"/>
					<path style="fill: rgb(14, 14, 14);" d="M87.962,224.363c0,0-2.171-4.697-1.061-10.494s7.041-9.744,12.088-10.484       c5.047-0.74,8.881,2.59,8.881,2.59s0.247,5.427-2.96,10.361C101.702,221.27,91.737,224.002,87.962,224.363z"/>
					<path style="fill: rgb(14, 14, 14);" d="M87.882,221.299c0.058,0.697-1.293,16.623,3.492,21.488c0,0-2.455-14.173-1.515-20.296       L87.882,221.299z"/>
					<path style="fill: rgb(14, 14, 14);" d="M107.869,205.975c0,0,1.357-1.233,5.674,0.37c4.317,1.603,6.537,8.881,6.044,13.198       c-0.493,4.317-4.564,7.401-4.564,7.401s0.123-8.264-2.714-11.348c-2.837-3.084-7.277-4.934-7.277-4.934L107.869,205.975z"/>
					<path style="fill: rgb(14, 14, 14);" d="M114.803,223.613c0,0-0.273,14.185-2.246,19.488c0,0,5.057-7.647,4.44-19.488H114.803z"/>
					<path style="fill: rgb(208, 164, 78);" d="M92.593,219.735c0,0,6.903-0.645,10.774-7.355C103.367,212.38,101.367,219.477,92.593,219.735z"/>
				</g>
			</g>
		</g>
	</g>
	<g>
		<path style="fill: rgb(234, 187, 26);" d="M271.925,86.154c0,10.97-4.78,20.82-12.38,27.58c-6.52,5.81-15.11,9.33-24.52,9.33    c-0.48,0-0.96-0.01-1.44-0.03c-0.86-0.03-1.72-0.09-2.56-0.19c-8.22-0.88-15.63-4.46-21.33-9.84    c-7.13-6.73-11.58-16.27-11.58-26.85c0-20.38,16.53-36.9,36.91-36.9S271.925,65.774,271.925,86.154z"/>
		<g>
			
				<linearGradient id="SVGID_00000006706051563196611690000010221308821479850650_" gradientUnits="userSpaceOnUse" x1="216.789" y1="85.5409" x2="222.195" y2="85.5409">
				<stop offset="0" style="stop-color: rgb(255, 213, 46);"/>
				<stop offset="1" style="stop-color: rgb(241, 193, 0);"/>
			</linearGradient>
			<path style="fill:url(#SVGID_00000006706051563196611690000010221308821479850650_);" d="M222.195,90.904     c0,0-2.32-0.13-3.36-1.42c-1.03-1.29-2.83-7.61-1.67-8.9c0.36-0.4,0.83-0.46,1.33-0.37c0.81,0.16,1.66,0.77,2.05,1.09     c0.15,0.11,0.23,0.18,0.23,0.18L222.195,90.904z"/>
			
				<linearGradient id="SVGID_00000181060641649647916350000016662490842402459576_" gradientUnits="userSpaceOnUse" x1="233.5181" y1="91.4954" x2="233.3245" y2="72.334">
				<stop offset="0" style="stop-color: rgb(255, 213, 46);"/>
				<stop offset="1" style="stop-color: rgb(241, 193, 0);"/>
			</linearGradient>
			<path style="fill:url(#SVGID_00000181060641649647916350000016662490842402459576_);" d="M220.27,83.938     c0,0-1.032-8.516,0.645-11.097c1.678-2.581,5.678-4.903,9.548-5.29c3.871-0.387,14.452,3.613,15.871,5.032     c1.419,1.419-1.032,10.581-0.774,14.452c0.258,3.871-5.419,14.193-8.774,15.097c-3.355,0.903-12.516,0.774-14.452-5.032     C220.399,91.292,220.27,83.938,220.27,83.938z"/>
			<path style="fill: rgb(14, 14, 14);" d="M226.206,68.583c0.069,0.46,4.645,3.226,9.161,3.871c4.516,0.645,9.935,3.871,10.968,6.71     l1.182,2.227l1.947,0.805c0,0,2.032-9.742-0.032-14c-2.064-4.258-5.419-4.387-9.419-6.452c-4-2.065-7.355-4.903-10.452-2.71     C226.464,61.228,225.819,66.002,226.206,68.583z"/>
			<path style="fill: rgb(14, 14, 14);" d="M228.395,66.904l-1.03,1.55c0,0-4.51,6.32-5.68,7.87c-0.86,1.15-1.08,3.74-1.14,4.98     c-0.39-0.32-1.24-0.93-2.05-1.09c-0.24-3.17-0.43-8.42,0.61-10.6c1.55-3.22,2.71-4.39,4.52-4.13S228.395,66.904,228.395,66.904z"/>
			
				<linearGradient id="SVGID_00000094582326158160654100000008947981142802445245_" gradientUnits="userSpaceOnUse" x1="245.3027" y1="85.5407" x2="250.7108" y2="85.5407">
				<stop offset="0" style="stop-color: rgb(255, 213, 46);"/>
				<stop offset="1" style="stop-color: rgb(241, 193, 0);"/>
			</linearGradient>
			<path style="fill:url(#SVGID_00000094582326158160654100000008947981142802445245_);" d="M246.722,81.486     c0,0,2.452-2.194,3.613-0.903c1.161,1.29-0.645,7.613-1.677,8.903c-1.032,1.29-3.355,1.419-3.355,1.419L246.722,81.486z"/>
			
				<linearGradient id="SVGID_00000008108722719410435490000013891869773801134214_" gradientUnits="userSpaceOnUse" x1="234.5403" y1="123.0874" x2="234.6694" y2="107.3454">
				<stop offset="0" style="stop-color: rgb(210, 221, 89);"/>
				<stop offset="1" style="stop-color: rgb(74, 86, 74);"/>
			</linearGradient>
			<path style="fill:url(#SVGID_00000008108722719410435490000013891869773801134214_);" d="M259.545,113.734     c-6.52,5.81-15.11,9.33-24.52,9.33c-0.48,0-0.96-0.01-1.44-0.03c-0.86-0.03-1.72-0.09-2.56-0.19     c-8.22-0.88-15.63-4.46-21.33-9.84l3.46-1.36h39.38L259.545,113.734z"/>
			
				<linearGradient id="SVGID_00000147937977125870577860000011019127998806382740_" gradientUnits="userSpaceOnUse" x1="247.6122" y1="93.796" x2="244.3864" y2="105.5379">
				<stop offset="0" style="stop-color: rgb(255, 253, 45);"/>
				<stop offset="1" style="stop-color: rgb(255, 208, 108);"/>
			</linearGradient>
			<polygon style="fill:url(#SVGID_00000147937977125870577860000011019127998806382740_);" points="242.318,111.775      241.389,108.459 241.92,101.694 247.359,103.684 246.961,108.99    "/>
			
				<linearGradient id="SVGID_00000029009979195211922570000011406325670367250327_" gradientUnits="userSpaceOnUse" x1="221.1268" y1="97.4704" x2="222.4171" y2="107.1478">
				<stop offset="0" style="stop-color: rgb(255, 253, 45);"/>
				<stop offset="1" style="stop-color: rgb(255, 208, 108);"/>
			</linearGradient>
			<polygon style="fill:url(#SVGID_00000029009979195211922570000011406325670367250327_);" points="223.374,111.775      224.303,108.459 225.604,101.561 218.333,103.684 218.731,108.99    "/>
			<path style="fill: rgb(255, 213, 46);" d="M246.035,110.184l-1.59,1.46l-1.6,1.46l-6.1,4.51l-3.16,5.42c-0.86-0.03-1.72-0.09-2.56-0.19     l-2.08-5.23l-8.01-5.97l-1.96-1.46l5.33-1.86l17.61,0.8L246.035,110.184z"/>
			
				<linearGradient id="SVGID_00000111160803060196047380000002148259590136457908_" gradientUnits="userSpaceOnUse" x1="233.1126" y1="108.7723" x2="233.2093" y2="103.6432">
				<stop offset="0" style="stop-color: rgb(255, 213, 46);"/>
				<stop offset="1" style="stop-color: rgb(241, 193, 0);"/>
			</linearGradient>
			<path style="fill:url(#SVGID_00000111160803060196047380000002148259590136457908_);" d="M225.27,100.389     c0-0.774,16.258,0.581,16.258,0.581l0.387,8.613l-17.613-1.258C224.303,108.325,225.27,101.163,225.27,100.389z"/>
			
				<linearGradient id="SVGID_00000155105281756102181710000016096014171222773168_" gradientUnits="userSpaceOnUse" x1="232.9767" y1="110.9968" x2="233.2993" y2="102.2226">
				<stop offset="0" style="stop-color: rgb(255, 213, 46); stop-opacity: 0;"/>
				<stop offset="1" style="stop-color: rgb(241, 193, 0);"/>
			</linearGradient>
			<path style="fill:url(#SVGID_00000155105281756102181710000016096014171222773168_);" d="M241.755,106.044     c-1.53,1.06-3.54,2.32-5.33,3.15c-0.64,0.3-1.25,0.54-1.8,0.7c-2.6,0.78-6.16-0.59-7.92-1.4c-0.67-0.3-1.08-0.53-1.08-0.53     l-1.08-1.44c0.29-2.18,0.73-5.61,0.73-6.14c0-0.77,16.25,0.59,16.25,0.59L241.755,106.044z"/>
			<path style="fill: rgb(14, 14, 14);" d="M220.875,78.484c0,0,0.557,8.163,1.073,9.453c0.516,1.29,0,4.516,0,4.516l2.968,2.968     c0,0,2.581-4.787,4.387-4.716c1.807,0.071,6.452,0.2,7.484,0.716c1.032,0.516,2.581,3.355,2.581,3.355s3.484-3.097,4.387-5.677     c0.903-2.581,2.581-9.936,2.581-9.936l1.548,0.129c0,0-0.903,6.323-0.774,8.258s-1.548,8.645-1.677,10.71     c-0.129,2.064-3.871,6.323-5.936,7.097s-3.484,2.064-5.677,2.193c-2.194,0.129-6.064-1.936-8.129-3.097     c-2.064-1.161-5.677-5.29-6.064-7.355s0.645-5.032,0.516-7.484c-0.129-2.452-0.486-9.095-0.486-9.095L220.875,78.484z"/>
			<path style="fill: rgb(5, 5, 5);" d="M246.516,92.075l-3.343,7.725l-2.903,0.774l-3.871,2.806l-4.258-0.581l0.387,2.419     c0,0-6.003-1.648-8.875-2.373c0.731,0.698,1.447,1.277,2.037,1.608c2.064,1.161,5.935,3.226,8.129,3.097     c2.193-0.129,3.613-1.419,5.677-2.194c2.064-0.774,5.806-5.032,5.936-7.097C245.504,97.104,246.062,94.49,246.516,92.075z"/>
			<g>
				<path style="fill: rgb(234, 187, 26);" d="M249.785,91.894c-0.13,0.18-0.31,0.28-0.54,0.3h-0.05c-0.11,0-0.26-0.03-0.4-0.16      c-0.78-0.7-0.88-3.94-0.89-4.58c0-0.14,0.11-0.26,0.25-0.26c0.05,0,0.11,0.01,0.15,0.05c0.06,0.05,0.1,0.12,0.1,0.2      c0,0.33,0.02,0.72,0.06,1.13c0.09,1.3,0.3,2.76,0.66,3.09c0.05,0.03,0.07,0.03,0.08,0.03c0.08,0,0.13-0.03,0.18-0.1      c0.3-0.41,0-1.79-0.27-2.89c0.1-0.23,0.21-0.48,0.32-0.76l0.05,0.17C249.845,89.574,250.265,91.224,249.785,91.894z"/>
			</g>
			<path style="fill: rgb(208, 164, 78);" d="M228.27,64.235c0,0,0.823-3.339,2.468-4.064c1.645-0.726,4.984,0.726,4.984,0.726     s-4.403-0.484-5.419,0.484C229.287,62.348,228.27,64.235,228.27,64.235z"/>
			
				<linearGradient id="SVGID_00000160173327895237292650000018226166587392520381_" gradientUnits="userSpaceOnUse" x1="244.5723" y1="118.3997" x2="244.9594" y2="96.5933">
				<stop offset="0" style="stop-color: rgb(255, 253, 45);"/>
				<stop offset="1" style="stop-color: rgb(255, 208, 108);"/>
			</linearGradient>
			<path style="fill:url(#SVGID_00000160173327895237292650000018226166587392520381_);" d="M236.746,117.612l7.429-1.061     l8.357-4.908c0,0-4.112-7.428-5.173-7.959c0,0-3.847,6.235-5.041,8.092C241.124,113.632,236.746,117.612,236.746,117.612z"/>
			
				<linearGradient id="SVGID_00000131338846668273140760000004736141272542492062_" gradientUnits="userSpaceOnUse" x1="221.0568" y1="114.5431" x2="221.831" y2="98.5431">
				<stop offset="0" style="stop-color: rgb(255, 253, 45);"/>
				<stop offset="1" style="stop-color: rgb(255, 208, 108);"/>
			</linearGradient>
			<path style="fill:url(#SVGID_00000131338846668273140760000004736141272542492062_);" d="M228.946,117.612l-7.429-1.061     l-8.357-4.908c0,0,4.112-7.428,5.173-7.959c0,0,3.847,6.235,5.041,8.092C224.568,113.632,228.946,117.612,228.946,117.612z"/>
		</g>
	</g>
	<g>
		<g>
			
				<linearGradient id="SVGID_00000032642600534893799610000006159695818981833613_" gradientUnits="userSpaceOnUse" x1="331.4441" y1="156.5134" x2="330.2828" y2="123.8037">
				<stop offset="0" style="stop-color: rgb(255, 253, 45);"/>
				<stop offset="1" style="stop-color: rgb(255, 208, 108);"/>
			</linearGradient>
			<path style="fill:url(#SVGID_00000032642600534893799610000006159695818981833613_);" d="M352.252,148.26h-43.369     c-1.871,0-3.387-1.516-3.387-3.387v-26.085c0-1.871,1.516-3.387,3.387-3.387h43.369c1.871,0,3.387,1.516,3.387,3.387v26.085     C355.639,146.743,354.123,148.26,352.252,148.26z"/>
			
				<linearGradient id="SVGID_00000164491066385612425440000006634966473443366836_" gradientUnits="userSpaceOnUse" x1="330.5639" y1="130.6441" x2="330.3704" y2="112.257">
				<stop offset="0" style="stop-color: rgb(255, 253, 45);"/>
				<stop offset="1" style="stop-color: rgb(255, 208, 108);"/>
			</linearGradient>
			<path style="fill:url(#SVGID_00000164491066385612425440000006634966473443366836_);" d="M331.101,135.244l23.565-18.829     c-0.615-0.625-1.468-1.015-2.414-1.015h-43.369c-1.117,0-2.1,0.548-2.717,1.382L331.101,135.244z"/>
		</g>
		<g>
			
				<linearGradient id="SVGID_00000031189568209041512350000016752408225881410220_" gradientUnits="userSpaceOnUse" x1="354.2167" y1="120.2189" x2="354.2167" y2="110.1377">
				<stop offset="0" style="stop-color: rgb(226, 241, 53);"/>
				<stop offset="1" style="stop-color: rgb(69, 89, 66);"/>
			</linearGradient>
			<path style="fill:url(#SVGID_00000031189568209041512350000016752408225881410220_);" d="M358.658,121.517h-8.882     c-1.318,0-2.387-1.069-2.387-2.387v-7.459c0-1.318,1.069-2.387,2.387-2.387h8.882c1.318,0,2.387,1.069,2.387,2.387v7.459     C361.045,120.448,359.976,121.517,358.658,121.517z"/>
			<g>
				<path style="fill:#FFFFFF;" d="M353.875,117.53h-3.111v-0.655l1.117-1.129c0.331-0.339,0.547-0.574,0.648-0.705      c0.102-0.131,0.175-0.253,0.219-0.364c0.045-0.111,0.067-0.227,0.067-0.347c0-0.179-0.049-0.312-0.147-0.399      s-0.23-0.131-0.395-0.131c-0.173,0-0.34,0.039-0.502,0.119c-0.163,0.079-0.332,0.192-0.509,0.338l-0.512-0.606      c0.22-0.187,0.401-0.318,0.545-0.396c0.145-0.077,0.302-0.137,0.472-0.178c0.171-0.042,0.361-0.063,0.573-0.063      c0.277,0,0.523,0.051,0.736,0.152c0.213,0.102,0.379,0.244,0.496,0.426c0.118,0.183,0.177,0.392,0.177,0.627      c0,0.205-0.036,0.397-0.108,0.577c-0.071,0.18-0.184,0.364-0.335,0.552c-0.15,0.189-0.417,0.458-0.799,0.807l-0.572,0.539v0.042      h1.939V117.53z"/>
				<path style="fill:#FFFFFF;" d="M355.942,114.686c0.431,0,0.773,0.121,1.027,0.362c0.255,0.242,0.383,0.572,0.383,0.993      c0,0.497-0.153,0.88-0.46,1.148c-0.307,0.268-0.745,0.402-1.315,0.402c-0.495,0-0.895-0.08-1.199-0.241v-0.813      c0.16,0.085,0.347,0.155,0.56,0.208c0.214,0.054,0.415,0.081,0.607,0.081c0.574,0,0.861-0.236,0.861-0.706      c0-0.449-0.297-0.673-0.892-0.673c-0.108,0-0.227,0.011-0.356,0.032c-0.13,0.021-0.235,0.044-0.316,0.069l-0.375-0.201      l0.168-2.268h2.414v0.798h-1.589l-0.083,0.874l0.106-0.021C355.606,114.7,355.76,114.686,355.942,114.686z"/>
			</g>
		</g>
	</g>
</g>
</svg>