<?xml version="1.0" encoding="UTF-8" standalone="no"?>
<svg
   version="1.1"
   x="0px"
   y="0px"
   viewBox="0 0 500 500"
   xml:space="preserve"
   width="500"
   height="500"
   id="svg1834"
   sodipodi:docname="Firefly yellow and black 77485.svg"
   xmlns:inkscape="http://www.inkscape.org/namespaces/inkscape"
   xmlns:sodipodi="http://sodipodi.sourceforge.net/DTD/sodipodi-0.dtd"
   xmlns="http://www.w3.org/2000/svg"
   xmlns:svg="http://www.w3.org/2000/svg"><defs
   id="defs1838" /><sodipodi:namedview
   id="namedview1836"
   pagecolor="#ffffff"
   bordercolor="#000000"
   borderopacity="0.25"
   inkscape:showpageshadow="2"
   inkscape:pageopacity="0.0"
   inkscape:pagecheckerboard="0"
   inkscape:deskcolor="#d1d1d1"
   showgrid="false" />

<g
   id="OBJECTS">
	<g
   id="g952">
		<path
   style="fill:#ffd527"
   d="m 218.389,165.49 c -15.37,-55.757 -84.633,-73.718 -124.326,-32.048 -0.57,0.598 -1.139,1.207 -1.709,1.825 -56.907,61.86 -30.024,214.303 88.74,252.94 118.764,38.637 242.294,-31.918 249.234,-94.99 6.94,-63.072 -47.852,-82.89 -132.882,-65.254 -48.042,9.964 -69.489,-27.763 -79.057,-62.473 z"
   id="path940" />
		<path
   style="fill:#ffd527"
   d="m 317.184,175.027 c -15.89,2.587 -20.294,16.665 -8.025,26.652 4.055,3.301 9.847,6.044 18.097,7.412 31.429,5.214 48.106,-8.691 35.508,-26.72 -7.774,-11.127 -29.832,-9.908 -45.58,-7.344 z"
   id="path942" />
		<path
   style="fill:#ffd527"
   d="m 71.265,288.974 c -7.803,-14.082 -22.541,-13.471 -27.796,1.45 -1.737,4.932 -2.362,11.309 -0.863,19.537 5.709,31.342 24.431,42.342 37.144,24.395 7.847,-11.077 -0.752,-31.426 -8.485,-45.382 z"
   id="path944" />
		<path
   style="fill:#ffd527"
   d="m 441.528,300.547 c -1.464,7.663 4.864,13.091 12.034,10.138 2.37,-0.976 4.76,-2.858 6.887,-6.166 8.101,-12.602 3.998,-23.412 -7.281,-22.302 -6.963,0.685 -10.19,10.736 -11.64,18.33 z"
   id="path946" />
		<path
   style="fill:#ffd527"
   d="m 401.357,219.682 c 7.637,1.594 13.172,-4.64 10.341,-11.859 -0.936,-2.386 -2.776,-4.808 -6.047,-6.991 -12.462,-8.314 -23.34,-4.396 -22.423,6.9 0.566,6.973 10.561,10.371 18.129,11.95 z"
   id="path948" />
		<path
   style="fill:#ffd527"
   d="m 215.736,137.68 c 6.047,4.93 13.83,1.942 14.639,-5.77 0.268,-2.549 -0.252,-5.547 -2.152,-8.99 -7.238,-13.117 -18.699,-14.644 -23.083,-4.193 -2.706,6.452 4.604,14.068 10.596,18.953 z"
   id="path950" />
	</g>
	<g
   id="g1004">
		<g
   id="g960">
			<path
   style="fill:#c08018"
   d="m 457.557,412.874 c 2.623,0.438 5.359,-0.296 7.186,-2.228 1.191,-1.259 2,-2.814 1.999,-4.304 0,-0.021 0,-0.043 0,-0.064 -0.035,-10.689 13.098,-9.978 17.314,-23.047 4.216,-13.069 -12.445,-14.17 -21.962,-6.101 -6.842,5.802 -15.054,-2.303 -25,4.464 -8.635,5.873 -3.826,20.334 -17.99,15.813 -4.523,-1.445 -8.573,-0.052 -11.991,2.513 -3.935,2.953 -6.497,7.092 -7.564,11.587 l 1.128,0.797 c 27.938,17.123 40.527,-2.161 56.88,0.57 z"
   id="path954" />
			<g
   id="g958">
				<path
   style="fill:#696649"
   d="m 429.875,412.303 37.037,-23.774 c 0.496,-0.318 0.639,-0.979 0.321,-1.474 -0.318,-0.496 -0.979,-0.639 -1.474,-0.321 l -39.833,25.569 z"
   id="path956" />
			</g>
		</g>
		<g
   id="g978">
			<g
   id="g964">
				<path
   style="fill:#474743"
   d="m 427.88,341.573 c -1.563,-23.303 -1.821,-47.739 -0.086,-63.941 2.266,-21.167 7.391,-35.902 15.234,-43.794 0.52,-0.523 1.365,-0.526 1.889,-0.006 0.523,0.52 0.526,1.366 0.006,1.889 -13.711,13.797 -18.641,50.844 -14.286,107.21 z"
   id="path962" />
			</g>
			<path
   style="fill:#696649"
   d="m 431.386,258.932 c 0,0 -11.164,-0.018 -10.366,-19.645 0,0 17.081,4.873 10.366,19.645 z"
   id="path966" />
			<path
   style="fill:#696649"
   d="m 430.451,269.029 c 0,0 -0.604,-11.148 19.038,-11.443 0,0 -3.916,17.326 -19.038,11.443 z"
   id="path968" />
			<path
   style="fill:#696649"
   d="m 438.988,241.498 c 0,0 -4.286,-10.309 14.133,-17.136 0.001,0 2.086,17.641 -14.133,17.136 z"
   id="path970" />
			<path
   style="fill:#696649"
   d="m 427.944,289.286 c 0,0 -10.512,3.76 -16.4,-14.981 0,0 17.723,-1.192 16.4,14.981 z"
   id="path972" />
			<path
   style="fill:#696649"
   d="m 428.549,299.717 c 0,0 -2.522,-10.876 16.772,-14.563 0,0 -0.861,17.742 -16.772,14.563 z"
   id="path974" />
			<path
   style="fill:#696649"
   d="m 427.958,314.081 c 0,0 -10.439,3.958 -16.681,-14.667 0,0 17.697,-1.527 16.681,14.667 z"
   id="path976" />
		</g>
		<g
   id="g986">
			<path
   style="fill:#696649"
   d="m 103.982,393.508 -3.042,-0.12 -1.613,-0.065 -4.57,-0.183 c 0,0 -42.238,-71.705 -15.778,-95.089 8.146,-7.199 22.387,-1.23 19.239,31.856 -2.918,30.671 5.764,63.601 5.764,63.601 z"
   id="path980" />
			<g
   id="g984">
				<path
   style="fill:#474743"
   d="m 100.94,393.388 -1.613,-0.065 c -7.374,-17.374 -11.096,-36.037 -12.944,-49.137 -2.194,-15.555 -2.296,-26.85 -2.296,-26.962 -0.004,-0.403 0.321,-0.733 0.724,-0.734 0.403,-0.004 0.733,0.321 0.735,0.723 10e-4,0.113 0.101,11.329 2.286,26.793 1.859,13.164 5.621,31.98 13.108,49.382 z"
   id="path982" />
			</g>
		</g>
		<g
   id="g994">
			<path
   style="fill:#c08018"
   d="m 112.373,407.874 -4.131,1.534 -2.192,0.813 -6.209,2.302 c 0,0 -96.395,-72.28 -74.066,-118.269 6.874,-14.158 29.229,-14.118 43.458,31.847 13.191,42.608 43.14,81.773 43.14,81.773 z"
   id="path988" />
			<g
   id="g992">
				<path
   style="fill:#696649"
   d="m 108.242,409.408 -2.192,0.813 C 86.516,391.115 71.143,368.25 61.375,351.775 49.776,332.212 43.346,317.177 43.285,317.027 c -0.23,-0.537 0.021,-1.158 0.558,-1.384 0.537,-0.23 1.158,0.021 1.385,0.556 0.064,0.151 6.448,15.082 17.983,34.528 9.819,16.554 25.33,39.601 45.031,58.681 z"
   id="path990" />
			</g>
		</g>
		<g
   id="g1002">
			<path
   style="fill:#696649"
   d="m 441.867,411.964 c -0.047,-1.666 -0.243,-3.349 -0.608,-5.019 -3.466,-15.864 5.962,-18.857 18.393,-23.867 12.427,-5.011 13.906,-19.894 5.105,-32.261 -8.803,-12.37 7.013,-22.311 1.19,-40.926 -5.824,-18.615 -26.05,-6.233 -30.475,10.928 -3.179,12.339 -19.35,9.669 -25.338,25.671 -5.202,13.891 12.232,26.721 -7.903,33.089 -6.431,2.031 -9.986,6.967 -11.848,12.744 -2.143,6.651 -1.722,13.553 0.725,19.64 h 50.759 z"
   id="path996" />
			<g
   id="g1000">
				<path
   style="fill:#474743"
   d="m 417.24,411.964 33.165,-81.873 c 0.314,-0.775 -0.061,-1.659 -0.837,-1.973 -0.775,-0.314 -1.659,0.061 -1.973,0.837 l -33.625,83.009 z"
   id="path998" />
			</g>
		</g>
	</g>
	<g
   id="g1142">
		<path
   style="fill:#3b3b39"
   d="m 140.905,164.441 c 0,0 0.697,-14.74 -8.268,-17.571 -13.96,-4.409 -17.846,2.831 -20,7.615 -2.761,6.131 -1.584,18.157 6.745,19.318 12.434,1.734 20.755,-5.243 21.523,-9.362 z"
   id="path1006" />
		<path
   style="fill:#3b3b39"
   d="m 149.904,213.732 c 7.255,0 13.522,-5.084 15.008,-12.186 1.07,-5.115 2.115,-9.643 2.115,-12.187 v -0.066 c 0.065,-0.804 0.101,-1.608 0.107,-2.4 0.095,-11.631 -7.075,-32.874 -32.297,-29.498 0,0 -20.928,2.388 -23.31,22.839 0,0 -0.992,9.435 -1.651,16.267 -0.012,0.121 -0.024,0.241 -0.036,0.36 -0.92,9.03 6.181,16.869 15.257,16.869 h 24.807 z"
   id="path1008" />
		<g
   id="g1016">
			<g
   id="g1014">
				<path
   style="fill:#696649"
   d="m 179.847,238.041 c 0,0 4.46,35.331 9.554,53.469 0,0 7.238,-3.371 16.711,-7.948 10.272,-4.962 25.039,-14.016 25.039,-14.016 l 3.732,8.99 c 0,0 -38.145,36.001 -50.78,38.04 -12.635,2.038 -20.379,-43.204 -20.379,-43.204 z"
   id="path1010" />
				<path
   style="fill:#f9ae00"
   d="m 230.369,270.6 c 0,0 -1.048,-5.02 1.198,-8.417 2.246,-3.397 5.666,-9.757 9.681,-11.085 3.36,-1.111 -1.597,4.56 -1.745,8.158 0,0 4.997,-0.627 8.601,-1.798 3.17,-1.03 9.443,-2.315 12.352,-2.887 0.797,-0.157 1.309,0.848 0.695,1.38 -0.992,0.86 -3.065,1.941 -7.352,2.974 0,0 10.449,-1.978 11.533,-0.378 1.084,1.6 -12.025,3.834 -12.025,3.834 0,0 10.171,-0.602 10.436,0.994 0.161,0.971 -10.376,3.196 -10.376,3.196 0,0 9.616,0.258 7.29,1.776 -0.677,0.442 -19.293,2.537 -25.774,10.189 0,10e-4 -4.36,-4.506 -4.514,-7.936 z"
   id="path1012" />
			</g>
		</g>
		<g
   id="g1024">
			<g
   id="g1022">
				<path
   style="fill:#696649"
   d="m 115.526,231.082 c 0,0 -21.34,6.294 -39.718,10.44 0,0 -0.477,-7.97 -0.958,-18.48 -0.522,-11.396 0.417,-28.692 0.417,-28.692 l -9.683,0.994 c 0,0 -13.521,50.679 -9.304,62.762 4.218,12.084 57.776,-4.843 57.776,-4.843 z"
   id="path1018" />
				<path
   style="fill:#f9ae00"
   d="m 74.712,195.54 c 0,0 4.914,-1.466 6.833,-5.058 1.92,-3.592 7.223,-10.825 3.95,-13.503 -1.195,-0.978 -2.056,3.288 -5.151,5.13 0,0 -1.825,-4.693 -2.51,-8.421 -0.603,-3.279 -2.456,-9.407 -3.336,-12.238 -0.241,-0.775 -1.369,-0.748 -1.544,0.045 -0.284,1.282 -0.249,3.62 0.882,7.882 0,0 -3.23,-10.132 -5.154,-10.324 -1.923,-0.192 2.348,12.401 2.348,12.401 0,0 -4.309,-9.233 -5.838,-8.706 -0.931,0.32 2.124,10.647 2.124,10.647 0,0 -4.801,-8.336 -5.03,-5.568 -0.067,0.806 6.946,18.177 3.298,27.518 0,-0.001 6.038,1.691 9.128,0.195 z"
   id="path1020" />
			</g>
		</g>
		<g
   id="g1076">
			<g
   id="g1066">
				<path
   style="fill:#c08018"
   d="m 179.049,374.931 0.17,0.755 c -16.617,11.251 -78.775,3.569 -78.775,3.569 0.107,-1.304 0.245,-2.668 0.427,-4.078 0.194,-1.573 0.435,-3.201 0.711,-4.884 0.751,-4.525 1.758,-9.417 2.889,-14.452 0.364,-1.585 0.727,-3.193 1.11,-4.809 1.122,-4.805 2.316,-9.678 3.446,-14.424 0.391,-1.632 0.775,-3.241 1.146,-4.841 0.518,-2.221 1.008,-4.406 1.478,-6.524 0.612,-2.818 1.158,-5.525 1.616,-8.074 0.308,-1.715 0.577,-3.359 0.782,-4.92 0.237,-1.652 0.399,-3.213 0.498,-4.659 -0.988,-3.651 -1.909,-7.228 -2.766,-10.697 -0.427,-1.766 -0.846,-3.493 -1.257,-5.201 -1.277,-5.465 -2.399,-10.666 -3.379,-15.538 -0.348,-1.77 -0.692,-3.493 -1.004,-5.173 -1.087,-5.746 -1.964,-10.946 -2.671,-15.483 -0.273,-1.81 -0.53,-3.497 -0.755,-5.09 -0.249,-1.743 -0.462,-3.355 -0.648,-4.817 -0.834,-6.434 -1.122,-10.081 -1.122,-10.081 0.146,-0.118 0.3,-0.225 0.458,-0.34 1.885,-1.34 4.833,-2.6 8.109,-3.719 3.458,-1.186 7.283,-2.217 10.654,-3.031 0.51,-0.122 1.012,-0.241 1.502,-0.356 4.43,-1.035 7.742,-1.636 7.742,-1.636 15.072,3.158 19.372,1.126 19.372,1.126 l 7.663,2.26 0.901,0.316 5.584,1.96 0.225,0.083 10.014,3.525 6.678,2.343 -2.592,11.954 -1.13,5.22 -3.414,15.736 -1.122,5.201 -3.399,15.681 -1.118,5.149 -2.814,12.993 0.561,2.482 1.099,4.817 1.743,7.659 1.585,6.927 1.091,4.801 3.28,14.444 1.095,4.774 3.252,14.278 z"
   id="path1026" />
				<path
   style="fill:#f9ae00"
   d="m 157.345,230.13 c -1.604,9.421 -6.172,18.899 -15.668,19.922 -11.472,1.241 -17.42,-13.149 -20.008,-21.989 4.43,-1.035 9.021,-2.047 9.021,-2.047 15.072,3.157 17.98,1.234 17.98,1.234 l 7.774,2.564 z"
   id="path1028" />
				<g
   id="g1032">
					<path
   style="fill:#ffffff"
   d="m 140.511,242.138 c -12.023,0 -14.898,-14.849 -14.926,-15.002 -0.059,-0.322 0.154,-0.631 0.475,-0.69 0.323,-0.058 0.631,0.153 0.691,0.475 0.11,0.596 2.837,14.608 14.459,14.014 10.171,-0.514 10.769,-11.802 10.79,-12.283 0.014,-0.327 0.286,-0.583 0.617,-0.567 0.327,0.014 0.581,0.29 0.567,0.616 -0.005,0.128 -0.658,12.848 -11.914,13.417 -0.257,0.014 -0.51,0.02 -0.759,0.02 z"
   id="path1030" />
				</g>
				<path
   style="fill:#696649"
   d="m 118.943,238.044 c 0,1.621 -1.314,2.935 -2.935,2.935 -1.621,0 -2.935,-1.314 -2.935,-2.935 0,-1.621 1.314,-2.935 2.935,-2.935 1.621,0 2.935,1.314 2.935,2.935 z"
   id="path1034" />
				<path
   style="fill:#696649"
   d="m 113.065,252.363 c 0,1.621 -1.314,2.935 -2.935,2.935 -1.621,0 -2.935,-1.314 -2.935,-2.935 0,-1.621 1.314,-2.935 2.935,-2.935 1.62,0.001 2.935,1.315 2.935,2.935 z"
   id="path1036" />
				<path
   style="fill:#696649"
   d="m 131.803,259.133 c 0,1.621 -1.314,2.935 -2.935,2.935 -1.621,0 -2.935,-1.314 -2.935,-2.935 0,-1.621 1.314,-2.935 2.935,-2.935 1.622,0 2.935,1.315 2.935,2.935 z"
   id="path1038" />
				<path
   style="fill:#696649"
   d="m 118.733,267.139 c 0.601,1.505 -0.131,3.213 -1.637,3.814 -1.505,0.601 -3.213,-0.132 -3.814,-1.637 -0.601,-1.505 0.132,-3.213 1.637,-3.814 1.505,-0.601 3.213,0.132 3.814,1.637 z"
   id="path1040" />
				<path
   style="fill:#696649"
   d="m 144.174,272.559 c 0,1.621 -1.314,2.935 -2.935,2.935 -1.621,0 -2.935,-1.314 -2.935,-2.935 0,-1.621 1.314,-2.935 2.935,-2.935 1.621,0 2.935,1.314 2.935,2.935 z"
   id="path1042" />
				<path
   style="fill:#696649"
   d="m 162.892,278.607 c 0,1.621 -1.314,2.935 -2.935,2.935 -1.621,0 -2.935,-1.314 -2.935,-2.935 0,-1.621 1.314,-2.935 2.935,-2.935 1.621,0 2.935,1.314 2.935,2.935 z"
   id="path1044" />
				<path
   style="fill:#696649"
   d="m 166.658,240.978 c 0,1.621 -1.314,2.935 -2.935,2.935 -1.621,0 -2.935,-1.314 -2.935,-2.935 0,-1.621 1.314,-2.935 2.935,-2.935 1.621,0.001 2.935,1.314 2.935,2.935 z"
   id="path1046" />
				<path
   style="fill:#696649"
   d="m 145.361,291.3 c 0,1.621 -1.314,2.935 -2.935,2.935 -1.621,0 -2.935,-1.314 -2.935,-2.935 0,-1.621 1.314,-2.935 2.935,-2.935 1.621,10e-4 2.935,1.315 2.935,2.935 z"
   id="path1048" />
				<path
   style="fill:#696649"
   d="m 127.281,300.4 c 0,1.621 -1.314,2.935 -2.935,2.935 -1.621,0 -2.935,-1.314 -2.935,-2.935 0,-1.621 1.314,-2.935 2.935,-2.935 1.621,0.001 2.935,1.315 2.935,2.935 z"
   id="path1050" />
				<path
   style="fill:#696649"
   d="m 125.175,283.828 c 0,1.621 -1.314,2.935 -2.935,2.935 -1.621,0 -2.935,-1.314 -2.935,-2.935 0,-1.621 1.314,-2.935 2.935,-2.935 1.621,0 2.935,1.314 2.935,2.935 z"
   id="path1052" />
				<path
   style="fill:#696649"
   d="m 154.088,259.901 c 0,1.621 -1.314,2.935 -2.935,2.935 -1.621,0 -2.935,-1.314 -2.935,-2.935 0,-1.621 1.314,-2.935 2.935,-2.935 1.621,0 2.935,1.314 2.935,2.935 z"
   id="path1054" />
				<path
   style="fill:#696649"
   d="m 170.314,256.198 c 0,1.621 -1.314,2.935 -2.935,2.935 -1.621,0 -2.935,-1.314 -2.935,-2.935 0,-1.621 1.314,-2.935 2.935,-2.935 1.621,0 2.935,1.315 2.935,2.935 z"
   id="path1056" />
				<path
   style="fill:#696649"
   d="m 159.957,296.156 c 0,1.621 -1.314,2.935 -2.935,2.935 -1.621,0 -2.935,-1.314 -2.935,-2.935 0,-1.621 1.314,-2.935 2.935,-2.935 1.621,0 2.935,1.314 2.935,2.935 z"
   id="path1058" />
				<path
   style="fill:#696649"
   d="m 160.744,319.376 c 0,1.621 -1.314,2.935 -2.935,2.935 -1.621,0 -2.935,-1.314 -2.935,-2.935 0,-1.621 1.314,-2.935 2.935,-2.935 1.622,0 2.935,1.314 2.935,2.935 z"
   id="path1060" />
				<path
   style="fill:#696649"
   d="m 145.806,309.688 c 0.601,1.505 -0.131,3.213 -1.637,3.814 -1.505,0.601 -3.213,-0.132 -3.814,-1.637 -0.601,-1.505 0.132,-3.213 1.637,-3.814 1.506,-0.601 3.213,0.132 3.814,1.637 z"
   id="path1062" />
				<path
   style="fill:#696649"
   d="m 125.827,318.288 c 0.601,1.505 -0.132,3.213 -1.637,3.814 -1.505,0.601 -3.213,-0.132 -3.814,-1.637 -0.601,-1.505 0.132,-3.213 1.637,-3.814 1.505,-0.601 3.213,0.131 3.814,1.637 z"
   id="path1064" />
			</g>
			<polygon
   style="fill:#c08018"
   points="179.218,375.686 175.108,375.871 120.617,378.342 100.445,379.253 99.148,389.797 98.541,394.709 96.75,409.275 96.421,411.943 185.267,411.943 184.659,408.286 182.291,394.102 181.479,389.243 "
   id="polygon1068" />
			<g
   id="g1074">
				<g
   id="g1072">
					<path
   style="fill:#3b3b39"
   d="m 185.264,411.943 -0.556,-3.305 -0.046,-0.347 -0.393,-2.335 -0.393,-2.312 -1.595,-9.548 -0.462,-2.82 -0.347,-2.034 -0.046,-0.301 -2.058,-12.369 -0.139,-0.879 -0.185,-0.763 -0.162,-0.671 -0.925,-4.092 -1.826,-7.999 -0.532,-2.289 -0.902,-4 -1.087,-4.786 -0.74,-3.283 -0.532,-2.289 -2.011,-8.855 -0.74,-3.237 -0.347,-1.572 -0.162,-0.717 -1.41,-6.219 c -22.148,6.543 -45.614,2.659 -56.018,0.324 -0.462,2.104 -0.971,4.3 -1.48,6.52 -0.116,0.486 -0.231,0.971 -0.347,1.456 -0.185,0.763 -0.37,1.526 -0.555,2.289 -0.069,0.37 -0.162,0.717 -0.254,1.087 -0.855,3.63 -1.757,7.329 -2.636,11.005 -0.185,0.763 -0.347,1.526 -0.532,2.266 -0.093,0.393 -0.185,0.763 -0.277,1.156 -0.37,1.618 -0.74,3.237 -1.11,4.809 -0.462,2.104 -0.902,4.161 -1.318,6.196 -0.162,0.763 -0.324,1.503 -0.462,2.243 -0.416,2.058 -0.786,4.069 -1.11,6.011 -0.278,1.688 -0.509,3.306 -0.694,4.901 -0.069,0.485 -0.116,0.971 -0.185,1.433 -0.069,0.786 -0.162,1.549 -0.231,2.312 0,0.116 -0.023,0.208 -0.023,0.324 l -1.295,10.542 -0.208,1.641 -0.277,2.289 -0.116,0.971 -1.433,11.536 -0.278,2.312 -0.092,0.74 -0.32,2.657 h 88.847 z"
   id="path1070" />
				</g>
			</g>
		</g>
		<g
   id="g1140">
			<g
   id="g1120">
				<g
   id="g1092">
					<path
   style="fill:#db8e00"
   d="m 158.462,190.701 c 0,0 3.603,-4.564 6.282,-0.79 2.679,3.774 -1.109,14.922 -7.667,12.201 z"
   id="path1078" />
					<g
   id="g1082">
						<path
   style="fill:#d46800"
   d="m 158.508,198.667 c 0.242,0 0.465,-0.152 0.533,-0.385 1.016,-3.441 4.769,-4.837 4.807,-4.85 0.285,-0.104 0.429,-0.408 0.321,-0.679 -0.108,-0.272 -0.428,-0.409 -0.714,-0.306 -0.175,0.063 -4.311,1.588 -5.481,5.551 -0.083,0.28 0.089,0.57 0.384,0.649 0.05,0.014 0.101,0.02 0.15,0.02 z"
   id="path1080" />
					</g>
					<g
   id="g1086">
						<path
   style="fill:#d46800"
   d="m 162.296,196.933 c 0.103,0 0.207,-0.027 0.3,-0.084 0.257,-0.158 0.331,-0.483 0.166,-0.728 -0.027,-0.041 -0.691,-1.003 -2.08,-1.594 -0.278,-0.119 -0.607,0 -0.732,0.266 -0.125,0.265 0,0.577 0.28,0.696 1.074,0.457 1.596,1.195 1.601,1.202 0.105,0.157 0.283,0.242 0.465,0.242 z"
   id="path1084" />
					</g>
					<g
   id="g1090">
						<path
   style="fill:#ffffff"
   d="m 156.84,202.04 c -0.62,0.69 -1.001,1.599 -1.001,2.596 0,2.153 1.752,3.905 3.905,3.905 2.153,0 3.905,-1.752 3.905,-3.905 0,-1.241 -0.581,-2.346 -1.486,-3.06 -0.454,-0.359 -0.988,-0.619 -1.572,-0.749 -0.098,-0.264 -0.05,-0.511 0.14,-0.739 0.747,0.163 1.426,0.504 1.993,0.978 1.025,0.852 1.677,2.138 1.677,3.572 0,2.569 -2.088,4.657 -4.657,4.657 -2.567,0 -4.657,-2.088 -4.657,-4.657 0,-1.107 0.393,-2.119 1.041,-2.917 0.237,0.105 0.474,0.212 0.712,0.319 z"
   id="path1088" />
					</g>
				</g>
				<path
   style="fill:#f9ae00"
   d="m 130.69,214.02 v 13.675 c 0,0 6.356,4.904 11.315,5.33 4.954,0.432 6.666,-5.414 6.666,-5.414 v -12.727 z"
   id="path1094" />
				<path
   style="fill:#db8e00"
   d="m 130.69,215.36 v 5.455 c 3.327,3.692 9.234,5.001 17.979,3.71 l 0.002,-8.301 z"
   id="path1096" />
				<path
   style="fill:#f9ae00"
   d="m 160.627,195.9 c -0.158,1.32 -0.345,2.664 -0.582,4.002 -1.571,8.893 -7.196,18.498 -14.299,20.11 -15.337,3.481 -21.706,-8.565 -24.158,-17.452 -0.271,-0.987 0.237,-2.118 0.023,-3.287 -0.508,-2.769 -1.627,-5.915 -1.881,-9.018 -0.175,-2.15 -0.299,-4.271 -0.39,-6.187 -0.249,-5.404 2.881,-10.371 7.774,-12.31 7.05,-2.804 17.756,-5.025 27.897,0.923 3.746,2.197 6.096,6.263 6.181,10.715 0.062,3.401 -0.023,7.847 -0.565,12.504 z"
   id="path1098" />
				<g
   id="g1102">
					<path
   style="fill:#db8e00"
   d="m 141.177,202.781 c -0.286,0 -0.538,-0.206 -0.587,-0.497 -0.054,-0.325 0.164,-0.632 0.489,-0.686 l 2.046,-0.344 -2.819,-7.507 c -0.116,-0.308 0.04,-0.651 0.348,-0.767 0.308,-0.114 0.652,0.04 0.767,0.348 l 3.327,8.861 -3.472,0.583 c -0.033,0.006 -0.066,0.009 -0.099,0.009 z"
   id="path1100" />
				</g>
				<path
   style="fill:#3b3b39"
   d="m 148.516,192.848 c 0,1.312 0.676,2.376 1.511,2.376 0.834,0 1.511,-1.064 1.511,-2.376 0,-1.312 -0.676,-2.376 -1.511,-2.376 -0.835,0 -1.511,1.064 -1.511,2.376 z"
   id="path1104" />
				<path
   style="fill:#3b3b39"
   d="m 131.817,192.848 c 0,1.312 0.676,2.376 1.511,2.376 0.835,0 1.511,-1.064 1.511,-2.376 0,-1.312 -0.676,-2.376 -1.511,-2.376 -0.835,0 -1.511,1.064 -1.511,2.376 z"
   id="path1106" />
				<path
   style="fill:#3b3b39"
   d="m 154.468,186.616 c -1.215,-0.237 -3.671,-0.628 -6.287,-0.535 -0.688,0.024 -1.24,0.543 -1.145,1.091 l 0.002,0.014 c 0.076,0.437 0.545,0.732 1.095,0.69 1.783,-0.134 6.447,-0.105 8.618,0.541 0.06,-0.314 -0.15,-0.648 -0.456,-0.94 -0.465,-0.444 -1.117,-0.723 -1.827,-0.861 z"
   id="path1108" />
				<path
   style="fill:#3b3b39"
   d="m 130.18,186.902 c 1.211,-0.253 3.662,-0.678 6.279,-0.622 0.689,0.015 1.247,0.526 1.16,1.075 l -0.002,0.014 c -0.07,0.439 -0.534,0.739 -1.085,0.705 -1.785,-0.11 -6.447,-0.017 -8.609,0.659 -0.065,-0.314 0.141,-0.65 0.444,-0.947 0.456,-0.448 1.105,-0.736 1.813,-0.884 z"
   id="path1110" />
				<path
   style="fill:#ffffff"
   d="m 148.516,206.327 c -0.441,2.089 -1.909,5.931 -6.853,5.931 -4.956,0 -6.346,-3.511 -6.824,-5.931 z"
   id="path1112" />
				<g
   id="g1116">
					<path
   style="fill:#db8e00"
   d="m 141.733,215.848 c 1.427,0 2.686,-0.768 2.74,-0.801 0.274,-0.17 0.359,-0.529 0.19,-0.804 -0.169,-0.274 -0.528,-0.359 -0.803,-0.191 v 0 c -0.01,0.006 -1.038,0.628 -2.126,0.628 -1.178,0 -2.233,-0.624 -2.243,-0.63 -0.277,-0.166 -0.635,-0.077 -0.801,0.199 -0.166,0.276 -0.078,0.634 0.197,0.801 0.053,0.033 1.334,0.798 2.846,0.798 z"
   id="path1114" />
				</g>
				<path
   style="fill:#3b3b39"
   d="m 161.247,194.504 c -0.143,0.12 -0.281,0.078 -0.41,-0.156 -2.026,-3.571 -0.122,-10.696 -6.117,-13.428 -4.566,-2.083 -6.205,-6.356 -6.205,-6.356 -1.044,1.787 -3.764,3.426 -3.764,3.426 0,0 -6.896,4.086 -14.062,6.847 -2.13,0.821 -3.647,1.654 -4.709,2.369 0.083,0.023 0.127,0.036 0.127,0.036 0,0 -1.984,3.223 -0.533,8.234 1.452,5.008 -0.416,13.272 -3.639,15.179 0.057,-0.14 2.475,-5.855 1.109,-10.517 -0.787,-2.673 -0.78,-6.925 -1.526,-9.474 -0.826,-0.569 -2.736,-1.528 -3.383,-1.913 -0.184,-2.192 -0.317,-4.353 -0.41,-6.306 -0.262,-5.509 3.036,-10.571 8.195,-12.55 7.431,-2.857 18.717,-5.119 29.407,0.943 3.948,2.239 6.426,6.384 6.517,10.922 0.066,3.464 -0.025,7.996 -0.597,12.744 z"
   id="path1118" />
			</g>
			<g
   id="g1138">
				<path
   style="fill:#f9ae00"
   d="m 121.519,190.664 c 0,0 -4.189,-5.083 -6.661,-1.418 -2.472,3.665 1.178,14.901 7.23,12.259 z"
   id="path1122" />
				<g
   id="g1126">
					<path
   style="fill:#ffffff"
   d="m 121.688,201.686 c 0.433,0.82 0.583,1.794 0.341,2.761 -0.522,2.089 -2.647,3.363 -4.736,2.841 -2.089,-0.523 -3.363,-2.647 -2.841,-4.736 0.301,-1.204 1.133,-2.135 2.185,-2.608 0.527,-0.238 1.108,-0.361 1.706,-0.346 0.104,-0.223 0.157,-0.465 0.043,-0.751 -0.764,-0.023 -1.506,0.143 -2.17,0.465 -1.201,0.578 -2.146,1.667 -2.493,3.058 -0.623,2.492 0.895,5.025 3.388,5.648 2.49,0.623 5.025,-0.895 5.648,-3.388 0.269,-1.074 0.133,-2.151 -0.302,-3.083 -0.257,0.047 -0.513,0.094 -0.769,0.139 z"
   id="path1124" />
				</g>
				<g
   id="g1130">
					<path
   style="fill:#db8e00"
   d="m 120.611,197.748 c -0.224,0 -0.429,-0.148 -0.492,-0.374 -0.938,-3.342 -4.4,-4.697 -4.435,-4.71 -0.263,-0.101 -0.396,-0.396 -0.296,-0.66 0.1,-0.264 0.395,-0.397 0.659,-0.297 0.162,0.061 3.978,1.542 5.058,5.391 0.076,0.272 -0.082,0.554 -0.354,0.631 -0.047,0.013 -0.094,0.019 -0.14,0.019 z"
   id="path1128" />
				</g>
				<g
   id="g1136">
					<g
   id="g1134">
						<path
   style="fill:#db8e00"
   d="m 117.116,196.065 c -0.095,0 -0.191,-0.026 -0.276,-0.081 -0.238,-0.153 -0.306,-0.469 -0.153,-0.707 0.026,-0.039 0.638,-0.974 1.92,-1.547 0.256,-0.116 0.56,0 0.676,0.258 0.115,0.258 0,0.56 -0.258,0.676 -0.991,0.443 -1.473,1.161 -1.477,1.167 -0.099,0.151 -0.264,0.234 -0.432,0.234 z"
   id="path1132" />
					</g>
				</g>
			</g>
		</g>
	</g>
	<g
   id="g1496">
		<path
   style="fill:#f9ae00"
   d="m 343.402,301.032 c -9.748,6.998 -24.999,11.798 -24.999,11.798 l -3.123,-11.232 -2.436,-8.763 -1.719,-6.176 -17.48,-0.012 c 0.947,3.276 1.925,6.622 2.908,9.918 1.261,4.251 2.519,8.414 3.715,12.252 1.687,5.401 3.243,10.151 4.497,13.545 0.293,0.792 0.634,1.654 1.015,2.574 2.336,6.311 4.223,13.156 13.14,8.862 7.85,-3.781 18.496,-9.022 23.816,-12.502 z"
   id="path1144" />
		<g
   id="g1150">
			<path
   style="fill:#db8e00"
   d="m 296.551,296.565 c 1.261,4.25 2.518,8.414 3.715,12.251 7.135,-0.756 12.075,-4.292 15.014,-7.218 l -2.436,-8.762 z"
   id="path1146" />
			<path
   style="fill:#4c4c46"
   d="m 292.84,235.262 c 0,0 18.235,43.489 26.078,57.579 0,0 -10.991,9.345 -21.697,9.6 0,0 -6.17,-47.747 -4.381,-67.179 z"
   id="path1148" />
		</g>
		<g
   id="g1164">
			<g
   id="g1156">
				<g
   id="g1154">
					<path
   style="fill:#c08018"
   d="m 250.145,411.974 c 0.183,-3.044 0.356,-5.94 0.514,-8.626 0.645,-10.978 1.061,-18.471 1.061,-18.471 l -4.299,-0.193 -2.424,-0.109 -29.229,-1.298 c 0,0 -0.532,8.38 -1.159,20.686 -0.128,2.518 -0.261,5.202 -0.394,8.01 h 35.93 z"
   id="path1152" />
				</g>
			</g>
			<path
   style="fill:#696649"
   d="m 247.42,384.685 4.299,0.193 c 0,0 -0.415,7.493 -1.061,18.471 -11.23,0.936 -23.491,1.317 -36.05,0.615 0.627,-12.306 1.159,-20.686 1.159,-20.686 l 29.229,1.298 z"
   id="path1158" />
			<g
   id="g1162">
				<path
   style="fill:#696649"
   d="m 245.885,411.974 c 0.678,-11.727 1.235,-21.772 1.537,-27.288 l -2.424,-0.109 c -0.303,5.54 -0.862,15.631 -1.542,27.397 z"
   id="path1160" />
			</g>
		</g>
		<g
   id="g1178">
			<g
   id="g1170">
				<g
   id="g1168">
					<path
   style="fill:#c08018"
   d="m 259.565,411.974 h 35.93 c -0.133,-2.809 -0.265,-5.492 -0.394,-8.01 -0.627,-12.306 -1.159,-20.686 -1.159,-20.686 l -29.229,1.298 -2.423,0.109 -4.299,0.193 c 0,0 0.415,7.493 1.06,18.471 0.158,2.685 0.331,5.582 0.514,8.625 z"
   id="path1166" />
				</g>
			</g>
			<path
   style="fill:#696649"
   d="m 262.29,384.685 -4.3,0.193 c 0,0 0.415,7.493 1.061,18.471 11.23,0.936 23.491,1.317 36.05,0.615 -0.627,-12.306 -1.159,-20.686 -1.159,-20.686 l -29.229,1.298 z"
   id="path1172" />
			<g
   id="g1176">
				<path
   style="fill:#696649"
   d="m 266.253,411.974 c -0.68,-11.766 -1.238,-21.857 -1.542,-27.397 l -2.424,0.109 c 0.302,5.516 0.858,15.561 1.537,27.288 z"
   id="path1174" />
			</g>
		</g>
		<g
   id="g1188">
			<g
   id="g1186">
				<g
   id="g1184">
					<g
   id="g1182">
						<path
   style="fill:#696649"
   d="m 209.424,362.437 c -0.004,0.602 0,1.196 0,1.781 0.013,10.69 0.066,18.974 0.119,23.041 10.325,2.797 20.649,4.604 30.978,5.439 0.471,0.035 0.932,0.07 1.403,0.105 0.251,0.018 0.501,0.035 0.752,0.048 0.554,0.04 1.112,0.075 1.662,0.101 0.616,0.04 1.227,0.07 1.847,0.101 7.027,0.325 14.053,0.198 21.085,-0.378 1.42,-0.119 2.832,-0.255 4.252,-0.409 0.092,-0.009 0.18,-0.018 0.273,-0.026 0.361,-0.04 0.721,-0.084 1.086,-0.128 0.22,-0.026 0.44,-0.053 0.655,-0.079 8.174,-0.976 16.349,-2.572 24.528,-4.775 0.022,-1.847 0.031,-4.586 0.031,-8.038 0,-0.642 0,-1.301 -0.004,-1.992 v -0.004 c -0.004,-4.938 -0.035,-11.085 -0.088,-18.033 -0.004,-0.594 -0.009,-1.192 -0.013,-1.799 -0.04,-4.626 -0.088,-9.581 -0.15,-14.748 -0.009,-0.598 -0.013,-1.196 -0.022,-1.798 -0.066,-5.299 -0.145,-10.804 -0.237,-16.393 -0.057,-3.412 -0.119,-6.855 -0.189,-10.303 -0.07,-3.491 -0.145,-6.987 -0.229,-10.461 -0.018,-0.756 -0.035,-1.513 -0.057,-2.269 -0.8,-32.852 -2.185,-63.047 -4.476,-66.415 -1.587,-2.331 -5.224,-5.07 -9.507,-7.831 -0.523,-0.334 -1.055,-0.673 -1.596,-1.011 -1.825,-1.139 -16.709,-6.196 -18.6,-7.308 l -15.733,-1.099 c -0.097,0.057 -15.14,5.132 -15.236,5.184 -0.646,0.369 -1.302,0.743 -1.948,1.117 -5.571,3.214 -11.068,6.6 -14.234,9.516 -0.462,0.422 -0.875,0.835 -1.227,1.24 -0.281,0.321 -0.532,0.633 -0.734,0.941 -0.189,0.277 -0.374,0.743 -0.55,1.381 -1.904,6.917 -2.902,34.1 -3.399,63.676 -0.035,2.12 -0.066,4.252 -0.097,6.389 -0.013,0.937 -0.026,1.878 -0.04,2.819 -0.013,0.646 -0.022,1.297 -0.026,1.944 -0.004,0.325 -0.009,0.646 -0.013,0.972 -0.022,1.609 -0.04,3.214 -0.053,4.811 -0.013,1.183 -0.026,2.361 -0.04,3.54 -0.142,14.895 -0.186,29.362 -0.173,41.151 z"
   id="path1180" />
					</g>
				</g>
			</g>
		</g>
		<g
   id="g1198">
			<g
   id="g1194">
				<path
   style="fill:#f9ae00"
   d="m 181.29,404.678 c -0.387,4.199 4.727,1.922 3.28,-6.587 -1.442,-8.508 2.656,-16.212 4.424,-15.966 1.772,0.251 -1.464,9.291 0.11,12.55 1.57,3.258 3.601,-3.074 5.624,-6.913 2.098,-3.988 1.974,-12.69 1.02,-18.899 -0.954,-6.213 10.303,-43.937 10.36,-54.868 l 1.372,-4.634 5.022,-16.969 7.862,-26.572 c 0,0 -4.71,-20.113 -12.651,-18.385 0,0 -4.204,14.009 -8.697,29.809 -0.761,2.682 -1.53,5.417 -2.291,8.144 -3.201,11.455 -6.209,22.764 -7.607,29.474 -3.694,17.716 -3.979,54.543 -3.979,54.543 0,0 -6.517,13.53 -6.671,19.55 -0.164,6.419 3.204,11.524 2.822,15.723 z"
   id="path1190" />
				<path
   style="fill:#db8e00"
   d="m 196.724,285.386 10.756,23.974 5.022,-16.969 -13.486,-15.148 c -0.762,2.682 -1.531,5.417 -2.292,8.143 z"
   id="path1192" />
			</g>
			<path
   style="fill:#696649"
   d="m 196.191,278.245 c 4.718,8.091 9.516,16.138 14.295,24.198 1.574,-5.272 3.206,-10.333 4.736,-14.986 0.004,-0.013 0.009,-0.022 0.013,-0.035 0.611,-1.86 1.209,-3.654 1.781,-5.369 0.009,-0.031 0.018,-0.062 0.031,-0.088 0.198,-0.602 0.391,-1.196 0.589,-1.776 v -0.004 c 2.282,-6.899 4.05,-12.383 4.555,-15.579 1.363,-8.605 -2.352,-25.464 -7.585,-28.789 v 0 c -0.136,0.303 -0.549,-0.633 -0.795,-0.061 -0.919,2.124 -5,7.37 -7.019,12.479 -0.259,0.651 -0.523,1.328 -0.796,2.018 -2.924,7.514 -6.499,17.289 -9.805,27.992 z"
   id="path1196" />
		</g>
		<g
   id="g1430">
			<g
   id="g1204">
				<g
   id="g1202">
					<path
   style="fill:#4c4c46"
   d="m 254.363,233.488 c 6.813,0 11.616,-6.216 11.817,-6.481 0.287,-0.377 0.233,-0.931 -0.119,-1.237 -0.352,-0.306 -0.87,-0.249 -1.157,0.127 -0.062,0.081 -4.534,5.832 -10.541,5.832 -5.936,0 -9.557,-6.508 -9.592,-6.574 -0.229,-0.419 -0.733,-0.561 -1.124,-0.317 -0.392,0.244 -0.526,0.781 -0.298,1.201 0.165,0.304 4.12,7.449 11.014,7.449 z"
   id="path1200" />
				</g>
			</g>
			<g
   id="g1208">
				<path
   style="fill:#4c4c46"
   d="m 283.169,293.048 c 0.126,0 0.253,-0.031 0.374,-0.096 0.408,-0.221 0.572,-0.755 0.365,-1.192 l -2.971,-6.279 c -0.206,-0.437 -0.705,-0.612 -1.114,-0.39 -0.409,0.221 -0.572,0.755 -0.365,1.192 l 2.971,6.279 c 0.145,0.309 0.437,0.486 0.74,0.486 z"
   id="path1206" />
			</g>
			<g
   id="g1212">
				<path
   style="fill:#4c4c46"
   d="m 289.361,287.905 c 0.107,0.071 0.23,0.117 0.365,0.13 0.456,0.043 0.859,-0.317 0.899,-0.805 l 0.582,-7.01 c 0.041,-0.487 -0.296,-0.919 -0.753,-0.962 -0.456,-0.043 -0.859,0.317 -0.899,0.805 l -0.582,7.01 c -0.029,0.345 0.131,0.66 0.388,0.832 z"
   id="path1210" />
			</g>
			<g
   id="g1216">
				<path
   style="fill:#4c4c46"
   d="m 273.398,277.036 c 0.399,0 0.75,-0.308 0.817,-0.742 l 1.073,-6.943 c 0.074,-0.483 -0.231,-0.94 -0.683,-1.02 -0.453,-0.079 -0.879,0.247 -0.953,0.731 l -1.073,6.943 c -0.074,0.483 0.231,0.94 0.683,1.02 0.046,0.007 0.092,0.011 0.136,0.011 z"
   id="path1214" />
			</g>
			<g
   id="g1220">
				<path
   style="fill:#4c4c46"
   d="m 246.706,279.62 c 0.144,0 0.289,-0.04 0.422,-0.124 0.394,-0.249 0.525,-0.793 0.291,-1.215 l -3.352,-6.055 c -0.233,-0.421 -0.742,-0.561 -1.136,-0.311 -0.394,0.25 -0.525,0.793 -0.291,1.215 l 3.352,6.056 c 0.154,0.279 0.431,0.434 0.714,0.434 z"
   id="path1218" />
			</g>
			<g
   id="g1224">
				<path
   style="fill:#4c4c46"
   d="m 279.497,252.479 c 0.154,0 0.31,-0.046 0.449,-0.142 l 5.525,-3.822 c 0.385,-0.266 0.495,-0.815 0.246,-1.226 -0.249,-0.411 -0.762,-0.529 -1.147,-0.263 l -5.525,3.822 c -0.385,0.266 -0.495,0.815 -0.246,1.226 0.16,0.262 0.426,0.405 0.698,0.405 z"
   id="path1222" />
			</g>
			<g
   id="g1228">
				<path
   style="fill:#4c4c46"
   d="m 254.885,308.894 c 0.126,0 0.253,-0.031 0.374,-0.096 0.408,-0.221 0.572,-0.755 0.365,-1.192 l -2.971,-6.279 c -0.207,-0.437 -0.705,-0.612 -1.114,-0.391 -0.408,0.221 -0.572,0.755 -0.365,1.192 l 2.971,6.279 c 0.145,0.309 0.437,0.487 0.74,0.487 z"
   id="path1226" />
			</g>
			<g
   id="g1232">
				<path
   style="fill:#4c4c46"
   d="m 267.939,257.203 c 0.276,0 0.546,-0.147 0.704,-0.416 0.243,-0.415 0.125,-0.963 -0.263,-1.222 l -5.577,-3.734 c -0.388,-0.259 -0.9,-0.135 -1.143,0.281 -0.243,0.415 -0.125,0.963 0.263,1.222 l 5.577,3.734 c 0.137,0.091 0.289,0.135 0.439,0.135 z"
   id="path1230" />
			</g>
			<g
   id="g1236">
				<path
   style="fill:#4c4c46"
   d="m 281.204,231.094 c -0.012,0.171 0.021,0.339 0.095,0.479 0.127,0.26 0.378,0.444 0.674,0.466 0.456,0.035 0.851,-0.334 0.884,-0.822 l 0.263,-4.041 c -0.522,-0.334 -1.053,-0.673 -1.595,-1.011 z"
   id="path1234" />
			</g>
			<g
   id="g1240">
				<path
   style="fill:#4c4c46"
   d="m 288.639,269.62 c 0.276,0 0.546,-0.147 0.704,-0.416 0.243,-0.415 0.125,-0.963 -0.263,-1.222 l -5.577,-3.734 c -0.388,-0.259 -0.9,-0.135 -1.143,0.281 -0.243,0.415 -0.125,0.962 0.263,1.222 l 5.577,3.734 c 0.136,0.091 0.288,0.135 0.439,0.135 z"
   id="path1238" />
			</g>
			<g
   id="g1244">
				<path
   style="fill:#4c4c46"
   d="m 244.162,238.98 c 0.156,0 0.315,-0.047 0.455,-0.146 0.382,-0.27 0.488,-0.819 0.236,-1.228 l -3.18,-5.162 c -0.251,-0.409 -0.766,-0.523 -1.148,-0.253 -0.382,0.27 -0.488,0.819 -0.236,1.229 l 3.18,5.162 c 0.159,0.257 0.423,0.398 0.693,0.398 z"
   id="path1242" />
			</g>
			<g
   id="g1248">
				<path
   style="fill:#4c4c46"
   d="m 241.311,328.147 c 0.218,0 0.435,-0.091 0.598,-0.273 l 4.557,-5.077 c 0.317,-0.353 0.306,-0.914 -0.024,-1.253 -0.33,-0.34 -0.855,-0.328 -1.172,0.026 l -4.557,5.076 c -0.318,0.353 -0.306,0.914 0.024,1.254 0.161,0.165 0.368,0.247 0.574,0.247 z"
   id="path1246" />
			</g>
			<g
   id="g1252">
				<path
   style="fill:#4c4c46"
   d="m 258.056,327.091 c 0.218,0 0.435,-0.091 0.598,-0.273 l 4.557,-5.077 c 0.318,-0.353 0.306,-0.914 -0.024,-1.253 -0.331,-0.34 -0.855,-0.328 -1.172,0.025 l -4.557,5.077 c -0.317,0.353 -0.306,0.914 0.024,1.254 0.161,0.165 0.368,0.247 0.574,0.247 z"
   id="path1250" />
			</g>
			<g
   id="g1256">
				<path
   style="fill:#4c4c46"
   d="m 270.095,361.406 c 0.076,-0.218 0.073,-0.468 -0.029,-0.695 l -2.845,-6.346 c -0.198,-0.442 -0.693,-0.628 -1.106,-0.416 -0.413,0.212 -0.587,0.741 -0.389,1.183 l 2.845,6.346 c 0.198,0.442 0.693,0.628 1.106,0.416 0.202,-0.103 0.346,-0.282 0.418,-0.488 z"
   id="path1254" />
			</g>
			<g
   id="g1260">
				<path
   style="fill:#4c4c46"
   d="m 222.041,382.344 c 0.077,-0.218 0.073,-0.468 -0.029,-0.695 l -2.845,-6.346 c -0.198,-0.442 -0.693,-0.628 -1.106,-0.416 -0.413,0.212 -0.587,0.741 -0.389,1.183 l 2.845,6.346 c 0.198,0.442 0.693,0.628 1.106,0.416 0.202,-0.103 0.346,-0.281 0.418,-0.488 z"
   id="path1258" />
			</g>
			<g
   id="g1264">
				<path
   style="fill:#4c4c46"
   d="m 242.676,392.854 c 0.555,0.039 1.11,0.075 1.661,0.101 l 0.58,-3.953 c 0.07,-0.484 -0.239,-0.937 -0.691,-1.011 -0.452,-0.075 -0.876,0.255 -0.946,0.739 z"
   id="path1262" />
			</g>
			<g
   id="g1268">
				<path
   style="fill:#4c4c46"
   d="m 236.058,380.907 c 0.179,-0.133 0.308,-0.341 0.344,-0.59 l 1.018,-6.953 c 0.071,-0.484 -0.238,-0.937 -0.691,-1.013 -0.453,-0.076 -0.876,0.255 -0.947,0.739 l -1.018,6.953 c -0.071,0.484 0.238,0.937 0.691,1.013 0.22,0.038 0.434,-0.022 0.603,-0.149 z"
   id="path1266" />
			</g>
			<g
   id="g1272">
				<path
   style="fill:#4c4c46"
   d="m 276.067,322.775 c 0.141,0 0.284,-0.039 0.415,-0.12 0.396,-0.245 0.531,-0.788 0.302,-1.212 l -3.296,-6.09 c -0.229,-0.424 -0.736,-0.568 -1.133,-0.323 -0.396,0.245 -0.532,0.788 -0.302,1.212 l 3.296,6.091 c 0.153,0.283 0.431,0.442 0.718,0.442 z"
   id="path1270" />
			</g>
			<g
   id="g1276">
				<path
   style="fill:#4c4c46"
   d="m 266.388,307.551 c 0.3,0 0.59,-0.175 0.738,-0.48 l 3.016,-6.254 c 0.21,-0.435 0.05,-0.97 -0.357,-1.195 -0.406,-0.226 -0.906,-0.054 -1.117,0.382 l -3.017,6.254 c -0.21,0.435 -0.05,0.97 0.357,1.194 0.122,0.067 0.252,0.099 0.38,0.099 z"
   id="path1274" />
			</g>
			<g
   id="g1280">
				<path
   style="fill:#4c4c46"
   d="m 292.6,306.634 c 0.086,0.11 0.197,0.193 0.312,0.246 0.28,0.123 0.608,0.079 0.855,-0.141 l 3.392,-3.047 c -0.017,-0.756 -0.033,-1.513 -0.053,-2.269 l -4.407,3.957 c -0.349,0.317 -0.395,0.875 -0.099,1.254 z"
   id="path1278" />
			</g>
			<g
   id="g1284">
				<path
   style="fill:#4c4c46"
   d="m 266.431,241.2 c 0.301,0 0.59,-0.175 0.738,-0.48 l 3.017,-6.254 c 0.21,-0.435 0.05,-0.97 -0.357,-1.195 -0.406,-0.225 -0.906,-0.054 -1.117,0.382 l -3.016,6.254 c -0.21,0.435 -0.05,0.97 0.357,1.195 0.12,0.067 0.25,0.098 0.378,0.098 z"
   id="path1282" />
			</g>
			<g
   id="g1288">
				<path
   style="fill:#4c4c46"
   d="m 247.096,264.112 c 0.052,0 0.105,-0.005 0.158,-0.016 0.45,-0.093 0.744,-0.558 0.657,-1.039 l -1.248,-6.909 c -0.087,-0.482 -0.522,-0.795 -0.971,-0.703 -0.45,0.093 -0.744,0.558 -0.657,1.039 l 1.248,6.909 c 0.076,0.425 0.423,0.719 0.813,0.719 z"
   id="path1286" />
			</g>
			<g
   id="g1292">
				<path
   style="fill:#4c4c46"
   d="m 257.861,270.179 c 0.052,0 0.105,-0.005 0.158,-0.016 0.45,-0.093 0.744,-0.558 0.657,-1.039 l -1.248,-6.909 c -0.087,-0.482 -0.522,-0.794 -0.971,-0.703 -0.45,0.093 -0.744,0.558 -0.657,1.039 l 1.248,6.91 c 0.076,0.424 0.423,0.718 0.813,0.718 z"
   id="path1290" />
			</g>
			<g
   id="g1296">
				<path
   style="fill:#4c4c46"
   d="m 250.149,247.382 c 0.275,0 0.543,-0.145 0.701,-0.411 l 3.526,-5.941 c 0.245,-0.413 0.131,-0.962 -0.256,-1.224 -0.388,-0.262 -0.899,-0.139 -1.145,0.273 l -3.526,5.941 c -0.245,0.413 -0.131,0.962 0.256,1.224 0.138,0.094 0.292,0.138 0.444,0.138 z"
   id="path1294" />
			</g>
			<g
   id="g1300">
				<path
   style="fill:#4c4c46"
   d="m 282.495,308.649 c 0.227,-0.259 0.295,-0.649 0.143,-0.989 l -2.834,-6.351 c -0.197,-0.442 -0.692,-0.629 -1.105,-0.418 -0.415,0.211 -0.589,0.74 -0.391,1.182 l 2.834,6.351 c 0.197,0.442 0.692,0.629 1.105,0.418 0.097,-0.048 0.18,-0.114 0.248,-0.193 z"
   id="path1298" />
			</g>
			<g
   id="g1304">
				<path
   style="fill:#4c4c46"
   d="m 261.164,290.223 c 0.331,0 0.644,-0.214 0.772,-0.564 l 2.398,-6.553 c 0.167,-0.456 -0.043,-0.97 -0.47,-1.149 -0.427,-0.179 -0.908,0.046 -1.074,0.503 l -2.398,6.553 c -0.167,0.456 0.043,0.97 0.47,1.149 0.099,0.041 0.201,0.061 0.302,0.061 z"
   id="path1302" />
			</g>
			<g
   id="g1308">
				<path
   style="fill:#4c4c46"
   d="m 234.818,330.699 c 0.126,0 0.253,-0.031 0.374,-0.096 0.408,-0.221 0.572,-0.755 0.365,-1.192 l -2.971,-6.279 c -0.206,-0.437 -0.705,-0.612 -1.114,-0.391 -0.408,0.221 -0.572,0.755 -0.365,1.192 l 2.971,6.279 c 0.145,0.309 0.437,0.487 0.74,0.487 z"
   id="path1306" />
			</g>
			<g
   id="g1312">
				<path
   style="fill:#4c4c46"
   d="m 278.483,375.827 c 10e-4,0.134 0.031,0.271 0.093,0.399 0.21,0.435 0.711,0.605 1.118,0.379 l 5.842,-3.237 c 0.406,-0.224 0.566,-0.76 0.355,-1.195 -0.21,-0.435 -0.711,-0.604 -1.118,-0.379 l -5.842,3.237 c -0.288,0.158 -0.451,0.472 -0.448,0.796 z"
   id="path1310" />
			</g>
			<g
   id="g1316">
				<path
   style="fill:#4c4c46"
   d="m 294.343,379.852 c 0,0.136 0.029,0.273 0.091,0.4 0.21,0.435 0.711,0.602 1.118,0.378 l 2.541,-1.407 c 0,-0.642 0,-1.302 -0.004,-1.992 l -3.297,1.825 c -0.288,0.158 -0.453,0.474 -0.449,0.796 z"
   id="path1314" />
			</g>
			<g
   id="g1320">
				<path
   style="fill:#4c4c46"
   d="m 269.795,387.678 1.998,4.564 c 0.362,-0.039 0.724,-0.083 1.089,-0.128 0.218,-0.026 0.436,-0.053 0.654,-0.079 l -2.241,-5.11 c -0.193,-0.444 -0.686,-0.638 -1.102,-0.427 -0.414,0.209 -0.595,0.736 -0.398,1.18 z"
   id="path1318" />
			</g>
			<g
   id="g1324">
				<path
   style="fill:#4c4c46"
   d="m 224.036,314.686 c 0.399,0 0.75,-0.308 0.817,-0.742 l 1.073,-6.943 c 0.075,-0.483 -0.231,-0.94 -0.683,-1.02 -0.453,-0.079 -0.878,0.247 -0.953,0.731 l -1.073,6.943 c -0.074,0.483 0.231,0.94 0.683,1.02 0.045,0.007 0.091,0.011 0.136,0.011 z"
   id="path1322" />
			</g>
			<g
   id="g1328">
				<path
   style="fill:#4c4c46"
   d="m 223.351,263.456 c 0.144,0 0.289,-0.04 0.421,-0.124 0.394,-0.249 0.525,-0.793 0.291,-1.215 l -3.352,-6.055 c -0.233,-0.421 -0.742,-0.561 -1.135,-0.311 -0.394,0.25 -0.525,0.793 -0.291,1.215 l 3.352,6.055 c 0.155,0.28 0.431,0.435 0.714,0.435 z"
   id="path1326" />
			</g>
			<g
   id="g1332">
				<path
   style="fill:#4c4c46"
   d="m 234.128,288.069 c 0.154,0 0.31,-0.046 0.449,-0.142 l 5.525,-3.822 c 0.385,-0.266 0.495,-0.815 0.246,-1.226 -0.249,-0.411 -0.762,-0.529 -1.146,-0.263 l -5.525,3.822 c -0.385,0.266 -0.495,0.815 -0.246,1.226 0.159,0.262 0.425,0.405 0.697,0.405 z"
   id="path1330" />
			</g>
			<g
   id="g1336">
				<path
   style="fill:#4c4c46"
   d="m 292.627,329.349 c 0.126,0 0.253,-0.031 0.374,-0.096 0.408,-0.221 0.572,-0.755 0.365,-1.192 l -2.971,-6.279 c -0.207,-0.437 -0.705,-0.612 -1.114,-0.39 -0.409,0.221 -0.572,0.755 -0.365,1.191 l 2.971,6.279 c 0.146,0.31 0.437,0.487 0.74,0.487 z"
   id="path1334" />
			</g>
			<g
   id="g1340">
				<path
   style="fill:#4c4c46"
   d="m 224.715,297.607 c 0.276,0 0.546,-0.147 0.704,-0.416 0.243,-0.415 0.125,-0.963 -0.263,-1.222 l -5.577,-3.734 c -0.388,-0.259 -0.9,-0.135 -1.143,0.281 -0.243,0.415 -0.125,0.962 0.263,1.222 l 5.577,3.734 c 0.136,0.091 0.289,0.135 0.439,0.135 z"
   id="path1338" />
			</g>
			<g
   id="g1344">
				<path
   style="fill:#4c4c46"
   d="m 238.085,306.489 c 0.203,0.2 0.495,0.288 0.781,0.205 0.442,-0.129 0.703,-0.616 0.583,-1.088 l -1.727,-6.791 c -0.121,-0.472 -0.575,-0.752 -1.018,-0.623 -0.442,0.129 -0.703,0.616 -0.583,1.088 l 1.727,6.791 c 0.043,0.166 0.127,0.309 0.237,0.418 z"
   id="path1342" />
			</g>
			<g
   id="g1348">
				<path
   style="fill:#4c4c46"
   d="m 214.547,234.814 1.443,2.339 c 0.16,0.255 0.423,0.396 0.695,0.396 0.156,0 0.312,-0.044 0.452,-0.145 0.382,-0.268 0.489,-0.818 0.238,-1.227 l -1.603,-2.603 c -0.46,0.422 -0.872,0.835 -1.225,1.24 z"
   id="path1346" />
			</g>
			<g
   id="g1352">
				<path
   style="fill:#4c4c46"
   d="m 208.24,250.253 1.534,2.489 c 0.16,0.259 0.423,0.4 0.695,0.4 0.156,0 0.313,-0.048 0.456,-0.145 0.382,-0.273 0.485,-0.822 0.234,-1.231 l -2.175,-3.531 c -0.242,0.65 -0.489,1.327 -0.744,2.018 z"
   id="path1350" />
			</g>
			<g
   id="g1356">
				<path
   style="fill:#4c4c46"
   d="m 279.955,351.273 c 0.218,0 0.435,-0.091 0.598,-0.273 l 4.557,-5.076 c 0.317,-0.353 0.306,-0.914 -0.024,-1.254 -0.33,-0.34 -0.855,-0.328 -1.172,0.026 l -4.557,5.076 c -0.317,0.353 -0.306,0.914 0.024,1.254 0.16,0.165 0.367,0.247 0.574,0.247 z"
   id="path1354" />
			</g>
			<g
   id="g1360">
				<path
   style="fill:#4c4c46"
   d="m 249.634,369.02 c 0.218,0 0.435,-0.091 0.598,-0.273 l 4.557,-5.077 c 0.317,-0.353 0.306,-0.914 -0.024,-1.254 -0.33,-0.34 -0.855,-0.328 -1.172,0.026 l -4.557,5.076 c -0.317,0.353 -0.306,0.914 0.024,1.254 0.161,0.166 0.368,0.248 0.574,0.248 z"
   id="path1358" />
			</g>
			<g
   id="g1364">
				<path
   style="fill:#4c4c46"
   d="m 241.207,361.971 c 0.137,-0.181 0.208,-0.419 0.178,-0.669 l -0.822,-6.982 c -0.057,-0.486 -0.472,-0.83 -0.926,-0.769 -0.455,0.061 -0.777,0.504 -0.719,0.991 l 0.822,6.982 c 0.057,0.486 0.472,0.83 0.926,0.769 0.222,-0.03 0.411,-0.151 0.541,-0.322 z"
   id="path1362" />
			</g>
			<g
   id="g1368">
				<path
   style="fill:#4c4c46"
   d="m 258.477,381.65 c 0.218,0 0.435,-0.091 0.598,-0.273 l 4.557,-5.076 c 0.317,-0.353 0.306,-0.914 -0.024,-1.253 -0.33,-0.34 -0.855,-0.328 -1.172,0.026 l -4.557,5.077 c -0.318,0.353 -0.306,0.914 0.024,1.253 0.161,0.164 0.368,0.246 0.574,0.246 z"
   id="path1366" />
			</g>
			<g
   id="g1372">
				<path
   style="fill:#4c4c46"
   d="m 209.424,362.439 c -0.004,0.602 0,1.196 0,1.781 l 5.143,0.462 c 0.456,0.044 0.859,-0.321 0.896,-0.809 0.041,-0.488 -0.3,-0.915 -0.757,-0.959 z"
   id="path1370" />
			</g>
			<g
   id="g1376">
				<path
   style="fill:#4c4c46"
   d="m 269.662,340.598 c 0.218,0 0.435,-0.092 0.598,-0.273 l 4.557,-5.077 c 0.317,-0.353 0.306,-0.914 -0.024,-1.254 -0.331,-0.34 -0.855,-0.328 -1.172,0.026 l -4.557,5.076 c -0.317,0.353 -0.306,0.915 0.024,1.254 0.161,0.166 0.367,0.248 0.574,0.248 z"
   id="path1374" />
			</g>
			<g
   id="g1380">
				<path
   style="fill:#4c4c46"
   d="m 247.738,338.392 c 0.014,0.232 0.114,0.458 0.294,0.62 l 5.036,4.529 c 0.35,0.315 0.873,0.267 1.168,-0.108 0.295,-0.376 0.25,-0.934 -0.101,-1.249 l -5.036,-4.529 c -0.35,-0.315 -0.873,-0.267 -1.168,0.108 -0.144,0.182 -0.207,0.408 -0.193,0.629 z"
   id="path1378" />
			</g>
			<g
   id="g1384">
				<path
   style="fill:#4c4c46"
   d="m 223.743,363.304 c 0.141,0 0.284,-0.038 0.414,-0.119 0.396,-0.245 0.532,-0.788 0.302,-1.212 l -3.296,-6.091 c -0.229,-0.424 -0.736,-0.568 -1.133,-0.323 -0.396,0.245 -0.532,0.788 -0.302,1.212 l 3.296,6.091 c 0.154,0.284 0.433,0.442 0.719,0.442 z"
   id="path1382" />
			</g>
			<g
   id="g1388">
				<path
   style="fill:#4c4c46"
   d="m 218.037,345.201 c 0.301,0 0.59,-0.175 0.738,-0.48 l 3.017,-6.254 c 0.21,-0.435 0.05,-0.97 -0.357,-1.194 -0.406,-0.226 -0.906,-0.054 -1.117,0.381 l -3.017,6.254 c -0.21,0.435 -0.05,0.97 0.357,1.195 0.121,0.066 0.251,0.098 0.379,0.098 z"
   id="path1386" />
			</g>
			<g
   id="g1392">
				<path
   style="fill:#4c4c46"
   d="m 227.035,274.193 c 0.3,0 0.59,-0.175 0.738,-0.48 l 3.016,-6.254 c 0.21,-0.435 0.05,-0.97 -0.357,-1.195 -0.406,-0.225 -0.906,-0.054 -1.117,0.382 l -3.016,6.254 c -0.21,0.435 -0.05,0.97 0.357,1.195 0.121,0.066 0.251,0.098 0.379,0.098 z"
   id="path1390" />
			</g>
			<g
   id="g1396">
				<path
   style="fill:#4c4c46"
   d="m 223.741,247.948 c 0.052,0 0.105,-0.005 0.158,-0.016 0.45,-0.093 0.744,-0.558 0.657,-1.039 l -1.248,-6.909 c -0.087,-0.481 -0.522,-0.795 -0.971,-0.703 -0.45,0.093 -0.744,0.558 -0.657,1.039 l 1.248,6.909 c 0.077,0.425 0.424,0.719 0.813,0.719 z"
   id="path1394" />
			</g>
			<g
   id="g1400">
				<path
   style="fill:#4c4c46"
   d="m 208.589,271.791 c 0.052,0 0.105,-0.005 0.158,-0.016 0.45,-0.093 0.744,-0.558 0.657,-1.039 l -1.248,-6.909 c -0.087,-0.481 -0.522,-0.795 -0.971,-0.703 -0.45,0.093 -0.744,0.558 -0.657,1.039 l 1.248,6.909 c 0.077,0.425 0.424,0.719 0.813,0.719 z"
   id="path1398" />
			</g>
			<g
   id="g1404">
				<path
   style="fill:#4c4c46"
   d="m 234.506,254.015 c 0.052,0 0.105,-0.005 0.158,-0.016 0.45,-0.093 0.744,-0.558 0.657,-1.039 l -1.248,-6.909 c -0.087,-0.482 -0.522,-0.794 -0.971,-0.703 -0.45,0.093 -0.744,0.558 -0.657,1.039 l 1.248,6.909 c 0.076,0.424 0.424,0.719 0.813,0.719 z"
   id="path1402" />
			</g>
			<g
   id="g1408">
				<path
   style="fill:#4c4c46"
   d="m 229.566,229.946 c 0.16,0.039 0.317,0.026 0.46,-0.026 0.259,-0.097 0.469,-0.33 0.535,-0.633 l 1.394,-6.345 c -0.645,0.369 -1.299,0.743 -1.949,1.117 l -1.057,4.819 c -0.107,0.479 0.168,0.954 0.617,1.068 z"
   id="path1406" />
			</g>
			<g
   id="g1412">
				<path
   style="fill:#4c4c46"
   d="m 210.597,282.474 c 0.274,0 0.543,-0.145 0.701,-0.411 l 3.526,-5.941 c 0.245,-0.414 0.131,-0.962 -0.255,-1.224 -0.388,-0.262 -0.899,-0.139 -1.145,0.273 l -3.526,5.941 c -0.245,0.414 -0.131,0.962 0.255,1.224 0.138,0.093 0.292,0.138 0.444,0.138 z"
   id="path1410" />
			</g>
			<g
   id="g1416">
				<path
   style="fill:#4c4c46"
   d="m 234.145,346.3 c 0.227,-0.259 0.294,-0.649 0.143,-0.989 l -2.833,-6.351 c -0.197,-0.442 -0.692,-0.629 -1.105,-0.418 -0.415,0.211 -0.589,0.741 -0.391,1.182 l 2.833,6.351 c 0.197,0.442 0.692,0.63 1.105,0.418 0.096,-0.049 0.179,-0.115 0.248,-0.193 z"
   id="path1414" />
			</g>
			<g
   id="g1420">
				<path
   style="fill:#4c4c46"
   d="m 292.465,358.235 5.538,0.959 c -0.004,-0.594 -0.008,-1.192 -0.017,-1.798 l -5.254,-0.915 c -0.452,-0.075 -0.88,0.251 -0.95,0.734 -0.074,0.483 0.23,0.941 0.683,1.02 z"
   id="path1418" />
			</g>
			<g
   id="g1424">
				<path
   style="fill:#4c4c46"
   d="m 294.15,342.009 3.688,0.638 c -0.008,-0.598 -0.012,-1.196 -0.021,-1.798 l -3.4,-0.589 c -0.452,-0.079 -0.876,0.251 -0.95,0.734 -0.073,0.483 0.231,0.936 0.683,1.015 z"
   id="path1422" />
			</g>
			<g
   id="g1428">
				<path
   style="fill:#4c4c46"
   d="m 212.813,327.873 c 0.332,0 0.645,-0.214 0.772,-0.564 l 2.398,-6.553 c 0.167,-0.456 -0.043,-0.97 -0.47,-1.149 -0.427,-0.179 -0.908,0.046 -1.074,0.503 l -2.398,6.553 c -0.167,0.456 0.044,0.97 0.47,1.149 0.1,0.041 0.202,0.061 0.302,0.061 z"
   id="path1426" />
			</g>
		</g>
		<g
   id="g1438">
			<g
   id="g1436">
				<g
   id="g1434">
					<path
   style="fill:#4c4c46"
   d="m 209.767,307.199 c 1.557,-6.433 3.513,-13.583 5.452,-19.743 0.004,-0.013 0.009,-0.022 0.013,-0.035 0.598,-1.904 1.196,-3.711 1.781,-5.369 0.009,-0.031 0.018,-0.061 0.031,-0.088 0.18,-0.523 0.365,-1.029 0.545,-1.521 0.026,-0.088 0.044,-0.172 0.044,-0.255 v -0.004 c 0,-0.295 -0.185,-0.572 -0.479,-0.682 -0.383,-0.136 -0.805,0.057 -0.941,0.44 -1.988,5.417 -4.336,13.218 -6.35,20.869 -0.034,2.118 -0.065,4.251 -0.096,6.388 z"
   id="path1432" />
				</g>
			</g>
		</g>
		<g
   id="g1494">
			<path
   style="fill:#3b3b39"
   d="m 233.541,182.998 c 0,0 -5.774,-6.363 -3.595,-13.766 2.179,-7.402 8.14,-7.321 8.14,-7.321 0,0 3.478,-7.873 9.401,-8.133 5.923,-0.26 11.507,-10.779 16.896,-7.922 5.39,2.857 -0.584,9.091 -0.584,9.091 0,0 9.234,-9.74 12.279,-6.883 3.045,2.857 -4.228,10.519 -4.228,10.519 0,0 7.759,-5.454 10.308,-3.377 2.549,2.078 -6.08,11.039 -6.08,11.039 0,0 5.583,10.065 -0.036,14.578 z"
   id="path1440" />
			<g
   id="g1452">
				<path
   style="fill:#db8e00"
   d="m 273.88,185.128 c 0,0 3.692,-4.923 6.437,-0.852 2.745,4.07 -1.136,16.093 -7.857,13.158 z"
   id="path1442" />
				<g
   id="g1446">
					<path
   style="fill:#d46800"
   d="m 273.928,193.719 c 0.248,0 0.476,-0.164 0.547,-0.415 1.042,-3.712 4.887,-5.217 4.926,-5.231 0.293,-0.112 0.44,-0.44 0.329,-0.732 -0.111,-0.293 -0.439,-0.441 -0.731,-0.33 -0.18,0.068 -4.417,1.713 -5.617,5.987 -0.085,0.302 0.092,0.615 0.394,0.7 0.05,0.014 0.101,0.021 0.152,0.021 z"
   id="path1444" />
				</g>
				<g
   id="g1450">
					<path
   style="fill:#d46800"
   d="m 277.809,191.849 c 0.106,0 0.212,-0.029 0.307,-0.09 0.264,-0.17 0.34,-0.521 0.17,-0.785 -0.028,-0.044 -0.709,-1.082 -2.132,-1.718 -0.285,-0.129 -0.622,0 -0.75,0.286 -0.128,0.286 0,0.622 0.286,0.75 1.101,0.492 1.635,1.289 1.641,1.297 0.109,0.169 0.292,0.26 0.478,0.26 z"
   id="path1448" />
				</g>
			</g>
			<g
   id="g1466">
				<path
   style="fill:#db8e00"
   d="m 235.832,185.128 c 0,0 -3.692,-4.923 -6.437,-0.852 -2.745,4.07 1.136,16.093 7.857,13.158 z"
   id="path1454" />
				<g
   id="g1458">
					<path
   style="fill:#d46800"
   d="m 235.785,193.719 c -0.248,0 -0.476,-0.164 -0.547,-0.415 -1.041,-3.712 -4.887,-5.217 -4.926,-5.231 -0.293,-0.112 -0.44,-0.44 -0.329,-0.732 0.111,-0.293 0.439,-0.441 0.731,-0.33 0.18,0.068 4.418,1.713 5.617,5.987 0.085,0.302 -0.091,0.615 -0.394,0.7 -0.05,0.014 -0.101,0.021 -0.152,0.021 z"
   id="path1456" />
				</g>
				<g
   id="g1464">
					<g
   id="g1462">
						<path
   style="fill:#d46800"
   d="m 231.903,191.849 c -0.106,0 -0.212,-0.029 -0.307,-0.09 -0.264,-0.17 -0.34,-0.521 -0.17,-0.785 0.028,-0.044 0.708,-1.082 2.132,-1.718 0.285,-0.129 0.622,0 0.75,0.286 0.128,0.286 0,0.622 -0.286,0.75 -1.101,0.492 -1.636,1.289 -1.641,1.297 -0.108,0.169 -0.291,0.26 -0.478,0.26 z"
   id="path1460" />
					</g>
				</g>
			</g>
			<path
   style="fill:#f9ae00"
   d="m 245.768,207.632 v 11.956 c 0,0 3.566,6.089 8.387,6.503 4.817,0.42 9.098,-5.242 9.098,-5.242 v -12.377 z"
   id="path1468" />
			<path
   style="fill:#db8e00"
   d="m 245.768,207.632 v 5.305 c 3.235,3.59 8.982,4.487 17.485,3.232 v -7.696 z"
   id="path1470" />
			<path
   style="fill:#f9ae00"
   d="m 233.165,176.928 c 0.219,4.646 0.661,10.458 1.549,15.1 v 0.013 c 0,0.013 0.004,0.027 0.009,0.045 0,0.005 0.004,0.005 0.004,0.009 0.219,1.134 0.464,2.201 0.732,3.16 0.161,0.562 0.335,1.151 0.531,1.754 2.834,8.891 9.4,21.759 25.901,15.872 6.949,-2.477 10.569,-9.654 12.413,-17.438 0.107,-0.464 0.21,-0.924 0.299,-1.366 0.062,-0.295 0.121,-0.58 0.174,-0.862 l 0.08,-0.415 c 0.013,-0.071 0.022,-0.12 0.027,-0.152 0.005,-0.018 0.005,-0.027 0.005,-0.027 1.089,-5.985 1.254,-12.038 1.174,-16.363 -0.085,-4.41 -2.495,-8.445 -6.333,-10.618 -10.395,-5.896 -21.371,-3.696 -28.597,-0.919 -5.018,1.924 -8.227,6.847 -7.968,12.207 z"
   id="path1472" />
			<path
   style="fill:#3b3b39"
   d="m 234.709,192.028 c 0,0 0,0.004 0.004,0.013 0,0.013 0.004,0.027 0.009,0.045 0,0.005 0.004,0.005 0.004,0.009 0.107,0.388 0.687,2.517 1.263,4.914 2.834,8.891 9.4,21.759 25.901,15.872 6.949,-2.477 10.569,-9.654 12.413,-17.438 0.107,-0.464 0.21,-0.924 0.299,-1.366 0.062,-0.295 0.121,-0.58 0.174,-0.862 l 0.08,-0.415 c 0.013,-0.071 0.022,-0.12 0.027,-0.152 0.005,-0.018 0.005,-0.027 0.005,-0.027 l -2.428,-0.491 c -0.464,2.299 -1.491,4.463 -2.75,6.387 -2.053,-4.919 -12.471,-1.651 -12.471,-1.651 l -0.049,0.018 c -0.634,0.196 -1.285,0.299 -1.942,0.299 -0.674,0 -1.344,-0.107 -1.995,-0.317 0,0 -10.293,-3.41 -12.426,1.281 -2.133,-3.303 -3.58,-6.298 -3.58,-6.298 l -2.535,0.179 z m 20.514,7.066 c 11.779,-1.589 9.927,4.753 9.927,4.753 -1.308,1.192 -2.504,2.062 -3.307,2.513 -2.571,1.433 -5.102,1.977 -6.936,1.888 -1.808,-0.076 -2.303,0.295 -6.874,-2.178 -0.808,-0.433 -1.625,-1.076 -2.424,-1.839 0,0 0,0 -0.004,0 v -0.004 c -0.197,-1.241 -2.192,-7.164 9.618,-5.133 z"
   id="path1474" />
			<path
   style="fill:#3b3b39"
   d="m 244.55,185.574 c 0,1.276 0.658,2.311 1.469,2.311 0.811,0 1.469,-1.035 1.469,-2.311 0,-1.276 -0.658,-2.311 -1.469,-2.311 -0.812,0 -1.469,1.035 -1.469,2.311 z"
   id="path1476" />
			<path
   style="fill:#3b3b39"
   d="m 262.915,185.574 c 0,1.276 0.658,2.311 1.469,2.311 0.812,0 1.469,-1.035 1.469,-2.311 0,-1.276 -0.658,-2.311 -1.469,-2.311 -0.811,0 -1.469,1.035 -1.469,2.311 z"
   id="path1478" />
			<path
   style="fill:#3b3b39"
   d="m 240.788,177.782 c 0,0 6.071,-2.399 10.745,-0.38 l -0.467,2.6 c 0,0 -6.861,-0.58 -10.317,0.82 -0.31,-1 -0.356,-2.012 0.039,-3.04 z"
   id="path1480" />
			<path
   style="fill:#3b3b39"
   d="m 269.654,177.794 c 0,0 -6.116,-2.417 -10.824,-0.383 l 0.471,2.619 c 0,0 6.911,-0.585 10.393,0.827 0.312,-1.008 0.357,-2.027 -0.04,-3.063 z"
   id="path1482" />
			<g
   id="g1488">
				<g
   id="g1486">
					<path
   style="fill:#db8e00"
   d="m 254.659,195.902 c -0.958,0 -1.909,-0.373 -2.056,-0.433 -0.29,-0.118 -0.429,-0.45 -0.311,-0.74 0.118,-0.29 0.45,-0.43 0.74,-0.312 0.513,0.208 1.745,0.535 2.278,0.215 0.103,-0.062 0.244,-0.184 0.279,-0.529 0.205,-1.984 -0.338,-8.632 -0.343,-8.699 -0.026,-0.313 0.207,-0.587 0.52,-0.613 0.314,-0.026 0.587,0.207 0.613,0.519 0.023,0.278 0.557,6.821 0.341,8.909 -0.081,0.786 -0.494,1.188 -0.826,1.387 -0.363,0.22 -0.8,0.296 -1.235,0.296 z"
   id="path1484" />
				</g>
			</g>
			<path
   style="fill:#ffffff"
   d="m 261.9,200.229 c -0.431,2.17 -1.865,6.161 -6.693,6.161 -4.84,0 -6.197,-3.647 -6.663,-6.161 z"
   id="path1490" />
			<path
   style="fill:#3b3b39"
   d="m 233.163,176.926 c 0.222,4.646 0.665,10.457 1.551,15.103 l 2.539,-0.18 c 0,0 -0.615,-3.923 -0.899,-6.479 -0.284,-2.556 -0.766,-7.334 1.415,-7.93 2.175,-0.59 0.899,-6.041 3.926,-8.404 3.027,-2.368 9.799,-3.018 14.264,-0.269 4.464,2.743 9.495,-0.208 11.552,0.269 2.062,0.472 4.856,3.311 4.101,5.964 -0.761,2.647 1.511,4.26 2.062,7.003 0.551,2.743 -1.21,10.127 -1.21,10.127 l 2.425,0.489 c 1.091,-5.987 1.255,-12.036 1.176,-16.358 -0.085,-4.413 -2.493,-8.446 -6.333,-10.621 -10.4,-5.896 -21.373,-3.698 -28.598,-0.92 -5.017,1.926 -8.227,6.85 -7.971,12.206 z"
   id="path1492" />
		</g>
	</g>
	<g
   id="g1656">
		<g
   id="g1644">
			<g
   id="g1642">
				<g
   id="g1502">
					<g
   id="g1500">
						<path
   style="fill:#696649"
   d="m 337.683,304.865 c -1.544,14.082 -10.738,45.542 -17.104,51.704 -8.288,8.023 -35.563,24.914 -49.77,33.574 -2.563,1.562 9.476,11.966 9.476,11.966 0,0 37.722,-16.131 52.128,-28.849 4.075,-3.598 12.35,-14.945 21.691,-36.56 2.832,-6.554 9.695,-19.771 9.339,-28.389 -0.41,-9.919 -16.168,-8.287 -25.76,-3.446 z"
   id="path1498" />
					</g>
				</g>
				<path
   style="fill:#f9ae00"
   d="m 308.248,385.756 c 0,0 -10.26,3.896 -13.896,8.182 -3.636,4.286 -8.441,7.922 -7.273,9.61 1.169,1.688 6.493,-3.247 6.493,-3.247 0,0 1.46,5.425 6.623,6.01 5.164,0.585 14.935,-9.517 14.935,-9.517 z"
   id="path1504" />
				<g
   id="g1636">
					<g
   id="g1532">
						<path
   style="fill:#c08018"
   d="m 409.522,344.183 c 0.003,0.891 -0.005,1.945 -0.021,3.14 -0.016,1.19 -0.042,2.517 -0.078,3.969 -0.029,0.995 -0.06,2.047 -0.096,3.151 -0.034,0.93 -0.07,1.893 -0.109,2.893 -0.044,1.021 -0.091,2.073 -0.143,3.158 -0.714,14.748 -2.441,35.111 -6.239,51.436 h -79.819 c 2.662,-11.865 6.735,-30.579 9.966,-54.859 0.135,-1.021 0.27,-2.052 0.403,-3.094 0.133,-1.042 0.262,-2.093 0.392,-3.153 0.07,-0.564 0.138,-1.133 0.205,-1.701 0.055,-0.47 0.109,-0.938 0.161,-1.4 0.148,-1.309 0.283,-2.597 0.403,-3.86 0.101,-1.055 0.195,-2.091 0.283,-3.114 1.369,-16.324 0.886,-28.558 2.852,-35.885 2.291,-8.53 29.002,-18.309 29.002,-18.309 l 16.735,0.875 c 0,0 15.956,5.21 24.485,12.698 8.532,7.491 1.397,29.841 1.605,42.532 0.008,0.437 0.01,0.946 0.013,1.523 z"
   id="path1506" />
						<g
   id="g1510">
							<path
   style="fill:#ffd527"
   d="m 409.501,347.323 c -7.257,0.881 -14.828,1.229 -22.257,1.229 -24.329,0 -47.168,-3.719 -52.698,-4.688 0.101,-1.055 0.195,-2.091 0.283,-3.114 6.426,1.138 43.612,7.288 74.692,3.434 0.003,0.89 -0.004,1.944 -0.02,3.139 z"
   id="path1508" />
						</g>
						<g
   id="g1514">
							<path
   style="fill:#ffd527"
   d="m 409.423,351.292 c -0.029,0.995 -0.06,2.047 -0.096,3.151 -7.205,0.865 -14.714,1.205 -22.083,1.205 -25.703,0 -49.742,-4.151 -53.467,-4.823 0.07,-0.564 0.138,-1.133 0.205,-1.701 0.055,-0.47 0.109,-0.938 0.161,-1.4 3.7,0.674 42.8,7.573 75.28,3.568 z"
   id="path1512" />
						</g>
						<g
   id="g1518">
							<path
   style="fill:#ffd527"
   d="m 409.218,357.336 c -0.044,1.021 -0.091,2.073 -0.143,3.158 -7.496,0.953 -15.345,1.325 -23.041,1.325 -24.885,0 -48.207,-3.888 -53.051,-4.748 0.135,-1.021 0.27,-2.052 0.403,-3.094 5.76,1.027 44.173,7.502 75.832,3.359 z"
   id="path1516" />
						</g>
						<g
   id="g1522">
							<path
   style="fill:#696649"
   d="m 371.511,302.61 c 8.321,0 15.997,-8.845 16.33,-9.233 0.211,-0.246 0.182,-0.617 -0.064,-0.828 -0.245,-0.211 -0.616,-0.183 -0.828,0.063 -0.08,0.093 -8.12,9.356 -16.155,8.798 -0.321,-0.023 -0.604,0.222 -0.626,0.545 -0.023,0.323 0.221,0.604 0.545,0.626 0.266,0.02 0.533,0.029 0.798,0.029 z"
   id="path1520" />
						</g>
						<g
   id="g1526">
							<path
   style="fill:#696649"
   d="m 378.725,402.077 c 0.294,0 0.548,-0.221 0.582,-0.52 0.037,-0.322 -0.194,-0.613 -0.516,-0.651 -21.494,-2.474 -30.398,-39.68 -30.486,-40.055 -0.073,-0.316 -0.389,-0.512 -0.705,-0.439 -0.316,0.074 -0.512,0.389 -0.439,0.705 0.365,1.566 9.187,38.388 31.495,40.956 0.024,0.003 0.047,0.004 0.069,0.004 z"
   id="path1524" />
						</g>
						<g
   id="g1530">
							<path
   style="fill:#696649"
   d="m 370.166,390.819 c 0.197,0 0.389,-0.099 0.5,-0.279 0.17,-0.276 0.085,-0.638 -0.191,-0.808 -11.432,-7.049 -13.132,-17.438 -13.148,-17.542 -0.049,-0.32 -0.345,-0.544 -0.668,-0.492 -0.32,0.048 -0.541,0.347 -0.493,0.667 0.067,0.447 1.775,11.019 13.693,18.367 0.095,0.059 0.202,0.087 0.307,0.087 z"
   id="path1528" />
						</g>
					</g>
					<g
   id="g1634">
						<circle
   style="fill:#3b3b39"
   cx="376.841"
   cy="247.88"
   r="23.547001"
   id="circle1534" />
						<path
   style="fill:#3b3b39"
   d="m 353.679,243.658 c 0,0 -6.668,-1.841 -5.789,-8.313 0.748,-5.508 7.219,-1.937 6.65,-6.242 -0.569,-4.305 -1.833,-8.219 3.736,-9.295 4.871,-0.941 4.953,2.397 11.35,-2.446 7.557,-5.721 13.362,7.527 20.107,7.925 9.948,0.587 11.203,6.213 12.182,10.714 0.978,4.501 -2.851,7.657 -2.851,7.657 z"
   id="path1536" />
						<g
   id="g1550">
							<path
   style="fill:#db8e00"
   d="m 357.25,254.469 c 0,0 -3.73,-4.973 -6.503,-0.861 -2.773,4.112 1.148,16.258 7.938,13.293 z"
   id="path1538" />
							<g
   id="g1542">
								<path
   style="fill:#d46800"
   d="m 357.202,263.148 c -0.251,0 -0.481,-0.166 -0.552,-0.419 -1.053,-3.75 -4.937,-5.27 -4.976,-5.285 -0.296,-0.113 -0.445,-0.444 -0.332,-0.74 0.112,-0.296 0.443,-0.445 0.739,-0.333 0.182,0.069 4.463,1.73 5.675,6.048 0.085,0.305 -0.092,0.622 -0.398,0.708 -0.053,0.014 -0.105,0.021 -0.156,0.021 z"
   id="path1540" />
							</g>
							<g
   id="g1548">
								<g
   id="g1546">
									<path
   style="fill:#d46800"
   d="m 353.28,261.259 c -0.107,0 -0.214,-0.029 -0.31,-0.091 -0.267,-0.172 -0.343,-0.527 -0.172,-0.793 0.029,-0.044 0.716,-1.093 2.154,-1.736 0.288,-0.13 0.629,0 0.758,0.289 0.129,0.289 0,0.629 -0.289,0.758 -1.112,0.498 -1.652,1.302 -1.657,1.31 -0.11,0.171 -0.295,0.263 -0.484,0.263 z"
   id="path1544" />
								</g>
							</g>
						</g>
						<path
   style="fill:#f9ae00"
   d="m 384.302,277.204 v 12.079 c 0,0 -4.966,5.323 -9.837,5.742 -4.866,0.424 -7.827,-5.357 -7.827,-5.357 v -11.615 z"
   id="path1552" />
						<path
   style="fill:#db8e00"
   d="m 384.302,277.204 v 5.359 c -3.269,3.627 -9.074,4.533 -17.665,3.265 v -7.775 z"
   id="path1554" />
						<path
   style="fill:#f9ae00"
   d="m 397.037,246.183 c -0.224,4.694 -0.672,10.564 -1.567,15.258 -0.224,1.171 -0.476,2.273 -0.758,3.259 -2.542,8.9 -8.9,24.163 -26.699,17.806 -7.861,-2.806 -11.505,-11.563 -13.129,-20.468 -1.102,-6.048 -1.268,-12.159 -1.188,-16.526 0.086,-4.458 2.519,-8.532 6.398,-10.73 10.507,-5.956 21.593,-3.736 28.892,-0.93 5.067,1.945 8.309,6.92 8.051,12.331 z"
   id="path1556" />
						<g
   id="g1594">
							<g
   id="g1592">
								<g
   id="g1564">
									<g
   id="g1562">
										<g
   id="g1560">
											<path
   style="fill:#3b3b39"
   d="m 375.682,254.714 v 0.953 c 0,1.919 0.748,3.72 2.11,5.072 1.341,1.334 3.114,2.065 4.999,2.065 h 0.232 c 1.635,-0.035 3.121,-0.693 4.424,-1.957 1.306,-1.275 2.055,-3.097 2.055,-5.006 v -1.126 c 0,-0.312 -0.059,-0.61 -0.166,-0.887 -0.125,-0.336 -0.319,-0.634 -0.568,-0.883 -0.454,-0.454 -1.077,-0.734 -1.77,-0.734 h -8.81 c -0.997,0 -1.857,0.582 -2.259,1.427 -0.149,0.308 -0.236,0.651 -0.243,1.011 -0.004,0.02 -0.004,0.045 -0.004,0.065 z m 1.039,0 c 0,-0.81 0.658,-1.465 1.465,-1.465 h 8.81 c 0.811,0 1.466,0.655 1.466,1.465 v 1.126 c 0,1.628 -0.634,3.184 -1.743,4.261 -1.105,1.074 -2.356,1.632 -3.717,1.663 h -0.212 c -1.607,0 -3.121,-0.624 -4.268,-1.763 -1.16,-1.154 -1.801,-2.692 -1.801,-4.334 z"
   id="path1558" />
										</g>
									</g>
								</g>
								<g
   id="g1572">
									<g
   id="g1570">
										<g
   id="g1568">
											<path
   style="fill:#3b3b39"
   d="m 358.042,254.714 v 0.953 c 0,1.919 0.752,3.72 2.11,5.072 1.341,1.334 3.114,2.065 4.999,2.065 h 0.235 c 1.632,-0.035 3.121,-0.693 4.421,-1.957 1.306,-1.275 2.058,-3.097 2.058,-5.006 v -1.126 c 0,-0.017 0,-0.031 -0.004,-0.048 -0.004,-0.339 -0.08,-0.665 -0.211,-0.96 -0.388,-0.883 -1.268,-1.496 -2.29,-1.496 h -8.813 c -0.772,0 -1.465,0.353 -1.926,0.904 -0.222,0.27 -0.391,0.586 -0.482,0.928 -0.066,0.214 -0.097,0.439 -0.097,0.671 z m 1.04,0 c 0,-0.81 0.658,-1.465 1.465,-1.465 h 8.813 c 0.807,0 1.465,0.655 1.465,1.465 v 1.126 c 0,1.628 -0.637,3.184 -1.742,4.261 -1.105,1.074 -2.356,1.632 -3.717,1.663 h -0.215 c -1.608,0 -3.121,-0.624 -4.265,-1.763 -1.164,-1.154 -1.805,-2.692 -1.805,-4.334 v -0.953 z"
   id="path1566" />
										</g>
									</g>
								</g>
								<g
   id="g1578">
									<g
   id="g1576">
										<path
   style="fill:#3b3b39"
   d="m 395.78,251.79 c -2.992,-0.129 -5.129,0.734 -5.974,1.155 -0.236,0.114 -0.866,0.524 -0.893,0.541 l 0.495,0.882 c 0.007,-0.004 0.696,-0.415 0.966,-0.54 0.829,-0.387 2.669,-1.163 5.406,-1.002 z"
   id="path1574" />
									</g>
								</g>
								<g
   id="g1584">
									<g
   id="g1582">
										<path
   style="fill:#3b3b39"
   d="m 376.38,254.753 0.341,-0.982 c -0.061,-0.021 -1.52,-0.523 -3.123,-0.523 -1.706,0 -2.804,0.524 -2.851,0.546 l 0.454,0.935 c 0.008,-0.004 0.945,-0.442 2.397,-0.442 1.422,0.001 2.769,0.462 2.782,0.466 z"
   id="path1580" />
									</g>
								</g>
								<g
   id="g1590">
									<g
   id="g1588">
										<path
   style="fill:#3b3b39"
   d="m 354.403,252.04 v 1.042 c 2.152,0.178 4.14,1.139 4.169,1.151 l 0.457,-0.932 c -0.117,-0.059 -2.251,-1.088 -4.626,-1.261 z"
   id="path1586" />
									</g>
								</g>
							</g>
						</g>
						<path
   style="fill:#3b3b39"
   d="m 366.198,256.046 c 0,1.289 -0.664,2.335 -1.484,2.335 -0.82,0 -1.484,-1.045 -1.484,-2.335 0,-1.289 0.665,-2.335 1.484,-2.335 0.819,0 1.484,1.045 1.484,2.335 z"
   id="path1596" />
						<path
   style="fill:#3b3b39"
   d="m 383.578,256.046 c 0,1.289 -0.665,2.335 -1.484,2.335 -0.82,0 -1.484,-1.045 -1.484,-2.335 0,-1.289 0.665,-2.335 1.484,-2.335 0.82,0 1.484,1.045 1.484,2.335 z"
   id="path1598" />
						<path
   style="fill:#3b3b39"
   d="m 359.886,248.876 c 0,0 6.178,-2.442 10.935,-0.386 l -0.397,2.208 c 0,0 -5.152,-1.15 -10.197,0.731 -0.315,-1.018 -0.743,-1.506 -0.341,-2.553 z"
   id="path1600" />
						<path
   style="fill:#3b3b39"
   d="m 388.158,248.876 c 0,0 -6.178,-2.442 -10.936,-0.386 l 0.397,2.208 c 0,0 5.152,-1.15 10.197,0.731 0.315,-1.018 0.744,-1.506 0.342,-2.553 z"
   id="path1602" />
						<g
   id="g1608">
							<g
   id="g1606">
								<path
   style="fill:#db8e00"
   d="m 374.315,265.83 c 0.968,0 1.928,-0.377 2.077,-0.437 0.293,-0.12 0.433,-0.454 0.314,-0.748 -0.119,-0.293 -0.455,-0.434 -0.748,-0.315 -0.518,0.21 -1.762,0.54 -2.302,0.217 -0.104,-0.063 -0.246,-0.186 -0.282,-0.534 -0.207,-2.004 0.341,-8.72 0.347,-8.788 0.026,-0.316 -0.209,-0.593 -0.524,-0.619 -0.317,-0.027 -0.593,0.209 -0.619,0.525 -0.023,0.281 -0.563,6.891 -0.345,9 0.082,0.794 0.499,1.2 0.834,1.401 0.368,0.22 0.809,0.298 1.248,0.298 z"
   id="path1604" />
							</g>
						</g>
						<path
   style="fill:#ffffff"
   d="m 367.202,268.743 c 0.469,2.359 2.027,6.7 7.279,6.7 5.264,0 6.74,-3.967 7.247,-6.7 z"
   id="path1610" />
						<g
   id="g1614">
							<path
   style="fill:#db8e00"
   d="m 374.41,278.439 c 1.485,0 2.744,-0.752 2.797,-0.784 0.271,-0.164 0.358,-0.517 0.193,-0.788 -0.164,-0.272 -0.517,-0.358 -0.788,-0.194 -0.009,0.006 -1.046,0.618 -2.203,0.618 -1.062,0 -2.078,-0.609 -2.088,-0.616 -0.269,-0.166 -0.623,-0.083 -0.789,0.187 -0.167,0.269 -0.083,0.623 0.187,0.789 0.051,0.033 1.289,0.788 2.691,0.788 z"
   id="path1612" />
						</g>
						<path
   style="fill:#3b3b39"
   d="m 356.66,258.297 c -0.433,-2.366 -0.862,-5.421 -0.55,-6.986 0.559,-2.771 2.853,-4.4 2.088,-7.071 -0.765,-2.682 2.059,-5.553 4.141,-6.029 2.076,-0.482 6.935,0.553 11.718,-1.718 4.565,-2.17 12.5,-0.618 13.794,2.312 1.565,3.547 -0.565,3.882 3.706,7.718 1.7,1.529 -0.318,5.5 -0.606,8.082 -0.129,1.188 -0.148,1.768 -0.101,3.044 l 0.017,0.648 h 5.111 c 0.563,-4.005 0.885,-8.421 1.061,-12.116 0.259,-5.412 -2.988,-10.382 -8.053,-12.329 -7.3,-2.806 -18.382,-5.029 -28.894,0.929 -3.876,2.2 -6.312,6.27 -6.394,10.729 -0.065,3.463 0.027,8.026 0.619,12.786 h 2.343 z"
   id="path1616" />
						<g
   id="g1632">
							<path
   style="fill:#f9ae00"
   d="m 393.712,260.505 c -0.016,-1.337 0.079,-2.674 0.312,-3.99 0.319,-1.8 0.841,-3.434 2.684,-4.184 1.482,-0.604 3.065,-0.616 4.191,1.055 2.773,4.112 -0.316,16.909 -7.106,13.944 z"
   id="path1618" />
							<g
   id="g1624">
								<g
   id="g1622">
									<path
   style="fill:#db8e00"
   d="m 395.106,263.604 c 0.246,-0.049 0.439,-0.257 0.46,-0.519 0.298,-3.883 3.81,-6.134 3.845,-6.157 0.268,-0.169 0.349,-0.523 0.181,-0.791 -0.168,-0.268 -0.522,-0.35 -0.79,-0.182 -0.165,0.103 -4.038,2.57 -4.381,7.042 -0.024,0.316 0.212,0.592 0.529,0.616 0.053,0.004 0.106,0 0.156,-0.009 z"
   id="path1620" />
								</g>
							</g>
							<g
   id="g1630">
								<g
   id="g1628">
									<path
   style="fill:#db8e00"
   d="m 398.582,260.983 c 0.105,-0.021 0.204,-0.071 0.286,-0.15 0.228,-0.22 0.233,-0.584 0.013,-0.811 -0.037,-0.038 -0.916,-0.932 -2.452,-1.281 -0.307,-0.071 -0.616,0.123 -0.686,0.432 -0.071,0.309 0.123,0.616 0.432,0.687 1.188,0.27 1.875,0.954 1.882,0.96 0.141,0.146 0.34,0.2 0.525,0.163 z"
   id="path1626" />
								</g>
							</g>
						</g>
					</g>
				</g>
				<g
   id="g1640">
					<path
   style="fill:#696649"
   d="m 404.51,297.509 c -8.386,12.711 -40.482,56.657 -47.724,61.762 -9.427,6.646 -35.126,16.096 -49.881,25.948 -5.013,3.348 6.831,12.821 6.831,12.821 0,0 35.966,-10.111 52.164,-20.451 4.582,-2.925 23.64,-22.016 35.791,-38.949 4.163,-5.801 10.934,-13.858 11.914,-22.427 1.127,-9.863 -1.971,-15.14 -9.095,-18.704 z"
   id="path1638" />
				</g>
			</g>
		</g>
		<g
   id="g1654">
			<path
   style="fill:#181801"
   d="m 340.897,411.93 h -99.984 c -1.278,0 -2.314,-1.036 -2.314,-2.314 v -7.967 c 0,-1.278 1.036,-2.314 2.314,-2.314 h 99.984 c 1.278,0 2.314,1.036 2.314,2.314 v 7.967 c -0.001,1.278 -1.036,2.314 -2.314,2.314 z"
   id="path1646" />
			<path
   style="fill:#3b3b39"
   d="m 238.621,411.93 -19.663,-73.639 c -1.104,-4.136 2.013,-8.195 6.294,-8.195 h 43.268 c 2.919,0 5.482,1.942 6.272,4.753 l 21.652,77.081 z"
   id="path1648" />
			<path
   style="fill:#181801"
   d="m 274.794,334.85 21.472,76.446 h 4.944 L 279.738,334.85 c -0.795,-2.812 -3.354,-4.756 -6.274,-4.756 h -4.944 c 2.92,-10e-4 5.479,1.944 6.274,4.756 z"
   id="path1650" />
			<path
   style="fill:#545454"
   d="m 263.67,374.31 c 1.124,4.857 -1.902,8.795 -6.759,8.795 -4.857,0 -9.706,-3.937 -10.83,-8.795 -1.124,-4.857 1.902,-8.795 6.759,-8.795 4.857,0 9.706,3.938 10.83,8.795 z"
   id="path1652" />
		</g>
	</g>
	<g
   id="g1786">
		<g
   id="g1714">
			<g
   id="g1712">
				<g
   id="g1660">
					<path
   style="fill:#696649"
   d="m 397.747,140.706 c -3.641,0 -6.603,-2.962 -6.603,-6.603 0,-3.641 2.962,-6.603 6.603,-6.603 3.641,0 6.603,2.962 6.603,6.603 0,3.641 -2.962,6.603 -6.603,6.603 z m 0,-11.136 c -2.499,0 -4.532,2.033 -4.532,4.532 0,2.499 2.033,4.532 4.532,4.532 2.499,0 4.532,-2.033 4.532,-4.532 -10e-4,-2.499 -2.034,-4.532 -4.532,-4.532 z"
   id="path1658" />
				</g>
				<g
   id="g1664">
					<path
   style="fill:#c08018"
   d="m 421.518,163.872 c -3.641,0 -6.603,-2.962 -6.603,-6.603 0,-3.641 2.962,-6.603 6.603,-6.603 3.641,0 6.603,2.962 6.603,6.603 0,3.641 -2.962,6.603 -6.603,6.603 z m 0,-11.135 c -2.499,0 -4.532,2.033 -4.532,4.532 0,2.499 2.033,4.532 4.532,4.532 2.499,0 4.532,-2.033 4.532,-4.532 0,-2.499 -2.033,-4.532 -4.532,-4.532 z"
   id="path1662" />
				</g>
				<g
   id="g1686">
					<g
   id="g1674">
						<g
   id="g1668">
							<path
   style="fill:#696649"
   d="m 429.677,185.33 c -0.572,0 -1.036,-0.464 -1.036,-1.036 v -4.568 c 0,-0.572 0.464,-1.036 1.036,-1.036 0.572,0 1.036,0.464 1.036,1.036 v 4.568 c -0.001,0.572 -0.464,1.036 -1.036,1.036 z"
   id="path1666" />
						</g>
						<g
   id="g1672">
							<path
   style="fill:#696649"
   d="m 429.677,193.323 c -0.572,0 -1.036,-0.464 -1.036,-1.036 v -4.568 c 0,-0.572 0.464,-1.036 1.036,-1.036 0.572,0 1.036,0.464 1.036,1.036 v 4.568 c -0.001,0.573 -0.464,1.036 -1.036,1.036 z"
   id="path1670" />
						</g>
					</g>
					<g
   id="g1684">
						<g
   id="g1678">
							<path
   style="fill:#696649"
   d="m 436.088,187.043 h -4.103 c -0.572,0 -1.036,-0.464 -1.036,-1.036 0,-0.572 0.464,-1.036 1.036,-1.036 h 4.103 c 0.572,0 1.036,0.464 1.036,1.036 0,0.572 -0.464,1.036 -1.036,1.036 z"
   id="path1676" />
						</g>
						<g
   id="g1682">
							<path
   style="fill:#696649"
   d="m 427.368,187.043 h -4.103 c -0.572,0 -1.036,-0.464 -1.036,-1.036 0,-0.572 0.464,-1.036 1.036,-1.036 h 4.103 c 0.572,0 1.036,0.464 1.036,1.036 0,0.572 -0.464,1.036 -1.036,1.036 z"
   id="path1680" />
						</g>
					</g>
				</g>
				<g
   id="g1710">
					<g
   id="g1708">
						<g
   id="g1696">
							<g
   id="g1690">
								<path
   style="fill:#474743"
   d="m 393.215,159.734 c -0.572,0 -1.036,-0.464 -1.036,-1.036 v -4.568 c 0,-0.572 0.464,-1.036 1.036,-1.036 0.572,0 1.036,0.464 1.036,1.036 v 4.568 c 0,0.572 -0.464,1.036 -1.036,1.036 z"
   id="path1688" />
							</g>
							<g
   id="g1694">
								<path
   style="fill:#474743"
   d="m 393.215,167.728 c -0.572,0 -1.036,-0.464 -1.036,-1.036 v -4.568 c 0,-0.572 0.464,-1.036 1.036,-1.036 0.572,0 1.036,0.464 1.036,1.036 v 4.568 c 0,0.572 -0.464,1.036 -1.036,1.036 z"
   id="path1692" />
							</g>
						</g>
						<g
   id="g1706">
							<g
   id="g1700">
								<path
   style="fill:#474743"
   d="m 399.627,161.447 h -4.103 c -0.572,0 -1.036,-0.464 -1.036,-1.036 0,-0.572 0.464,-1.036 1.036,-1.036 h 4.103 c 0.572,0 1.036,0.464 1.036,1.036 -0.001,0.572 -0.464,1.036 -1.036,1.036 z"
   id="path1698" />
							</g>
							<g
   id="g1704">
								<path
   style="fill:#474743"
   d="m 390.907,161.447 h -4.103 c -0.572,0 -1.036,-0.464 -1.036,-1.036 0,-0.572 0.464,-1.036 1.036,-1.036 h 4.103 c 0.572,0 1.036,0.464 1.036,1.036 -10e-4,0.572 -0.464,1.036 -1.036,1.036 z"
   id="path1702" />
							</g>
						</g>
					</g>
				</g>
			</g>
		</g>
		<g
   id="g1772">
			<g
   id="g1770">
				<g
   id="g1718">
					<path
   style="fill:#696649"
   d="m 91.296,110.388 c 0,-3.641 2.962,-6.603 6.603,-6.603 3.641,0 6.603,2.962 6.603,6.603 0,3.641 -2.962,6.603 -6.603,6.603 -3.641,0.001 -6.603,-2.962 -6.603,-6.603 z m 2.072,0 c 0,2.499 2.033,4.532 4.532,4.532 2.499,0 4.532,-2.033 4.532,-4.532 0,-2.499 -2.033,-4.532 -4.532,-4.532 -2.499,0 -4.532,2.033 -4.532,4.532 z"
   id="path1716" />
				</g>
				<g
   id="g1722">
					<path
   style="fill:#c08018"
   d="m 64.778,135.558 c 0,-3.641 2.962,-6.604 6.603,-6.604 3.641,0 6.603,2.962 6.603,6.604 0,3.642 -2.962,6.603 -6.603,6.603 -3.641,0 -6.603,-2.962 -6.603,-6.603 z m 2.071,0 c 0,2.499 2.033,4.532 4.532,4.532 2.499,0 4.532,-2.033 4.532,-4.532 0,-2.499 -2.033,-4.532 -4.532,-4.532 -2.499,0 -4.532,2.033 -4.532,4.532 z"
   id="path1720" />
				</g>
				<g
   id="g1744">
					<g
   id="g1732">
						<g
   id="g1726">
							<path
   style="fill:#696649"
   d="m 51.049,144.824 c 0.572,0 1.036,-0.464 1.036,-1.036 v -4.568 c 0,-0.572 -0.464,-1.036 -1.036,-1.036 -0.572,0 -1.036,0.464 -1.036,1.036 v 4.568 c 0,0.572 0.464,1.036 1.036,1.036 z"
   id="path1724" />
						</g>
						<g
   id="g1730">
							<path
   style="fill:#696649"
   d="m 51.049,152.818 c 0.572,0 1.036,-0.464 1.036,-1.036 v -4.568 c 0,-0.572 -0.464,-1.036 -1.036,-1.036 -0.572,0 -1.036,0.464 -1.036,1.036 v 4.568 c 0,0.572 0.464,1.036 1.036,1.036 z"
   id="path1728" />
						</g>
					</g>
					<g
   id="g1742">
						<g
   id="g1736">
							<path
   style="fill:#696649"
   d="m 44.638,146.537 h 4.103 c 0.572,0 1.036,-0.464 1.036,-1.036 0,-0.572 -0.464,-1.036 -1.036,-1.036 h -4.103 c -0.572,0 -1.036,0.464 -1.036,1.036 0,0.572 0.464,1.036 1.036,1.036 z"
   id="path1734" />
						</g>
						<g
   id="g1740">
							<path
   style="fill:#696649"
   d="m 53.358,146.537 h 4.103 c 0.572,0 1.036,-0.464 1.036,-1.036 0,-0.572 -0.464,-1.036 -1.036,-1.036 h -4.103 c -0.572,0 -1.036,0.464 -1.036,1.036 0,0.572 0.464,1.036 1.036,1.036 z"
   id="path1738" />
						</g>
					</g>
				</g>
				<g
   id="g1768">
					<g
   id="g1766">
						<g
   id="g1754">
							<g
   id="g1748">
								<path
   style="fill:#474743"
   d="m 74.916,109.711 c 0.572,0 1.036,-0.464 1.036,-1.036 v -4.568 c 0,-0.572 -0.464,-1.036 -1.036,-1.036 -0.572,0 -1.036,0.464 -1.036,1.036 v 4.568 c 0.001,0.572 0.465,1.036 1.036,1.036 z"
   id="path1746" />
							</g>
							<g
   id="g1752">
								<path
   style="fill:#474743"
   d="m 74.916,117.705 c 0.572,0 1.036,-0.464 1.036,-1.036 v -4.568 c 0,-0.572 -0.464,-1.036 -1.036,-1.036 -0.572,0 -1.036,0.464 -1.036,1.036 v 4.568 c 0.001,0.572 0.465,1.036 1.036,1.036 z"
   id="path1750" />
							</g>
						</g>
						<g
   id="g1764">
							<g
   id="g1758">
								<path
   style="fill:#474743"
   d="m 68.505,111.424 h 4.103 c 0.572,0 1.036,-0.464 1.036,-1.036 0,-0.572 -0.464,-1.036 -1.036,-1.036 h -4.103 c -0.572,0 -1.036,0.464 -1.036,1.036 0,0.572 0.464,1.036 1.036,1.036 z"
   id="path1756" />
							</g>
							<g
   id="g1762">
								<path
   style="fill:#474743"
   d="m 77.225,111.424 h 4.103 c 0.572,0 1.036,-0.464 1.036,-1.036 0,-0.572 -0.464,-1.036 -1.036,-1.036 h -4.103 c -0.572,0 -1.036,0.464 -1.036,1.036 0,0.572 0.464,1.036 1.036,1.036 z"
   id="path1760" />
							</g>
						</g>
					</g>
				</g>
			</g>
		</g>
		<g
   id="g1784">
			<path
   style="fill:#c08018"
   d="m 346.03,117.399 v 20.107 c 0,2.658 -2.156,4.814 -4.814,4.814 h -36.509 l -11.022,3.954 c -1.132,0.407 -2.215,-0.706 -1.781,-1.826 l 4.169,-10.767 v -16.283 c 0,-2.658 2.156,-4.814 4.816,-4.814 h 40.326 c 2.658,0 4.815,2.157 4.815,4.815 z"
   id="path1774" />
			<g
   style="opacity:0.5"
   id="g1782">
				<path
   style="fill:#ffd527"
   d="M 338.333,123.087 H 304.84 c -0.734,0 -1.329,-0.595 -1.329,-1.329 v 0 c 0,-0.734 0.595,-1.328 1.329,-1.328 h 33.493 c 0.734,0 1.329,0.595 1.329,1.328 v 0 c 0,0.735 -0.595,1.329 -1.329,1.329 z"
   id="path1776" />
				<path
   style="fill:#ffd527"
   d="M 338.333,128.438 H 304.84 c -0.734,0 -1.329,-0.595 -1.329,-1.329 v 0 c 0,-0.734 0.595,-1.328 1.329,-1.328 h 33.493 c 0.734,0 1.329,0.595 1.329,1.328 v 0 c 0,0.734 -0.595,1.329 -1.329,1.329 z"
   id="path1778" />
				<path
   style="fill:#ffd527"
   d="M 338.333,133.788 H 304.84 c -0.734,0 -1.329,-0.595 -1.329,-1.328 v 0 c 0,-0.734 0.595,-1.329 1.329,-1.329 h 33.493 c 0.734,0 1.329,0.595 1.329,1.329 v 0 c 0,0.733 -0.595,1.328 -1.329,1.328 z"
   id="path1780" />
			</g>
		</g>
	</g>
	<g
   id="g1792">
		<path
   style="fill:#474743"
   d="m 453.721,419.45 v 0.719 c 0,4.145 -3.361,7.506 -7.509,7.506 H 56.778 c -4.147,0 -7.506,-3.361 -7.506,-7.506 v -0.719 c 0,-4.145 3.359,-7.506 7.506,-7.506 h 389.434 c 4.148,0 7.509,3.361 7.509,7.506 z"
   id="path1788" />
		<path
   style="fill:#696649"
   d="m 453.721,419.45 v 0.359 H 49.272 v -0.359 c 0,-4.145 3.359,-7.506 7.506,-7.506 h 389.434 c 4.148,0 7.509,3.361 7.509,7.506 z"
   id="path1790" />
	</g>
</g>

</svg>
